<?xml version="1.0" encoding="UTF-8" standalone="no"?>
<!-- Created with Inkscape (http://www.inkscape.org/) -->

<svg
   version="1.1"
   id="svg1"
   width="682.66669"
   height="682.66669"
   viewBox="0 0 682.66669 682.66669"
   sodipodi:docname="favicon.svg"
   inkscape:version="1.4.2 (f4327f4, 2025-05-13)"
   inkscape:export-filename="favicon.ico"
   inkscape:export-xdpi="4.5"
   inkscape:export-ydpi="4.5"
   xmlns:inkscape="http://www.inkscape.org/namespaces/inkscape"
   xmlns:sodipodi="http://sodipodi.sourceforge.net/DTD/sodipodi-0.dtd"
   xmlns="http://www.w3.org/2000/svg"
   xmlns:svg="http://www.w3.org/2000/svg">
  <defs
     id="defs1" />
  <sodipodi:namedview
     id="namedview1"
     pagecolor="#ffffff"
     bordercolor="#000000"
     borderopacity="0.25"
     inkscape:showpageshadow="2"
     inkscape:pageopacity="0.0"
     inkscape:pagecheckerboard="0"
     inkscape:deskcolor="#d1d1d1"
     inkscape:zoom="0.82346173"
     inkscape:cx="371.60197"
     inkscape:cy="304.20357"
     inkscape:window-width="1920"
     inkscape:window-height="991"
     inkscape:window-x="-9"
     inkscape:window-y="-9"
     inkscape:window-maximized="1"
     inkscape:current-layer="g1" />
  <g
     inkscape:groupmode="layer"
     inkscape:label="Image"
     id="g1">
    <g
       id="g2"
       transform="translate(63.387654,-145.15519)">
      <path
         d="m 336.99413,176.37214 7.64957,-1.26567 0.9141,-1.27308 -0.18504,-1.09544 -1.27308,-0.9104 -7.64957,1.26568 z"
         style="fill:#565757;fill-rule:evenodd;stroke-width:1.33333"
         id="path1-88" />
      <path
         d="m 325.8732,183.82187 -4.18931,1.8171 -3.09758,1.63205 -2.00584,1.45442 -2.00584,1.45442 -3.09757,1.63575 -2.00584,1.45442 -6.37649,2.17608 -0.9104,1.27307 -0.9141,1.27308 -0.9104,1.27308 -0.73276,2.36852 -0.73276,2.36481 -0.9104,1.27308 -0.73276,2.36852 -0.9104,1.27308 -0.91409,1.27307 -0.9104,1.27308 -2.00584,1.45442 -3.09758,1.63576 -0.9141,1.27307 -0.9104,1.27308 -0.9141,1.27308 -0.91039,1.27308 -0.73276,2.36481 -0.9104,1.27678 -0.73276,2.36482 -0.73276,2.36482 -0.72906,2.36851 -0.55142,3.46026 -0.55142,3.45655 -0.55142,3.46026 -0.37008,4.55199 0.18504,7.83091 3.07167,18.57806 1.81339,4.19301 2.35742,7.46823 7.41642,38.07021 8.13437,42.44086 2.53876,8.56367 1.27307,0.9141 1.27308,0.9104 2.18718,-0.36268 0.54402,3.27892 1.99473,5.28475 1.63576,3.09758 1.27308,0.9141 1.45442,2.00584 1.27307,0.91039 1.45442,2.00584 1.27308,0.9104 1.27308,0.9141 1.27307,0.9104 1.27308,0.9141 2.36482,0.73276 1.27678,0.9104 1.27308,0.9141 2.36481,0.72906 5.64373,0.19244 3.46026,0.55142 1.45442,2.00214 1.27307,0.9141 4.552,0.37008 27.32306,-4.51499 3.09758,-1.63576 0.9141,-1.27307 0.9104,-1.27308 0.9141,-1.27308 3.09757,-1.63576 3.09758,-1.63575 3.09757,-1.63206 4.19302,-1.8171 3.09758,-1.63575 0.91039,-1.27308 0.9141,-1.27308 0.55142,-3.46026 4.18932,-1.81339 2.00584,-1.45442 2.00583,-1.45442 0.9104,-1.27307 0.9141,-1.27308 0.9104,-1.27308 2.00584,-1.45442 0.9104,-1.27308 0.9141,-1.27677 0.9104,-1.27308 0.73276,-2.36482 0.9141,-1.27308 0.91039,-1.27307 0.9141,-1.27308 0.72906,-2.36852 0.55142,-3.46025 0.37008,-4.552 2.00584,-1.45441 0.9141,-1.27308 0.9104,-1.27308 0.73276,-2.36482 0.55142,-3.46025 0.55142,-3.46026 0.54772,-3.45655 0.55142,-3.46026 0.9141,-1.27308 0.9104,-1.27307 0.9141,-1.27678 0.9104,-1.27308 0.73276,-2.36482 0.73276,-2.36481 0.55142,-3.46026 0.55142,-3.46025 0.72906,-2.36482 0.73276,-2.36852 0.73276,-2.36481 0.9104,-1.27308 0.9141,-1.27308 0.55142,-3.46025 -0.37009,-8.92265 -2.51654,-22.03831 -3.61199,-21.86067 -5.06641,-23.86281 -2.53875,-8.55997 -1.8171,-4.19302 -1.45442,-2.00213 -2.36481,-0.73276 -1.27308,-0.9141 -1.8171,-4.18932 -1.45442,-2.00583 -1.27307,-0.9104 -1.27308,-0.9141 -1.27308,-0.9141 -1.45442,-2.00214 -1.27307,-0.9141 -1.27308,-0.9104 -1.27308,-0.9141 -1.27308,-0.9104 -1.27678,-0.91409 -1.45071,-2.00584 -1.27678,-0.9104 -1.27308,-0.9141 -1.27308,-0.9104 -1.27308,-0.9141 -3.46025,-0.55142 -3.45656,-0.54772 -5.64743,-0.19244 -6.73547,-0.007 -6.73917,-0.0111 -4.55199,-0.37009 -3.46026,-0.55142 -1.27308,-0.91039 -1.27307,-0.9141 -2.36852,-0.72906 -3.45656,-0.55142 -22.95241,3.79332 z"
         style="fill:#565757;fill-rule:evenodd;stroke-width:1.33333"
         id="path2-2" />
      <path
         d="m 94.365468,223.20587 -0.914099,1.27307 -0.910399,1.27308 -0.55142,3.46026 0.373781,2.3241 -6.750273,-0.14803 -7.64957,1.26568 -0.914099,1.27308 -0.551421,3.46025 -0.55142,3.45656 -3.097576,1.63575 -3.097576,1.63576 -0.910399,1.27308 -0.370081,4.55199 0.370081,2.18718 -4.370654,0.72166 -0.9141,1.27307 -0.0074,6.73918 0.18504,7.8309 -0.729059,2.36482 -2.005838,1.45442 2.527652,15.29914 3.441751,14.02976 4.522387,20.58389 5.969403,29.3252 5.429085,26.04999 1.817097,4.18931 1.273078,0.9141 3.460255,0.55142 2.176075,6.3765 2.357415,7.46823 1.450716,2.00583 3.278916,-0.54401 0.370081,2.18717 1.635753,3.09758 1.8134,4.19301 1.99843,5.28106 1.8134,4.19301 1.8171,4.18932 1.45441,2.00583 1.27308,0.9104 2.36482,0.73276 1.63576,3.09758 1.63575,3.09758 1.45442,2.00583 1.45072,2.00584 1.27678,0.9141 1.27307,0.9104 1.45442,2.00584 1.27308,0.9104 1.27308,0.9141 1.27307,0.91039 1.27308,0.9141 1.27308,0.9104 1.27308,0.9141 1.27308,0.9104 2.36851,0.73276 1.27308,0.9141 1.27308,0.9104 1.27308,0.9141 2.36851,0.72906 1.27308,0.9141 2.36482,0.73276 1.27308,0.9104 2.36851,0.73276 2.36482,0.73276 3.46025,0.54772 4.552,0.37008 2.36481,0.73276 1.8171,4.19301 5.46239,-0.903 3.10128,-1.63575 3.09758,-1.63576 4.18931,-1.8171 4.19302,-1.81339 4.18931,-1.8171 3.09758,-1.63206 3.09757,-1.63575 3.09758,-1.63576 3.09757,-1.63206 2.00584,-1.45441 0.73276,-2.36852 -0.37008,-2.18348 2.18718,-0.36268 3.09758,-1.63575 2.00583,-1.45442 0.9104,-1.27308 0.9141,-1.27308 0.9104,-1.27307 0.9141,-1.27308 0.9104,-1.27308 0.9141,-1.27308 0.73276,-2.36851 0.72906,-2.36482 0.73276,-2.36852 0.73276,-2.36481 0.72906,-2.36482 0.37008,-4.55199 0.55142,-3.46026 0.37008,-4.55199 0.73276,-2.36852 0.73276,-2.36482 0.9104,-1.27307 0.73276,-2.36852 -0.37008,-8.92265 -1.61726,-16.57222 -9.75163,-59.01678 -2.90143,-10.74714 -1.99473,-5.28476 -1.63576,-3.09757 -1.45442,-2.00584 -1.63206,-3.09758 -1.45441,-2.00583 -1.45442,-2.00584 -1.27308,-0.9104 -1.45442,-2.00584 -1.45441,-2.00584 -1.27308,-0.9104 -1.45442,-2.00583 -1.27308,-0.9141 -1.27678,-0.9104 -1.45071,-2.00584 -1.63576,-3.09758 -1.8171,-4.19301 -1.81339,-4.18932 -1.8171,-4.19301 -1.81339,-4.18932 -1.45442,-2.00583 -1.27308,-0.9104 -1.27308,-0.9141 -2.36851,-0.72906 -1.27308,-0.9141 -2.36482,-0.73276 -1.27308,-0.9104 -1.27677,-0.9141 -1.27308,-0.9104 -1.27308,-0.9141 -1.27308,-0.9104 -1.27308,-0.91409 -1.27307,-0.9104 -1.27308,-0.9141 -1.27308,-0.9104 -1.27308,-0.9141 -1.27678,-0.9104 -1.45441,-2.00584 -1.27308,-0.9104 -1.27308,-0.9141 -1.45442,-2.00583 -1.45441,-2.00584 -2.36482,-0.72906 -3.46026,-0.55142 -3.46025,-0.55142 -5.64373,-0.18874 -4.552,-0.37378 -4.55199,-0.37008 -3.46026,-0.54772 -3.45655,-0.55142 -2.36852,-0.73276 -3.46025,-0.55143 -6.73547,-0.007 -5.466095,0.903 z"
         style="fill:#565757;fill-rule:evenodd;stroke-width:1.33333"
         id="path3" />
      <path
         d="m -45.140183,500.00038 2.183477,-0.36268 0.373782,-4.55199 -0.370081,-2.18348 -1.817097,-4.19301 -2.183476,0.36268 z"
         style="fill:#565757;fill-rule:evenodd;stroke-width:1.33333"
         id="path4" />
      <path
         d="m 524.50666,353.08572 -5.28476,1.99843 -4.19301,1.8134 -2.00214,1.45442 -2.00584,1.45441 -2.00583,1.45442 -0.9104,1.27308 -2.00584,1.45442 -2.00584,1.45441 -2.00584,1.45442 -2.00583,1.45442 -4.18932,1.81339 -2.00584,1.45442 -0.9141,1.27308 -0.91039,1.27308 -0.37008,4.55199 -0.37009,4.55199 -0.73276,2.36852 -0.73276,2.36482 -0.72905,2.36851 -0.73276,2.36482 -0.9104,1.27308 -0.73276,2.36852 -0.9141,1.27307 -0.9104,1.27308 -0.73276,2.36482 -0.9104,1.27308 -0.9141,1.27307 -2.00584,1.45442 -0.37008,-2.18348 -2.18718,0.35898 -0.73276,2.36852 -0.91039,1.27308 -0.55142,3.46025 -0.55143,3.45656 -0.18504,5.64743 -0.0111,6.73547 -0.55142,3.46026 -0.9104,1.27307 -0.73276,2.36852 -0.9104,1.27308 -0.9141,1.27308 -0.73276,2.36481 -0.91039,1.27308 -0.9104,1.27678 -0.73276,2.36481 -0.73276,2.36852 -0.37008,4.54829 0.71425,11.10983 0.18504,7.83091 -0.55142,3.46025 -0.55142,3.46026 -0.72906,2.36482 0.54032,3.27891 2.18718,-0.35898 1.09174,-0.18134 1.99473,5.28476 4.88507,22.76737 2.53875,8.56367 1.99844,5.28475 1.63206,3.09758 1.45441,2.00583 1.63576,3.09758 1.27308,0.9104 1.45442,2.00584 1.27307,0.9141 1.27308,0.91039 1.45442,2.00584 1.27308,0.9104 1.63575,3.09758 1.45442,2.00583 1.45442,2.00584 1.45442,2.00584 1.27307,0.9104 1.27308,0.9141 1.27308,0.9104 2.36852,0.73276 2.36481,0.73276 2.36482,0.72906 3.46025,0.55142 1.27308,0.9141 2.36852,0.73276 1.45442,2.00213 1.27307,0.9141 1.27308,0.9104 2.36482,0.73276 5.64743,0.18874 29.50654,-4.87396 9.65541,-2.72009 7.46823,-2.35742 4.19301,-1.8134 2.00584,-1.45441 0.9104,-1.27308 -0.18504,-1.09544 -3.46025,-0.55142 0.91409,-1.27308 0.9141,-1.27308 2.00214,-1.45441 0.9141,-1.27308 2.00584,-1.45442 0.9104,-1.27308 0.73276,-2.36481 0.9104,-1.27678 0.55142,-3.45656 0.73276,-2.36851 0.9104,-1.27308 0.91409,-1.27308 0.9104,-1.27308 0.9141,-1.27307 2.00584,-1.45442 0.9104,-1.27308 0.73276,-2.36852 0.18504,-5.64373 0.9141,-1.27308 2.00584,-1.45441 0.9104,-1.27308 0.9141,-1.27308 0.37008,-4.55199 0.72906,-2.36852 0.73276,-2.36482 0.91409,-1.27307 0.9104,-1.27308 0.73276,-2.36852 0.9104,-1.27308 0.9141,-1.27308 0.9104,-1.27307 0.73276,-2.36852 0.9104,-1.27308 0.73276,-2.36481 0.9141,-1.27308 0.72906,-2.36852 0.73276,-2.36482 0.55142,-3.46025 0.55142,-3.46026 0.37008,-4.55199 0.18504,-5.64373 0.55142,-3.46026 0.73276,-2.36481 0.9104,-1.27308 0.73276,-2.36852 0.007,-6.73547 -8.84863,-53.55069 -2.35742,-7.47193 -1.27307,-0.9104 -1.27308,-0.9141 -2.18718,0.36268 -0.54032,-3.27891 -2.17607,-6.37649 -1.63576,-3.09758 -1.45442,-2.00584 -1.45441,-2.00584 -1.45442,-2.00583 -1.27308,-0.9104 -1.45442,-2.00584 -1.27307,-0.9141 -1.27308,-0.9104 -2.36852,-0.73276 -4.37065,0.72536 -0.37008,-2.18718 -1.63576,-3.09757 -1.27308,-0.9141 -1.27308,-0.9104 -2.36851,-0.73276 -2.36482,-0.73276 -4.55199,-0.37008 -4.552,-0.37008 -8.92635,0.35157 -22.94871,3.79333 z"
         style="fill:#565757;fill-rule:evenodd;stroke-width:1.33333"
         id="path5" />
      <path
         d="m -14.837968,445.59111 -3.097576,1.63575 -3.097577,1.63576 -2.005837,1.45442 -2.005838,1.45072 -0.729059,2.36851 -2.005838,1.45442 -3.097576,1.63576 -2.005838,1.45071 -3.097576,1.63576 -3.097576,1.63576 -3.097577,1.63576 -0.914099,1.27307 11.561323,69.94527 2.357415,7.46823 1.632056,3.09758 1.273078,0.9104 1.454418,2.00583 1.454417,2.00584 1.817097,4.19302 1.813396,4.18931 1.998436,5.28475 1.994735,5.28476 1.994736,5.28105 1.817096,4.19302 1.632056,3.09757 1.2767791,0.9104 1.2730779,0.9141 1.4544175,2.00584 2.176075,6.37649 1.635757,3.09758 1.2730779,0.91039 1.27307789,0.9141 1.27307791,0.9104 2.3648162,0.73276 1.2730778,0.9104 1.6357571,3.10128 2.176075,6.37649 1.8170967,4.18931 1.454417,2.00584 3.278916,-0.54032 0.370081,2.18348 1.273078,0.9141 1.635757,3.09758 1.454417,2.00583 1.635757,3.09758 1.454418,2.00584 1.273078,0.9104 1.273078,0.9104 1.273077,0.9141 2.364817,0.73276 2.368517,0.72905 1.273077,0.9141 1.273078,0.9104 1.273078,0.9141 1.273078,0.9104 2.368517,0.73276 1.273078,0.9141 1.273078,0.9104 1.273078,0.9141 1.273078,0.9104 2.368517,0.73276 1.273078,0.9104 2.364816,0.73276 1.273078,0.9141 2.368517,0.72906 2.364816,0.73275 2.368517,0.73276 4.551993,0.37009 6.735471,0.007 17.486316,-2.89033 9.655408,-2.7164 8.563668,-2.53875 4.18932,-1.8134 2.00583,-1.45811 2.00584,-1.45072 0.9104,-1.27308 0.9141,-1.27678 2.00584,-1.45442 2.00584,-1.45071 2.00213,-1.45442 0.9141,-1.27308 0.9104,-1.27678 0.73276,-2.36481 0.55142,-3.46026 -0.37008,-2.18347 4.37435,-0.72536 0.9104,-1.27308 0.55142,-3.45655 0.0111,-6.73918 0.9104,-1.27307 0.91039,-1.27308 0.55142,-3.46026 0.18504,-5.64373 -1.61725,-16.57592 -1.44701,-8.74131 -3.80073,-16.21323 -1.8171,-4.19302 -1.27308,-0.9104 -1.27308,-0.9141 -1.27307,-0.9104 -1.99474,-5.28475 -1.8171,-4.18931 -1.27307,-0.9141 -1.27308,-0.9104 -2.18718,0.35898 -0.37008,-2.18348 -1.45442,-2.00584 -1.45442,-2.00584 -1.63575,-3.09757 -1.45442,-2.00584 -1.45442,-2.00584 -1.27308,-0.9104 -1.27307,-0.9141 -2.18348,0.36268 -0.37008,-2.18717 -1.454418,-2.00584 -1.813396,-4.18932 -1.817096,-4.18931 -1.817097,-4.19302 -1.813396,-4.18931 -1.454417,-2.00584 -1.454418,-2.00584 -2.187177,0.36268 -0.370081,-2.18717 -1.454417,-2.00584 -1.454418,-2.00584 -1.635757,-3.09758 -1.454417,-2.00213 -1.454418,-2.00584 -1.450716,-2.00584 -2.368517,-0.73276 -2.364817,-0.73276 -1.273077,-0.9104 -2.368517,-0.73276 -1.273078,-0.9104 -1.273078,-0.9141 -1.273078,-0.91039 -1.273078,-0.9141 -1.273078,-0.9104 -1.273078,-0.9141 -1.276778,-0.9104 -1.273078,-0.9141 -2.364816,-0.72906 -1.273078,-0.9141 -1.273078,-0.9104 -1.276779,-0.9141 -1.273078,-0.9104 -1.273078,-0.9141 -1.273078,-0.91039 -1.273077,-0.9141 -1.273078,-0.9104 -1.273078,-0.9141 -2.368517,-0.73276 -1.273078,-0.9104 -1.273078,-0.9141 -1.273078,-0.9104 -2.364816,-0.73276 -2.368517,-0.73276 -2.364816,-0.72906 -1.454418,-2.00584 -1.273078,-0.9141 -1.276778,-0.91039 -3.456555,-0.55142 -6.739171,-0.007 -1.454417,-2.00583 -1.454418,-2.00584 -2.364816,-0.73276 -1.2730777,-0.9104 -3.4602553,-0.55142 -7.8309093,0.17024 -5.4623924,0.90299 z"
         style="fill:#565757;fill-rule:evenodd;stroke-width:1.33333"
         id="path6" />
      <path
         d="m 272.30031,477.85105 5.46609,-0.903 0.18504,1.09174 -5.46239,0.903 z m -4.00058,-3.83034 -0.9141,1.27308 -0.91039,1.27308 -0.9141,1.27308 -3.09758,1.63575 -7.46823,2.35742 -4.18931,1.8171 -2.00584,1.45441 -2.00584,1.45072 -2.00584,1.45442 -0.9104,1.27678 -0.9141,1.27307 -2.00583,1.45072 -0.9104,1.27678 -0.9141,1.27308 -0.9104,1.27307 -0.9141,1.27308 -2.00584,1.45442 -0.9104,1.27308 -2.00583,1.45442 -3.09758,1.63575 -4.18932,1.8134 -2.00583,1.45442 -0.9141,1.27307 -0.9104,1.27308 -0.73276,2.36852 -0.73276,2.36481 -4.18932,1.8171 -5.28475,1.99474 -0.9104,1.27307 -2.00584,1.45442 -2.00583,1.45442 -2.18718,0.36268 -1.09174,0.17764 -0.9104,1.27678 -0.9141,1.27307 -0.73276,2.36482 -0.72906,2.36852 -0.9141,1.27307 -0.73276,2.36482 -0.91039,1.27308 -2.00584,1.45442 -0.9104,1.27307 -2.00584,1.45442 -4.19301,1.8171 -2.00214,1.45442 -0.9141,1.27307 -0.9104,1.27308 -0.9141,1.27308 -0.37008,4.55199 -0.9141,1.27308 -0.9104,1.27308 -0.9141,1.27308 -0.72906,2.36851 -0.37008,4.552 -0.0111,6.73547 -0.18504,5.64743 -0.0111,6.73547 -0.007,6.73917 -0.55143,3.46026 -0.73275,2.36481 -0.9104,1.27308 -0.9141,1.27308 -0.55142,3.46025 -0.18504,5.64744 -0.55142,3.45655 -0.72906,2.36852 -0.9141,1.27308 -0.9104,1.27307 -0.9141,1.27308 -0.9104,1.27308 -2.00584,1.45442 -0.9141,1.27307 -0.9104,1.27308 -0.9141,1.27308 -0.91039,1.27678 -0.9141,1.27308 -0.9104,1.27308 -0.9141,1.27307 -0.9104,1.27308 -0.9141,1.27308 -0.9104,1.27308 -0.9141,1.27307 -0.9104,1.27678 -0.9141,1.27308 -0.72906,2.36482 -0.9141,1.27308 -0.73276,2.36851 -0.55142,3.45656 -0.72905,2.36851 -0.73276,2.36482 -0.73276,2.36852 -3.09758,1.63205 -0.9104,1.27308 -0.9141,1.27678 -0.72906,2.36482 -0.73276,2.36481 -0.73276,2.36852 -0.73276,2.36482 -0.72906,2.36851 -0.9141,1.27308 -0.9104,1.27308 -0.73276,2.36481 -0.91039,1.27308 -0.9141,1.27678 -0.9104,1.27308 -0.9141,1.27308 -0.73276,2.36481 -0.72906,2.36852 -0.73276,2.36482 -0.55142,3.46025 -0.55142,3.46026 -0.55142,3.45655 -0.37008,4.55199 -0.73276,2.36852 -0.9104,1.27308 -0.73276,2.36482 -0.37008,4.55199 1.97623,18.75939 0.72536,4.37436 3.98207,17.30498 1.81709,4.18931 1.45072,2.00584 2.18718,-0.36268 0.37008,2.18718 1.63205,3.09757 1.8171,4.19302 1.8134,4.18931 1.81709,4.18932 1.63576,3.10127 1.27308,0.9104 1.27308,0.9141 3.27891,-0.54402 0.37008,2.18718 1.63206,3.09758 1.45442,2.00583 1.27307,0.9104 1.27308,0.9141 1.45442,2.00584 1.27308,0.9104 1.27678,0.9141 1.27307,0.9104 1.45442,2.00584 1.27308,0.91039 1.27308,0.9141 1.45441,2.00584 1.27308,0.9104 1.27308,0.9141 1.27308,0.9104 1.27308,0.9141 1.27307,0.9104 2.36852,0.73276 3.45656,0.55142 2.18717,-0.36268 0.37008,2.18718 1.27308,0.91039 1.45442,2.00584 1.27308,0.9141 1.27308,0.9104 2.36481,0.73276 6.73917,0.007 3.46026,0.55142 1.45441,2.00584 1.27308,0.9104 1.27308,0.9141 4.55199,0.37008 5.64374,0.18874 3.46025,0.55142 2.36482,0.73276 2.36851,0.73276 3.46026,0.55142 3.45655,0.54772 4.552,0.37008 7.83091,-0.17024 23.13375,-2.69789 16.57221,-1.61725 3.27892,-0.54402 0.37008,2.18718 1.27308,0.9141 3.45655,0.54772 34.97264,-5.77696 5.28475,-1.99844 0.9141,-1.27308 0.9104,-1.27307 3.09757,-1.63576 11.84259,-3.07907 15.1178,-3.61939 4.19301,-1.8171 0.9104,-1.27308 3.10128,-1.63575 6.37649,-2.17608 11.83889,-3.07907 12.93432,-3.26041 14.02606,-3.44175 12.93432,-3.26042 11.84259,-3.07907 7.46823,-2.35741 3.09758,-1.63576 2.00583,-1.45442 3.09758,-1.63205 5.28475,-1.99844 6.3765,-2.17607 7.46823,-2.35742 5.28475,-1.99473 4.18931,-1.8171 3.10128,-1.63206 0.9104,-1.27678 0.9141,-1.27307 0.9104,-1.27308 2.00583,-1.45442 3.09758,-1.63206 2.00584,-1.45441 0.9104,-1.27308 0.73276,-2.36852 0.9141,-1.27308 0.72906,-2.36481 2.00583,-1.45442 4.19302,-1.8171 2.00214,-1.45441 0.9141,-1.27308 0.91039,-1.27308 0.9141,-1.27308 2.00584,-1.45441 4.18932,-1.8134 3.09757,-1.63576 5.28476,-1.99843 2.00583,-1.45442 0.9104,-1.27308 -0.54032,-3.27891 -1.27307,-0.9104 -0.18504,-1.09174 2.00583,-1.45442 0.9104,-1.27308 0.9141,-1.27678 0.9104,-1.27307 0.73276,-2.36482 0.18504,-5.64373 0.55142,-3.46026 0.9141,-1.27307 0.9104,-1.27308 0.9141,-1.27308 0.37008,-4.55569 -4.69632,-28.41481 -1.8171,-4.18931 -1.45442,-2.00584 -2.18348,0.36268 -0.37008,-2.18718 -1.45441,-2.00584 -1.63576,-3.09757 -1.63206,-3.09758 -1.81709,-4.18931 -1.8134,-4.19302 -1.45442,-2.00584 -1.27307,-0.91039 -2.18718,0.35897 -0.37008,-2.18347 -1.63206,-3.09758 -1.63576,-3.09757 -1.81709,-4.19302 -1.63206,-3.09758 -1.63576,-3.09757 -1.45441,-2.00584 -1.27308,-0.9104 -2.36852,-0.73276 -1.81339,-4.19301 -2.35742,-7.46823 -1.45442,-2.00584 -1.27307,-0.9104 -2.36482,-0.73276 -1.45442,-2.00584 -1.63575,-3.09757 -1.63576,-3.09758 -1.45442,-2.00584 -1.27308,-0.9104 -1.45441,-2.00583 -1.27308,-0.9104 -1.27308,-0.9141 -1.45442,-2.00584 -1.45442,-2.00584 -1.45441,-2.00214 -1.45442,-2.00583 -1.45442,-2.00584 -1.45442,-2.00584 -1.45441,-2.00584 -2.36482,-0.72906 -1.27308,-0.9141 -1.27307,-0.9141 -1.63576,-3.09757 -1.45442,-2.00214 -1.63206,-3.09757 -1.45441,-2.00584 -1.45442,-2.00584 -2.36852,-0.73276 -2.18347,0.36268 -0.37008,-2.18718 -2.17608,-6.37649 -1.45442,-2.00584 -1.45441,-2.00214 -4.552,-0.37378 -2.36852,-0.72906 -1.27307,-0.9141 -1.27308,-0.91039 -1.27308,-0.9141 -1.27308,-0.9104 -1.27307,-0.9141 -1.45442,-2.00584 -1.63576,-3.09758 -1.45442,-2.00583 -1.27307,-0.9104 -1.27308,-0.9141 -2.36482,-0.72906 -1.27308,-0.9141 -1.27678,-0.9104 -1.27307,-0.9141 -2.36482,-0.72906 -1.27308,-0.9141 -2.36851,-0.73276 -1.27308,-0.9104 -1.27308,-0.9141 -2.36482,-0.72905 -1.27307,-0.9141 -1.27678,-0.9104 -1.27308,-0.9141 -1.27308,-0.9104 -1.27308,-0.9141 -1.27307,-0.9104 -1.63576,-3.09758 -1.45442,-2.00583 -1.27308,-0.9141 -1.27307,-0.9104 -3.46026,-0.55142 -3.45655,-0.55142 -3.46026,-0.55142 -2.36482,-0.73276 -2.36851,-0.72906 -1.8134,-4.19302 -2.36852,-0.73276 -2.36481,-0.72906 -2.36852,-0.73276 -1.27308,-0.91039 -1.27307,-0.9141 -1.27308,-0.9104 -1.27308,-0.9141 -2.36852,-0.73276 -1.27308,-0.9104 -1.27307,-0.9141 -1.27308,-0.9104 -1.27308,-0.9141 -1.27308,-0.9104 -1.27307,-0.9141 -2.36852,-0.72906 -1.27308,-0.9141 -1.27308,-0.91039 -2.36481,-0.73276 -2.36852,-0.73276 -1.27308,-0.9104 -2.36481,-0.73276 -1.27308,-0.9104 -2.36852,-0.73276 -2.36482,-0.73276 -2.36851,-0.73276 -2.36482,-0.72906 -2.36852,-0.73276 -2.36481,-0.73276 -3.46026,-0.55142 -5.64373,-0.18874 -1.45442,-2.00584 -2.36481,-0.72906 -5.64744,-0.19244 -15.48047,1.43591 -4.552,-0.37008 -1.27308,-0.9104 -1.27307,-0.9141 -2.36482,-0.72906 -3.46026,-0.55142 -12.02392,1.98364 z"
         style="fill:#565757;fill-rule:evenodd;stroke-width:1.33333"
         id="path7" />
      <path
         d="m 320.94743,159.54457 7.64957,-1.26568 0.9141,-1.27307 -0.18505,-1.09174 -1.27307,-0.9141 -7.64957,1.26567 z"
         style="fill:#3b3b3b;fill-rule:evenodd;stroke-width:1.33333"
         id="path8" />
      <path
         d="m 309.8302,166.9943 -4.19302,1.81709 -3.09757,1.63576 -2.00584,1.45442 -2.00214,1.45071 -3.09757,1.63576 -2.00584,1.45442 -6.37649,2.17607 -0.9141,1.27308 -0.9104,1.27308 -0.9141,1.27678 -0.73276,2.36481 -0.72906,2.36482 -0.9141,1.27678 -0.72906,2.36482 -0.9141,1.27307 -0.9104,1.27308 -0.9141,1.27308 -2.00583,1.45442 -3.09758,1.63575 -0.9104,1.27308 -0.9141,1.27308 -0.9104,1.27308 -0.9141,1.27308 -0.73276,2.36851 -0.9104,1.27308 -0.73276,2.36482 -0.72905,2.36851 -0.73276,2.36482 -0.55142,3.46025 -0.55143,3.46026 -0.55142,3.45655 -0.37008,4.5557 0.18504,7.83091 3.07167,18.57805 1.8171,4.18932 2.35742,7.47193 7.41271,38.07021 8.13808,42.44086 2.53875,8.55997 1.27308,0.9141 1.27308,0.9104 2.18348,-0.35898 0.54402,3.27892 1.99473,5.28105 1.63576,3.10128 1.27308,0.91039 1.45441,2.00584 1.27308,0.9104 1.45442,2.00584 1.27308,0.9141 1.27307,0.9104 1.27308,0.9141 1.27308,0.9104 2.36852,0.73276 1.27308,0.9141 1.27307,0.91039 2.36482,0.73276 5.64743,0.18875 3.46026,0.55142 1.45071,2.00583 1.27678,0.9104 4.552,0.37008 27.31936,-4.51498 3.10128,-1.63576 0.91039,-1.27308 0.9141,-1.27308 0.9104,-1.27307 3.09758,-1.63576 3.09758,-1.63206 3.09757,-1.63575 4.19302,-1.8171 3.09757,-1.63206 0.9141,-1.27678 0.9104,-1.27307 0.55142,-3.45656 4.18932,-1.81709 2.00583,-1.45442 2.00584,-1.45442 0.9104,-1.27308 0.9141,-1.27308 0.9104,-1.27307 2.00584,-1.45442 0.9141,-1.27308 0.91039,-1.27308 0.9141,-1.27307 0.72906,-2.36852 0.9141,-1.27308 0.9141,-1.27308 0.9104,-1.27307 0.73276,-2.36852 0.55142,-3.45656 0.37008,-4.55199 2.00214,-1.45442 0.9141,-1.27308 0.9104,-1.27307 0.73276,-2.36852 0.55142,-3.46026 0.55142,-3.45655 0.55142,-3.46026 0.55142,-3.46025 0.9104,-1.27308 0.9141,-1.27308 0.9104,-1.27307 0.9141,-1.27308 0.73276,-2.36852 0.72905,-2.36482 0.55142,-3.46025 0.55143,-3.46026 0.73276,-2.36481 0.72905,-2.36482 0.73276,-2.36852 0.9104,-1.27307 0.9141,-1.27308 0.55142,-3.46026 -0.37008,-8.92264 -2.52025,-22.03831 -3.61199,-21.85698 -5.0664,-23.8628 -2.53876,-8.56367 -1.81339,-4.18932 -1.45442,-2.00584 -2.36852,-0.73276 -1.27307,-0.91039 -1.8171,-4.19302 -1.45072,-2.00584 -1.27308,-0.9104 -1.27677,-0.9141 -1.27308,-0.91039 -1.45442,-2.00584 -1.27308,-0.9141 -1.27308,-0.9104 -1.27307,-0.9104 -1.27308,-0.9141 -1.27308,-0.9104 -1.45442,-2.00583 -1.27307,-0.9141 -1.27308,-0.9104 -1.27678,-0.9141 -1.27308,-0.9104 -3.45655,-0.55142 -3.46026,-0.55142 -5.64373,-0.18874 -6.73917,-0.0111 -6.73917,-0.007 -4.552,-0.37008 -3.46025,-0.55142 -1.27308,-0.9141 -1.27308,-0.9104 -2.36481,-0.73276 -3.46026,-0.55142 -22.94871,3.79333 z"
         style="fill:#f07c00;fill-opacity:1;fill-rule:evenodd;stroke-width:1.33333"
         id="path9" />
      <path
         d="m 78.318766,206.37829 -0.910399,1.27678 -0.9141,1.27308 -0.55142,3.45655 0.373782,2.32781 -6.750274,-0.14803 -7.64957,1.26198 -0.914099,1.27307 -0.54772,3.46026 -0.55142,3.46025 -3.097576,1.63576 -3.101277,1.63206 -0.910399,1.27308 -0.370081,4.55199 0.370081,2.18718 -4.370654,0.72165 -0.910399,1.27308 -0.0111,6.73917 0.18504,7.83091 -0.73276,2.36482 -2.005837,1.45442 2.527651,15.30284 3.441752,14.02606 4.526088,20.58389 5.969403,29.3289 5.429085,26.04629 1.813395,4.19301 1.273078,0.9104 3.460256,0.55142 2.176075,6.37649 2.357414,7.46823 1.454418,2.00584 3.278915,-0.54032 0.370081,2.18348 1.635757,3.10128 1.817097,4.18931 1.994735,5.28476 1.817097,4.18931 1.813396,4.19301 1.454417,2.00214 1.273078,0.9141 2.364816,0.73276 1.635757,3.09758 1.635755,3.09757 1.45442,2.00584 1.45442,2.00214 1.27307,0.9141 1.27308,0.9104 1.45442,2.00583 1.27308,0.9141 1.27307,0.9104 1.27308,0.9141 1.27308,0.9104 1.27678,0.9141 1.27308,0.9104 1.27307,0.9141 2.36482,0.72906 1.27308,0.9141 1.27308,0.9141 1.27678,0.9104 2.36481,0.73276 1.27308,0.91039 2.36852,0.73276 1.27307,0.9104 2.36482,0.73276 2.36482,0.73276 3.46025,0.55142 4.552,0.37008 2.36851,0.72906 1.8134,4.19302 5.46609,-0.903 3.09758,-1.63576 3.09757,-1.63575 4.18932,-1.8134 4.19301,-1.8171 4.18932,-1.81339 3.09757,-1.63576 3.10128,-1.63576 3.09758,-1.63205 3.09757,-1.63576 2.00584,-1.45442 0.72906,-2.36481 -0.37008,-2.18718 2.18348,-0.36268 3.09757,-1.63206 2.00584,-1.45441 0.9141,-1.27308 0.9104,-1.27678 0.9141,-1.27308 0.9104,-1.27307 0.9141,-1.27308 0.91039,-1.27308 0.73276,-2.36482 0.73276,-2.36851 0.72906,-2.36482 0.73276,-2.36852 0.73276,-2.36481 0.37008,-4.552 0.55142,-3.46025 0.37009,-4.552 0.72905,-2.36481 0.73276,-2.36852 0.9141,-1.27308 0.72906,-2.36481 -0.37008,-8.92635 -1.61725,-16.57222 -9.75163,-59.01678 -2.89773,-10.74715 -1.99844,-5.28475 -1.63205,-3.09758 -1.45442,-2.00583 -1.63576,-3.09758 -1.45442,-2.00584 -1.45441,-2.00213 -1.27308,-0.9141 -1.45442,-2.00584 -1.45442,-2.00584 -1.27307,-0.9104 -1.45442,-2.00584 -1.27308,-0.9104 -1.27308,-0.91409 -1.45442,-2.00584 -1.63575,-3.09758 -1.8134,-4.18931 -1.81709,-4.19302 -1.8134,-4.18931 -1.8171,-4.19302 -1.45441,-2.00214 -1.27308,-0.91409 -1.27308,-0.9104 -2.36482,-0.73276 -1.27678,-0.9141 -2.36481,-0.72906 -1.27308,-0.9141 -1.27308,-0.9104 -1.27308,-0.9141 -1.27677,-0.9104 -1.27308,-0.9141 -1.27308,-0.9104 -1.27308,-0.9141 -1.27308,-0.9104 -1.27307,-0.91409 -1.27308,-0.9104 -1.27308,-0.9141 -1.45442,-2.00584 -1.27307,-0.9104 -1.27308,-0.9141 -1.45442,-2.00214 -1.45442,-2.00583 -2.36851,-0.73276 -3.45656,-0.55142 -3.46025,-0.55142 -5.64744,-0.18875 -4.55199,-0.37008 -4.55199,-0.37008 -3.45656,-0.55142 -3.46025,-0.55142 -2.368519,-0.73276 -3.456554,-0.55142 -6.739171,-0.007 -5.466093,0.903 z"
         style="fill:#f07c00;fill-opacity:1;fill-rule:evenodd;stroke-width:1.33333"
         id="path10" />
      <path
         d="m -61.186885,483.17281 2.187177,-0.35898 0.370081,-4.55199 -0.370081,-2.18718 -1.813396,-4.18931 -2.187177,0.35898 z"
         style="fill:#3b3b3b;fill-rule:evenodd;stroke-width:1.33333"
         id="path11" />
      <path
         d="m 508.45996,336.25814 -5.28476,1.99844 -4.18931,1.81339 -2.00584,1.45442 -2.00584,1.45442 -2.00584,1.45442 -0.91039,1.27308 -2.00584,1.45441 -2.00584,1.45442 -2.00584,1.45442 -2.00214,1.45442 -4.19301,1.81709 -2.00584,1.45072 -0.9104,1.27678 -0.9141,1.27307 -0.37008,4.552 -0.37008,4.55199 -0.73276,2.36482 -0.72906,2.36852 -0.73276,2.36481 -0.73276,2.36482 -0.9104,1.27678 -0.73276,2.36481 -0.91039,1.27308 -0.9141,1.27308 -0.73276,2.36852 -0.9104,1.27307 -0.9141,1.27308 -2.00214,1.45442 -0.37008,-2.18718 -2.18718,0.36268 -0.72906,2.36482 -0.9141,1.27307 -0.55142,3.46026 -0.55142,3.46025 -0.18504,5.64374 -0.007,6.73917 -0.55142,3.46025 -0.9141,1.27308 -0.72906,2.36482 -0.9141,1.27308 -0.9104,1.27307 -0.73276,2.36852 -0.9141,1.27308 -0.91039,1.27308 -0.73276,2.36481 -0.73276,2.36852 -0.37008,4.55199 0.71425,11.10983 0.18504,7.83091 -0.54772,3.45655 -0.55142,3.46026 -0.73276,2.36851 0.54032,3.27892 2.18718,-0.36268 1.09174,-0.18134 1.99843,5.28475 4.88507,22.77107 2.53875,8.55997 1.99474,5.28476 1.63575,3.09757 1.45442,2.00584 1.63206,3.09758 1.27308,0.9141 1.45441,2.00213 1.27308,0.9141 1.27678,0.9104 1.45442,2.00584 1.27308,0.9141 1.63205,3.09757 1.45442,2.00584 1.45442,2.00214 1.45441,2.00584 1.27308,0.9141 1.27308,0.9104 1.27308,0.9141 2.36851,0.72905 2.36482,0.73276 2.36852,0.73276 3.46025,0.55142 1.27308,0.9104 2.36482,0.73276 1.45441,2.00584 1.27308,0.9104 1.27308,0.9141 2.36852,0.72906 5.64373,0.19244 29.50654,-4.87766 9.65541,-2.7201 7.47193,-2.35371 4.18931,-1.8171 2.00584,-1.45442 0.9104,-1.27307 -0.18504,-1.09174 -3.46026,-0.55142 0.9104,-1.27308 0.9141,-1.27678 2.00584,-1.45072 0.9104,-1.27677 2.00584,-1.45442 0.91039,-1.27308 0.73276,-2.36482 0.9141,-1.27307 0.55142,-3.46026 0.72906,-2.36482 0.9141,-1.27307 0.9104,-1.27678 0.9141,-1.27308 0.9104,-1.27308 2.00584,-1.45441 0.9141,-1.27308 0.72906,-2.36482 0.18504,-5.64743 0.9104,-1.27308 2.00583,-1.45442 0.9104,-1.27307 0.9141,-1.27308 0.37008,-4.552 0.73276,-2.36481 0.72906,-2.36852 0.9141,-1.27308 0.9104,-1.27308 0.73276,-2.36481 0.9141,-1.27678 0.9104,-1.27308 0.9141,-1.27308 0.72906,-2.36481 0.9141,-1.27308 0.72906,-2.36852 0.9141,-1.27307 0.73276,-2.36482 0.72905,-2.36852 0.55142,-3.45655 0.55142,-3.46026 0.37009,-4.55199 0.18504,-5.64743 0.54772,-3.45656 0.73276,-2.36852 0.9141,-1.27307 0.72905,-2.36482 0.0111,-6.73917 -8.85234,-53.55069 -2.35741,-7.46823 -1.27308,-0.9141 -1.27308,-0.9104 -2.18347,0.35898 -0.54402,-3.27892 -2.17608,-6.37649 -1.63575,-3.09757 -1.45442,-2.00584 -1.45442,-2.00214 -1.45071,-2.00584 -1.27678,-0.9141 -1.45442,-2.00583 -1.27308,-0.9104 -1.27308,-0.9141 -2.36481,-0.72906 -4.37066,0.72166 -0.37008,-2.18718 -1.63575,-3.09758 -1.27308,-0.9104 -1.27308,-0.9141 -2.36482,-0.73275 -2.36851,-0.72906 -4.552,-0.37008 -4.55199,-0.37379 -8.92265,0.35528 -22.95241,3.79333 z"
         style="fill:#f07c00;fill-opacity:1;fill-rule:evenodd;stroke-width:1.33333"
         id="path12" />
      <path
         d="m -30.884671,428.76724 -3.097576,1.63205 -3.097576,1.63576 -2.005838,1.45442 -2.002137,1.45441 -0.73276,2.36482 -2.005838,1.45442 -3.097576,1.63575 -2.005838,1.45442 -3.097576,1.63206 -3.097576,1.63576 -3.097576,1.63575 -0.9141,1.27308 11.561324,69.94527 2.357414,7.46823 1.635757,3.09757 1.273078,0.9141 1.454418,2.00584 1.454417,2.00214 1.813396,4.19301 1.817097,4.18932 1.994735,5.28475 1.994736,5.28475 1.998436,5.28476 1.813396,4.18931 1.635757,3.09758 1.273078,0.9141 1.273077,0.9104 1.454418,2.00583 2.176075,6.3765 1.635757,3.09757 1.273078,0.9141 1.273078,0.9104 1.273078,0.9141 2.368517,0.72906 1.273077,0.9141 1.6320567,3.09758 2.1797758,6.37649 1.8133958,4.18931 1.4544174,2.00584 3.27891576,-0.54032 0.37008078,2.18348 1.27307788,0.9141 1.63205628,3.09757 1.4544174,2.00584 1.6357571,3.09758 1.4544174,2.00584 1.2730779,0.91039 1.2730779,0.9141 1.2730779,0.9104 2.368517,0.73276 2.364816,0.73276 1.273078,0.9104 1.273078,0.9141 1.276779,0.9104 1.273078,0.9141 2.364816,0.72906 1.273078,0.9141 1.273077,0.9141 1.273078,0.9104 1.276779,0.91039 2.364816,0.73276 1.273078,0.9141 2.368517,0.72906 1.273078,0.9141 2.364816,0.73276 2.368517,0.72906 2.364816,0.73276 4.551994,0.37008 6.739171,0.0111 17.486317,-2.89034 9.655407,-2.72009 8.559969,-2.53875 4.193015,-1.8134 2.002137,-1.45442 2.005838,-1.45441 0.914099,-1.27308 0.910399,-1.27308 2.005834,-1.45442 2.00584,-1.45442 2.00584,-1.45441 0.9104,-1.27308 0.9141,-1.27308 0.72906,-2.36852 0.55142,-3.45655 -0.37008,-2.18718 4.37065,-0.72165 0.9104,-1.27308 0.55142,-3.46026 0.0111,-6.73917 0.9104,-1.27308 0.9141,-1.27307 0.55142,-3.46026 0.18504,-5.64373 -1.61725,-16.57222 -1.44332,-8.74501 -3.80443,-16.21324 -1.81339,-4.18931 -1.27308,-0.9141 -1.27308,-0.9104 -1.27308,-0.9141 -1.99843,-5.28105 -1.8134,-4.19302 -1.273077,-0.9104 -1.276778,-0.9141 -2.183477,0.36268 -0.370081,-2.18717 -1.454417,-2.00584 -1.454418,-2.00584 -1.632056,-3.09758 -1.454417,-2.00213 -1.454418,-2.00584 -1.273078,-0.9141 -1.273078,-0.9104 -2.187177,0.35898 -0.370081,-2.18348 -1.454417,-2.00583 -1.813396,-4.19302 -1.817097,-4.18931 -1.813396,-4.18932 -1.817096,-4.19301 -1.454418,-2.00584 -1.454417,-2.00584 -2.183477,0.36268 -0.370081,-2.18348 -1.454417,-2.00583 -1.454418,-2.00584 -1.632056,-3.09758 -1.454417,-2.00584 -1.454418,-2.00583 -1.454417,-2.00584 -2.368517,-0.72906 -2.364816,-0.73276 -1.273078,-0.9141 -2.368517,-0.72906 -1.273078,-0.9141 -1.273078,-0.9104 -1.273078,-0.9141 -1.273078,-0.9104 -1.273078,-0.9141 -1.273078,-0.91039 -1.273077,-0.9141 -1.273078,-0.9104 -2.368517,-0.73276 -1.273078,-0.9104 -1.273078,-0.9141 -1.273078,-0.9141 -1.273078,-0.9104 -1.273078,-0.9141 -1.276778,-0.9104 -1.273078,-0.9141 -1.273078,-0.9104 -1.273078,-0.9141 -2.364816,-0.72905 -1.273078,-0.9141 -1.276779,-0.9104 -1.273078,-0.9141 -2.364816,-0.72906 -2.364816,-0.73276 -2.368517,-0.73276 -1.454418,-2.00584 -1.273077,-0.9104 -1.273078,-0.9141 -3.4602556,-0.55142 -6.73917096,-0.007 -1.45071664,-2.00584 -1.4544175,-2.00584 -2.368517,-0.72905 -1.2730779,-0.9141 -3.4602554,-0.55142 -7.830909,0.17393 -5.462392,0.903 z"
         style="fill:#f07c00;fill-opacity:1;fill-rule:evenodd;stroke-width:1.33333"
         id="path13" />
      <path
         d="m 256.2536,461.02348 5.4661,-0.903 0.18504,1.09544 -5.46609,0.903 z m -4.00057,-3.83034 -0.9104,1.27678 -0.9141,1.27308 -0.9104,1.27307 -3.09757,1.63576 -7.47193,2.35372 -4.18932,1.81709 -2.00583,1.45442 -2.00584,1.45442 -2.00584,1.45441 -0.9104,1.27308 -0.9141,1.27308 -2.00584,1.45442 -0.9104,1.27308 -0.91039,1.27307 -0.9141,1.27308 -0.9141,1.27308 -2.00214,1.45442 -0.9141,1.27307 -2.00584,1.45442 -3.09757,1.63576 -4.18932,1.8171 -2.00584,1.45441 -0.91039,1.27308 -0.9141,1.27308 -0.73276,2.36482 -0.72906,2.36851 -4.19302,1.8134 -5.28475,1.99843 -0.9104,1.27308 -2.00584,1.45072 -2.00584,1.45442 -2.18347,0.36268 -1.09544,0.18133 -0.9104,1.27308 -0.9141,1.27308 -0.72906,2.36482 -0.73276,2.36851 -0.9141,1.27308 -0.72906,2.36482 -0.9141,1.27678 -2.00584,1.45441 -0.91039,1.27308 -2.00584,1.45072 -4.18932,1.8171 -2.00583,1.45441 -0.9141,1.27308 -0.9104,1.27308 -0.9141,1.27308 -0.37008,4.55199 -0.9104,1.27678 -0.9141,1.27308 -0.9104,1.27307 -0.73276,2.36482 -0.37008,4.55199 -0.007,6.73918 -0.18504,5.64373 -0.007,6.73917 -0.0111,6.73917 -0.55142,3.45655 -0.72906,2.36852 -0.9141,1.27308 -0.91039,1.27308 -0.55142,3.46025 -0.18504,5.64373 -0.55143,3.46026 -0.73276,2.36481 -0.91409,1.27308 -0.9104,1.27308 -0.9141,1.27308 -0.9104,1.27678 -2.00584,1.45071 -0.9104,1.27678 -0.9141,1.27308 -0.9104,1.27308 -0.9141,1.27308 -0.91039,1.27307 -0.9141,1.27308 -0.9104,1.27308 -0.9141,1.27308 -0.9104,1.27678 -0.9141,1.27307 -0.9104,1.27308 -0.9141,1.27308 -0.9104,1.27308 -0.73276,2.36481 -0.9141,1.27678 -0.72906,2.36482 -0.55142,3.46025 -0.73276,2.36482 -0.73276,2.36852 -0.72906,2.36481 -3.09757,1.63576 -0.9141,1.27308 -0.9104,1.27308 -0.73276,2.36481 -0.73276,2.36852 -0.73276,2.36482 -0.72906,2.36851 -0.73276,2.36482 -0.9104,1.27308 -0.9141,1.27307 -0.73276,2.36852 -0.9104,1.27308 -0.9141,1.27308 -0.91039,1.27308 -0.9141,1.27307 -0.72906,2.36852 -0.73276,2.36482 -0.73276,2.36481 -0.55142,3.46026 -0.55142,3.46025 -0.54772,3.46026 -0.37008,4.55199 -0.73276,2.36482 -0.9141,1.27308 -0.72906,2.36851 -0.37008,4.552 1.97623,18.75939 0.72166,4.37066 3.98206,17.30497 1.8171,4.19302 1.45442,2.00214 2.18348,-0.35898 0.37008,2.18347 1.63575,3.09758 1.8134,4.19301 1.8171,4.18932 1.81339,4.19301 1.63576,3.09758 1.27308,0.9104 1.27307,0.9141 3.27892,-0.54032 0.37008,2.18348 1.63576,3.09757 1.45071,2.00584 1.27678,0.9141 1.27308,0.9104 1.45442,2.00584 1.27308,0.9104 1.27307,0.9141 1.27308,0.91039 1.45442,2.00584 1.27308,0.9141 1.27308,0.9104 1.45441,2.00584 1.27308,0.9141 1.27308,0.9104 1.27308,0.9141 1.27678,0.91039 1.27307,0.9141 2.36482,0.72906 3.46025,0.55142 2.18348,-0.36268 0.37008,2.18718 1.27308,0.9141 1.45442,2.00214 1.27308,0.9141 1.27307,0.9141 2.36852,0.72906 6.73547,0.0111 3.46026,0.55142 1.45441,2.00214 1.27308,0.9141 1.27308,0.91039 4.55199,0.37009 5.64744,0.19244 3.45655,0.55142 2.36852,0.72906 2.36481,0.73276 3.46026,0.55142 3.46025,0.55142 4.552,0.37008 7.83091,-0.17024 23.13005,-2.70159 16.57221,-1.61725 3.27892,-0.54032 0.37008,2.18348 1.27308,0.9141 3.46025,0.55142 34.97264,-5.78066 5.28475,-1.99474 0.9104,-1.27308 0.9104,-1.27678 3.10127,-1.63205 11.83889,-3.07907 15.1215,-3.6231 4.18931,-1.81709 0.9141,-1.27308 3.09758,-1.63206 6.37649,-2.17977 11.83888,-3.07907 12.93433,-3.26042 14.02976,-3.44175 12.93062,-3.25671 11.84259,-3.08277 7.46823,-2.35742 3.10127,-1.63205 2.00214,-1.45442 3.09758,-1.63576 5.28475,-1.99473 6.37649,-2.17978 7.47193,-2.35371 5.28106,-1.99844 4.19301,-1.81339 3.09758,-1.63576 0.9104,-1.27308 0.9141,-1.27308 0.9104,-1.27307 2.00583,-1.45442 3.09758,-1.63576 2.00584,-1.45442 0.9141,-1.27307 0.72906,-2.36852 0.9141,-1.27308 0.73276,-2.36481 2.00213,-1.45442 4.19302,-1.8134 2.00584,-1.45442 0.91039,-1.27307 0.9141,-1.27678 0.9104,-1.27308 2.00584,-1.45442 4.18931,-1.81339 3.10128,-1.63576 5.28105,-1.99474 2.00584,-1.45441 0.9141,-1.27308 -0.54402,-3.27892 -1.27308,-0.9141 -0.18504,-1.09173 2.00584,-1.45442 0.9141,-1.27308 0.9104,-1.27308 0.9141,-1.27308 0.72906,-2.36851 0.18504,-5.64373 0.55142,-3.46026 0.9104,-1.27308 0.9104,-1.27308 0.9141,-1.27307 0.37008,-4.552 -4.69633,-28.4148 -1.81339,-4.19301 -1.45442,-2.00584 -2.18718,0.36268 -0.37008,-2.18348 -1.45442,-2.00584 -1.63205,-3.09757 -1.63576,-3.10128 -1.8134,-4.18932 -1.81709,-4.18931 -1.45442,-2.00584 -1.27308,-0.9141 -2.18717,0.36268 -0.37009,-2.18718 -1.63575,-3.09757 -1.63576,-3.09758 -1.8134,-4.18931 -1.63575,-3.10128 -1.63576,-3.09758 -1.45442,-2.00213 -1.27307,-0.9141 -2.36482,-0.73276 -1.8171,-4.18932 -2.35741,-7.46823 -1.45442,-2.00583 -1.27308,-0.9141 -2.36481,-0.72906 -1.45442,-2.00584 -1.63576,-3.09758 -1.63576,-3.10127 -1.45071,-2.00214 -1.27678,-0.9141 -1.45072,-2.00584 -1.27678,-0.9104 -1.27307,-0.9141 -1.45442,-2.00213 -1.45442,-2.00584 -1.45442,-2.00584 -1.45071,-2.00584 -1.45442,-2.00583 -1.45442,-2.00584 -1.45442,-2.00214 -2.36851,-0.73276 -1.27308,-0.9141 -1.27308,-0.9104 -1.63576,-3.09757 -1.45071,-2.00584 -1.63576,-3.09758 -1.45442,-2.00584 -1.45441,-2.00583 -2.36482,-0.73276 -2.18718,0.36268 -0.37008,-2.18348 -2.17607,-6.37649 -1.45442,-2.00584 -1.45442,-2.00584 -4.55199,-0.37008 -2.36482,-0.73276 -1.27308,-0.9104 -1.27307,-0.9141 -1.27308,-0.9104 -1.27678,-0.9141 -1.27308,-0.91039 -1.45442,-2.00584 -1.63205,-3.09758 -1.45442,-2.00584 -1.27308,-0.9141 -1.27678,-0.91039 -2.36481,-0.73276 -1.27308,-0.9104 -1.27308,-0.9141 -1.27308,-0.9104 -2.36851,-0.73276 -1.27308,-0.9141 -2.36482,-0.72906 -1.27307,-0.9141 -1.27678,-0.9104 -2.36482,-0.73276 -1.27308,-0.9141 -1.27308,-0.9104 -1.27307,-0.9141 -1.27308,-0.91039 -1.27308,-0.9104 -1.27678,-0.9141 -1.63205,-3.09758 -1.45442,-2.00584 -1.27308,-0.9104 -1.27308,-0.91409 -3.46025,-0.55143 -3.46026,-0.55142 -3.46025,-0.55142 -2.36482,-0.72905 -2.36852,-0.73276 -1.81339,-4.18932 -2.36482,-0.73276 -2.36852,-0.73276 -2.36481,-0.73276 -1.27308,-0.9104 -1.27678,-0.9141 -1.27308,-0.9104 -1.27307,-0.9141 -2.36482,-0.72905 -1.27308,-0.9141 -1.27308,-0.9104 -1.27677,-0.9141 -1.27308,-0.9104 -1.27308,-0.9141 -1.27308,-0.9104 -2.36481,-0.73276 -1.27308,-0.9104 -1.27678,-0.9141 -2.36482,-0.73276 -2.36481,-0.72906 -1.27678,-0.9141 -2.36482,-0.73276 -1.27308,-0.9104 -2.36481,-0.73275 -2.36852,-0.72906 -2.36482,-0.73276 -2.36851,-0.73276 -2.36482,-0.73276 -2.36852,-0.72906 -3.45655,-0.55142 -5.64743,-0.18874 -1.45442,-2.00584 -2.36482,-0.73276 -5.64373,-0.18874 -15.48048,1.43591 -4.55569,-0.37008 -1.27308,-0.9141 -1.27308,-0.9104 -2.36481,-0.73276 -3.46026,-0.55142 -12.02022,1.98733 z"
         style="fill:#f07c00;fill-opacity:1;fill-rule:evenodd;stroke-width:1.33333"
         id="path14" />
    </g>
  </g>
</svg>
