<?xml version="1.0" encoding="UTF-8" standalone="no"?>
<!-- Created with Inkscape (http://www.inkscape.org/) -->

<svg
   version="1.1"
   id="svg1"
   width="682.66669"
   height="682.66669"
   viewBox="0 0 682.66669 682.66669"
   sodipodi:docname="logo-ORANGE.svg"
   inkscape:version="1.4.2 (f4327f4, 2025-05-13)"
   xmlns:inkscape="http://www.inkscape.org/namespaces/inkscape"
   xmlns:sodipodi="http://sodipodi.sourceforge.net/DTD/sodipodi-0.dtd"
   xmlns="http://www.w3.org/2000/svg"
   xmlns:svg="http://www.w3.org/2000/svg">
  <defs
     id="defs1" />
  <sodipodi:namedview
     id="namedview1"
     pagecolor="#ffffff"
     bordercolor="#000000"
     borderopacity="0.25"
     inkscape:showpageshadow="2"
     inkscape:pageopacity="0.0"
     inkscape:pagecheckerboard="0"
     inkscape:deskcolor="#d1d1d1"
     inkscape:zoom="0.82346173"
     inkscape:cx="372.20916"
     inkscape:cy="304.20357"
     inkscape:window-width="1920"
     inkscape:window-height="991"
     inkscape:window-x="-9"
     inkscape:window-y="-9"
     inkscape:window-maximized="1"
     inkscape:current-layer="Layer1000" />
  <g
     inkscape:groupmode="layer"
     inkscape:label="Image"
     id="g1">
    <g
       id="Layer1000"
       transform="matrix(37.008078,0,0,37.008078,-11919.893,-1201.3632)"
       style="stroke-width:0.0360282">
      <path
         d="m 332.9077,33.3057 0.2067,-0.0342 0.0247,-0.0344 -0.005,-0.0296 -0.0344,-0.0246 -0.2067,0.0342 z"
         style="fill:#565757;fill-rule:evenodd;stroke-width:0.0360282"
         id="path1-88" />
      <path
         d="m 332.6072,33.507 -0.1132,0.0491 -0.0837,0.0441 -0.0542,0.0393 -0.0542,0.0393 -0.0837,0.0442 -0.0542,0.0393 -0.1723,0.0588 -0.0246,0.0344 -0.0247,0.0344 -0.0246,0.0344 -0.0198,0.064 -0.0198,0.0639 -0.0246,0.0344 -0.0198,0.064 -0.0246,0.0344 -0.0247,0.0344 -0.0246,0.0344 -0.0542,0.0393 -0.0837,0.0442 -0.0247,0.0344 -0.0246,0.0344 -0.0247,0.0344 -0.0246,0.0344 -0.0198,0.0639 -0.0246,0.0345 -0.0198,0.0639 -0.0198,0.0639 -0.0197,0.064 -0.0149,0.0935 -0.0149,0.0934 -0.0149,0.0935 -0.01,0.123 0.005,0.2116 0.083,0.502 0.049,0.1133 0.0637,0.2018 0.2004,1.0287 0.2198,1.1468 0.0686,0.2314 0.0344,0.0247 0.0344,0.0246 0.0591,-0.0098 0.0147,0.0886 0.0539,0.1428 0.0442,0.0837 0.0344,0.0247 0.0393,0.0542 0.0344,0.0246 0.0393,0.0542 0.0344,0.0246 0.0344,0.0247 0.0344,0.0246 0.0344,0.0247 0.0639,0.0198 0.0345,0.0246 0.0344,0.0247 0.0639,0.0197 0.1525,0.0052 0.0935,0.0149 0.0393,0.0541 0.0344,0.0247 0.123,0.01 0.7383,-0.122 0.0837,-0.0442 0.0247,-0.0344 0.0246,-0.0344 0.0247,-0.0344 0.0837,-0.0442 0.0837,-0.0442 0.0837,-0.0441 0.1133,-0.0491 0.0837,-0.0442 0.0246,-0.0344 0.0247,-0.0344 0.0149,-0.0935 0.1132,-0.049 0.0542,-0.0393 0.0542,-0.0393 0.0246,-0.0344 0.0247,-0.0344 0.0246,-0.0344 0.0542,-0.0393 0.0246,-0.0344 0.0247,-0.0345 0.0246,-0.0344 0.0198,-0.0639 0.0247,-0.0344 0.0246,-0.0344 0.0247,-0.0344 0.0197,-0.064 0.0149,-0.0935 0.01,-0.123 0.0542,-0.0393 0.0247,-0.0344 0.0246,-0.0344 0.0198,-0.0639 0.0149,-0.0935 0.0149,-0.0935 0.0148,-0.0934 0.0149,-0.0935 0.0247,-0.0344 0.0246,-0.0344 0.0247,-0.0345 0.0246,-0.0344 0.0198,-0.0639 0.0198,-0.0639 0.0149,-0.0935 0.0149,-0.0935 0.0197,-0.0639 0.0198,-0.064 0.0198,-0.0639 0.0246,-0.0344 0.0247,-0.0344 0.0149,-0.0935 -0.01,-0.2411 -0.068,-0.5955 -0.0976,-0.5907 -0.1369,-0.6448 -0.0686,-0.2313 -0.0491,-0.1133 -0.0393,-0.0541 -0.0639,-0.0198 -0.0344,-0.0247 -0.0491,-0.1132 -0.0393,-0.0542 -0.0344,-0.0246 -0.0344,-0.0247 -0.0344,-0.0247 -0.0393,-0.0541 -0.0344,-0.0247 -0.0344,-0.0246 -0.0344,-0.0247 -0.0344,-0.0246 -0.0345,-0.0247 -0.0392,-0.0542 -0.0345,-0.0246 -0.0344,-0.0247 -0.0344,-0.0246 -0.0344,-0.0247 -0.0935,-0.0149 -0.0934,-0.0148 -0.1526,-0.0052 -0.182,-2e-4 -0.1821,-3e-4 -0.123,-0.01 -0.0935,-0.0149 -0.0344,-0.0246 -0.0344,-0.0247 -0.064,-0.0197 -0.0934,-0.0149 -0.6202,0.1025 z"
         style="fill:#565757;fill-rule:evenodd;stroke-width:0.0360282"
         id="path2-2" />
      <path
         d="m 326.3516,34.5712 -0.0247,0.0344 -0.0246,0.0344 -0.0149,0.0935 0.0101,0.0628 -0.1824,-0.004 -0.2067,0.0342 -0.0247,0.0344 -0.0149,0.0935 -0.0149,0.0934 -0.0837,0.0442 -0.0837,0.0442 -0.0246,0.0344 -0.01,0.123 0.01,0.0591 -0.1181,0.0195 -0.0247,0.0344 -2e-4,0.1821 0.005,0.2116 -0.0197,0.0639 -0.0542,0.0393 0.0683,0.4134 0.093,0.3791 0.1222,0.5562 0.1613,0.7924 0.1467,0.7039 0.0491,0.1132 0.0344,0.0247 0.0935,0.0149 0.0588,0.1723 0.0637,0.2018 0.0392,0.0542 0.0886,-0.0147 0.01,0.0591 0.0442,0.0837 0.049,0.1133 0.054,0.1427 0.049,0.1133 0.0491,0.1132 0.0393,0.0542 0.0344,0.0246 0.0639,0.0198 0.0442,0.0837 0.0442,0.0837 0.0393,0.0542 0.0392,0.0542 0.0345,0.0247 0.0344,0.0246 0.0393,0.0542 0.0344,0.0246 0.0344,0.0247 0.0344,0.0246 0.0344,0.0247 0.0344,0.0246 0.0344,0.0247 0.0344,0.0246 0.064,0.0198 0.0344,0.0247 0.0344,0.0246 0.0344,0.0247 0.064,0.0197 0.0344,0.0247 0.0639,0.0198 0.0344,0.0246 0.064,0.0198 0.0639,0.0198 0.0935,0.0148 0.123,0.01 0.0639,0.0198 0.0491,0.1133 0.1476,-0.0244 0.0838,-0.0442 0.0837,-0.0442 0.1132,-0.0491 0.1133,-0.049 0.1132,-0.0491 0.0837,-0.0441 0.0837,-0.0442 0.0837,-0.0442 0.0837,-0.0441 0.0542,-0.0393 0.0198,-0.064 -0.01,-0.059 0.0591,-0.0098 0.0837,-0.0442 0.0542,-0.0393 0.0246,-0.0344 0.0247,-0.0344 0.0246,-0.0344 0.0247,-0.0344 0.0246,-0.0344 0.0247,-0.0344 0.0198,-0.064 0.0197,-0.0639 0.0198,-0.064 0.0198,-0.0639 0.0197,-0.0639 0.01,-0.123 0.0149,-0.0935 0.01,-0.123 0.0198,-0.064 0.0198,-0.0639 0.0246,-0.0344 0.0198,-0.064 -0.01,-0.2411 -0.0437,-0.4478 -0.2635,-1.5947 -0.0784,-0.2904 -0.0539,-0.1428 -0.0442,-0.0837 -0.0393,-0.0542 -0.0441,-0.0837 -0.0393,-0.0542 -0.0393,-0.0542 -0.0344,-0.0246 -0.0393,-0.0542 -0.0393,-0.0542 -0.0344,-0.0246 -0.0393,-0.0542 -0.0344,-0.0247 -0.0345,-0.0246 -0.0392,-0.0542 -0.0442,-0.0837 -0.0491,-0.1133 -0.049,-0.1132 -0.0491,-0.1133 -0.049,-0.1132 -0.0393,-0.0542 -0.0344,-0.0246 -0.0344,-0.0247 -0.064,-0.0197 -0.0344,-0.0247 -0.0639,-0.0198 -0.0344,-0.0246 -0.0345,-0.0247 -0.0344,-0.0246 -0.0344,-0.0247 -0.0344,-0.0246 -0.0344,-0.0247 -0.0344,-0.0246 -0.0344,-0.0247 -0.0344,-0.0246 -0.0344,-0.0247 -0.0345,-0.0246 -0.0393,-0.0542 -0.0344,-0.0246 -0.0344,-0.0247 -0.0393,-0.0542 -0.0393,-0.0542 -0.0639,-0.0197 -0.0935,-0.0149 -0.0935,-0.0149 -0.1525,-0.0051 -0.123,-0.0101 -0.123,-0.01 -0.0935,-0.0148 -0.0934,-0.0149 -0.064,-0.0198 -0.0935,-0.0149 -0.182,-2e-4 -0.1477,0.0244 z"
         style="fill:#565757;fill-rule:evenodd;stroke-width:0.0360282"
         id="path3" />
      <path
         d="m 322.582,42.0505 0.059,-0.0098 0.0101,-0.123 -0.01,-0.059 -0.0491,-0.1133 -0.059,0.0098 z"
         style="fill:#565757;fill-rule:evenodd;stroke-width:0.0360282"
         id="path4" />
      <path
         d="m 337.9745,38.0807 -0.1428,0.054 -0.1133,0.049 -0.0541,0.0393 -0.0542,0.0393 -0.0542,0.0393 -0.0246,0.0344 -0.0542,0.0393 -0.0542,0.0393 -0.0542,0.0393 -0.0542,0.0393 -0.1132,0.049 -0.0542,0.0393 -0.0247,0.0344 -0.0246,0.0344 -0.01,0.123 -0.01,0.123 -0.0198,0.064 -0.0198,0.0639 -0.0197,0.064 -0.0198,0.0639 -0.0246,0.0344 -0.0198,0.064 -0.0247,0.0344 -0.0246,0.0344 -0.0198,0.0639 -0.0246,0.0344 -0.0247,0.0344 -0.0542,0.0393 -0.01,-0.059 -0.0591,0.0097 -0.0198,0.064 -0.0246,0.0344 -0.0149,0.0935 -0.0149,0.0934 -0.005,0.1526 -3e-4,0.182 -0.0149,0.0935 -0.0246,0.0344 -0.0198,0.064 -0.0246,0.0344 -0.0247,0.0344 -0.0198,0.0639 -0.0246,0.0344 -0.0246,0.0345 -0.0198,0.0639 -0.0198,0.064 -0.01,0.1229 0.0193,0.3002 0.005,0.2116 -0.0149,0.0935 -0.0149,0.0935 -0.0197,0.0639 0.0146,0.0886 0.0591,-0.0097 0.0295,-0.0049 0.0539,0.1428 0.132,0.6152 0.0686,0.2314 0.054,0.1428 0.0441,0.0837 0.0393,0.0542 0.0442,0.0837 0.0344,0.0246 0.0393,0.0542 0.0344,0.0247 0.0344,0.0246 0.0393,0.0542 0.0344,0.0246 0.0442,0.0837 0.0393,0.0542 0.0393,0.0542 0.0393,0.0542 0.0344,0.0246 0.0344,0.0247 0.0344,0.0246 0.064,0.0198 0.0639,0.0198 0.0639,0.0197 0.0935,0.0149 0.0344,0.0247 0.064,0.0198 0.0393,0.0541 0.0344,0.0247 0.0344,0.0246 0.0639,0.0198 0.1526,0.0051 0.7973,-0.1317 0.2609,-0.0735 0.2018,-0.0637 0.1133,-0.049 0.0542,-0.0393 0.0246,-0.0344 -0.005,-0.0296 -0.0935,-0.0149 0.0247,-0.0344 0.0247,-0.0344 0.0541,-0.0393 0.0247,-0.0344 0.0542,-0.0393 0.0246,-0.0344 0.0198,-0.0639 0.0246,-0.0345 0.0149,-0.0934 0.0198,-0.064 0.0246,-0.0344 0.0247,-0.0344 0.0246,-0.0344 0.0247,-0.0344 0.0542,-0.0393 0.0246,-0.0344 0.0198,-0.064 0.005,-0.1525 0.0247,-0.0344 0.0542,-0.0393 0.0246,-0.0344 0.0247,-0.0344 0.01,-0.123 0.0197,-0.064 0.0198,-0.0639 0.0247,-0.0344 0.0246,-0.0344 0.0198,-0.064 0.0246,-0.0344 0.0247,-0.0344 0.0246,-0.0344 0.0198,-0.064 0.0246,-0.0344 0.0198,-0.0639 0.0247,-0.0344 0.0197,-0.064 0.0198,-0.0639 0.0149,-0.0935 0.0149,-0.0935 0.01,-0.123 0.005,-0.1525 0.0149,-0.0935 0.0198,-0.0639 0.0246,-0.0344 0.0198,-0.064 2e-4,-0.182 -0.2391,-1.447 -0.0637,-0.2019 -0.0344,-0.0246 -0.0344,-0.0247 -0.0591,0.0098 -0.0146,-0.0886 -0.0588,-0.1723 -0.0442,-0.0837 -0.0393,-0.0542 -0.0393,-0.0542 -0.0393,-0.0542 -0.0344,-0.0246 -0.0393,-0.0542 -0.0344,-0.0247 -0.0344,-0.0246 -0.064,-0.0198 -0.1181,0.0196 -0.01,-0.0591 -0.0442,-0.0837 -0.0344,-0.0247 -0.0344,-0.0246 -0.064,-0.0198 -0.0639,-0.0198 -0.123,-0.01 -0.123,-0.01 -0.2412,0.0095 -0.6201,0.1025 z"
         style="fill:#565757;fill-rule:evenodd;stroke-width:0.0360282"
         id="path5" />
      <path
         d="m 323.4008,40.5803 -0.0837,0.0442 -0.0837,0.0442 -0.0542,0.0393 -0.0542,0.0392 -0.0197,0.064 -0.0542,0.0393 -0.0837,0.0442 -0.0542,0.0392 -0.0837,0.0442 -0.0837,0.0442 -0.0837,0.0442 -0.0247,0.0344 0.3124,1.89 0.0637,0.2018 0.0441,0.0837 0.0344,0.0246 0.0393,0.0542 0.0393,0.0542 0.0491,0.1133 0.049,0.1132 0.054,0.1428 0.0539,0.1428 0.0539,0.1427 0.0491,0.1133 0.0441,0.0837 0.0345,0.0246 0.0344,0.0247 0.0393,0.0542 0.0588,0.1723 0.0442,0.0837 0.0344,0.0246 0.0344,0.0247 0.0344,0.0246 0.0639,0.0198 0.0344,0.0246 0.0442,0.0838 0.0588,0.1723 0.0491,0.1132 0.0393,0.0542 0.0886,-0.0146 0.01,0.059 0.0344,0.0247 0.0442,0.0837 0.0393,0.0542 0.0442,0.0837 0.0393,0.0542 0.0344,0.0246 0.0344,0.0246 0.0344,0.0247 0.0639,0.0198 0.064,0.0197 0.0344,0.0247 0.0344,0.0246 0.0344,0.0247 0.0344,0.0246 0.064,0.0198 0.0344,0.0247 0.0344,0.0246 0.0344,0.0247 0.0344,0.0246 0.064,0.0198 0.0344,0.0246 0.0639,0.0198 0.0344,0.0247 0.064,0.0197 0.0639,0.0198 0.064,0.0198 0.123,0.01 0.182,2e-4 0.4725,-0.0781 0.2609,-0.0734 0.2314,-0.0686 0.1132,-0.049 0.0542,-0.0394 0.0542,-0.0392 0.0246,-0.0344 0.0247,-0.0345 0.0542,-0.0393 0.0542,-0.0392 0.0541,-0.0393 0.0247,-0.0344 0.0246,-0.0345 0.0198,-0.0639 0.0149,-0.0935 -0.01,-0.059 0.1182,-0.0196 0.0246,-0.0344 0.0149,-0.0934 3e-4,-0.1821 0.0246,-0.0344 0.0246,-0.0344 0.0149,-0.0935 0.005,-0.1525 -0.0437,-0.4479 -0.0391,-0.2362 -0.1027,-0.4381 -0.0491,-0.1133 -0.0344,-0.0246 -0.0344,-0.0247 -0.0344,-0.0246 -0.0539,-0.1428 -0.0491,-0.1132 -0.0344,-0.0247 -0.0344,-0.0246 -0.0591,0.0097 -0.01,-0.059 -0.0393,-0.0542 -0.0393,-0.0542 -0.0442,-0.0837 -0.0393,-0.0542 -0.0393,-0.0542 -0.0344,-0.0246 -0.0344,-0.0247 -0.059,0.0098 -0.01,-0.0591 -0.0393,-0.0542 -0.049,-0.1132 -0.0491,-0.1132 -0.0491,-0.1133 -0.049,-0.1132 -0.0393,-0.0542 -0.0393,-0.0542 -0.0591,0.0098 -0.01,-0.0591 -0.0393,-0.0542 -0.0393,-0.0542 -0.0442,-0.0837 -0.0393,-0.0541 -0.0393,-0.0542 -0.0392,-0.0542 -0.064,-0.0198 -0.0639,-0.0198 -0.0344,-0.0246 -0.064,-0.0198 -0.0344,-0.0246 -0.0344,-0.0247 -0.0344,-0.0246 -0.0344,-0.0247 -0.0344,-0.0246 -0.0344,-0.0247 -0.0345,-0.0246 -0.0344,-0.0247 -0.0639,-0.0197 -0.0344,-0.0247 -0.0344,-0.0246 -0.0345,-0.0247 -0.0344,-0.0246 -0.0344,-0.0247 -0.0344,-0.0246 -0.0344,-0.0247 -0.0344,-0.0246 -0.0344,-0.0247 -0.064,-0.0198 -0.0344,-0.0246 -0.0344,-0.0247 -0.0344,-0.0246 -0.0639,-0.0198 -0.064,-0.0198 -0.0639,-0.0197 -0.0393,-0.0542 -0.0344,-0.0247 -0.0345,-0.0246 -0.0934,-0.0149 -0.1821,-2e-4 -0.0393,-0.0542 -0.0393,-0.0542 -0.0639,-0.0198 -0.0344,-0.0246 -0.0935,-0.0149 -0.2116,0.0046 -0.1476,0.0244 z"
         style="fill:#565757;fill-rule:evenodd;stroke-width:0.0360282"
         id="path6" />
      <path
         d="m 331.1596,41.452 0.1477,-0.0244 0.005,0.0295 -0.1476,0.0244 z m -0.1081,-0.1035 -0.0247,0.0344 -0.0246,0.0344 -0.0247,0.0344 -0.0837,0.0442 -0.2018,0.0637 -0.1132,0.0491 -0.0542,0.0393 -0.0542,0.0392 -0.0542,0.0393 -0.0246,0.0345 -0.0247,0.0344 -0.0542,0.0392 -0.0246,0.0345 -0.0247,0.0344 -0.0246,0.0344 -0.0247,0.0344 -0.0542,0.0393 -0.0246,0.0344 -0.0542,0.0393 -0.0837,0.0442 -0.1132,0.049 -0.0542,0.0393 -0.0247,0.0344 -0.0246,0.0344 -0.0198,0.064 -0.0198,0.0639 -0.1132,0.0491 -0.1428,0.0539 -0.0246,0.0344 -0.0542,0.0393 -0.0542,0.0393 -0.0591,0.0098 -0.0295,0.0048 -0.0246,0.0345 -0.0247,0.0344 -0.0198,0.0639 -0.0197,0.064 -0.0247,0.0344 -0.0198,0.0639 -0.0246,0.0344 -0.0542,0.0393 -0.0246,0.0344 -0.0542,0.0393 -0.1133,0.0491 -0.0541,0.0393 -0.0247,0.0344 -0.0246,0.0344 -0.0247,0.0344 -0.01,0.123 -0.0247,0.0344 -0.0246,0.0344 -0.0247,0.0344 -0.0197,0.064 -0.01,0.123 -3e-4,0.182 -0.005,0.1526 -3e-4,0.182 -2e-4,0.1821 -0.0149,0.0935 -0.0198,0.0639 -0.0246,0.0344 -0.0247,0.0344 -0.0149,0.0935 -0.005,0.1526 -0.0149,0.0934 -0.0197,0.064 -0.0247,0.0344 -0.0246,0.0344 -0.0247,0.0344 -0.0246,0.0344 -0.0542,0.0393 -0.0247,0.0344 -0.0246,0.0344 -0.0247,0.0344 -0.0246,0.0345 -0.0247,0.0344 -0.0246,0.0344 -0.0247,0.0344 -0.0246,0.0344 -0.0247,0.0344 -0.0246,0.0344 -0.0247,0.0344 -0.0246,0.0345 -0.0247,0.0344 -0.0197,0.0639 -0.0247,0.0344 -0.0198,0.064 -0.0149,0.0934 -0.0197,0.064 -0.0198,0.0639 -0.0198,0.064 -0.0837,0.0441 -0.0246,0.0344 -0.0247,0.0345 -0.0197,0.0639 -0.0198,0.0639 -0.0198,0.064 -0.0198,0.0639 -0.0197,0.064 -0.0247,0.0344 -0.0246,0.0344 -0.0198,0.0639 -0.0246,0.0344 -0.0247,0.0345 -0.0246,0.0344 -0.0247,0.0344 -0.0198,0.0639 -0.0197,0.064 -0.0198,0.0639 -0.0149,0.0935 -0.0149,0.0935 -0.0149,0.0934 -0.01,0.123 -0.0198,0.064 -0.0246,0.0344 -0.0198,0.0639 -0.01,0.123 0.0534,0.5069 0.0196,0.1182 0.1076,0.4676 0.0491,0.1132 0.0392,0.0542 0.0591,-0.0098 0.01,0.0591 0.0441,0.0837 0.0491,0.1133 0.049,0.1132 0.0491,0.1132 0.0442,0.0838 0.0344,0.0246 0.0344,0.0247 0.0886,-0.0147 0.01,0.0591 0.0441,0.0837 0.0393,0.0542 0.0344,0.0246 0.0344,0.0247 0.0393,0.0542 0.0344,0.0246 0.0345,0.0247 0.0344,0.0246 0.0393,0.0542 0.0344,0.0246 0.0344,0.0247 0.0393,0.0542 0.0344,0.0246 0.0344,0.0247 0.0344,0.0246 0.0344,0.0247 0.0344,0.0246 0.064,0.0198 0.0934,0.0149 0.0591,-0.0098 0.01,0.0591 0.0344,0.0246 0.0393,0.0542 0.0344,0.0247 0.0344,0.0246 0.0639,0.0198 0.1821,2e-4 0.0935,0.0149 0.0393,0.0542 0.0344,0.0246 0.0344,0.0247 0.123,0.01 0.1525,0.0051 0.0935,0.0149 0.0639,0.0198 0.064,0.0198 0.0935,0.0149 0.0934,0.0148 0.123,0.01 0.2116,-0.0046 0.6251,-0.0729 0.4478,-0.0437 0.0886,-0.0147 0.01,0.0591 0.0344,0.0247 0.0934,0.0148 0.945,-0.1561 0.1428,-0.054 0.0247,-0.0344 0.0246,-0.0344 0.0837,-0.0442 0.32,-0.0832 0.4085,-0.0978 0.1133,-0.0491 0.0246,-0.0344 0.0838,-0.0442 0.1723,-0.0588 0.3199,-0.0832 0.3495,-0.0881 0.379,-0.093 0.3495,-0.0881 0.32,-0.0832 0.2018,-0.0637 0.0837,-0.0442 0.0542,-0.0393 0.0837,-0.0441 0.1428,-0.054 0.1723,-0.0588 0.2018,-0.0637 0.1428,-0.0539 0.1132,-0.0491 0.0838,-0.0441 0.0246,-0.0345 0.0247,-0.0344 0.0246,-0.0344 0.0542,-0.0393 0.0837,-0.0441 0.0542,-0.0393 0.0246,-0.0344 0.0198,-0.064 0.0247,-0.0344 0.0197,-0.0639 0.0542,-0.0393 0.1133,-0.0491 0.0541,-0.0393 0.0247,-0.0344 0.0246,-0.0344 0.0247,-0.0344 0.0542,-0.0393 0.1132,-0.049 0.0837,-0.0442 0.1428,-0.054 0.0542,-0.0393 0.0246,-0.0344 -0.0146,-0.0886 -0.0344,-0.0246 -0.005,-0.0295 0.0542,-0.0393 0.0246,-0.0344 0.0247,-0.0345 0.0246,-0.0344 0.0198,-0.0639 0.005,-0.1525 0.0149,-0.0935 0.0247,-0.0344 0.0246,-0.0344 0.0247,-0.0344 0.01,-0.1231 -0.1269,-0.7678 -0.0491,-0.1132 -0.0393,-0.0542 -0.059,0.0098 -0.01,-0.0591 -0.0393,-0.0542 -0.0442,-0.0837 -0.0441,-0.0837 -0.0491,-0.1132 -0.049,-0.1133 -0.0393,-0.0542 -0.0344,-0.0246 -0.0591,0.0097 -0.01,-0.059 -0.0441,-0.0837 -0.0442,-0.0837 -0.0491,-0.1133 -0.0441,-0.0837 -0.0442,-0.0837 -0.0393,-0.0542 -0.0344,-0.0246 -0.064,-0.0198 -0.049,-0.1133 -0.0637,-0.2018 -0.0393,-0.0542 -0.0344,-0.0246 -0.0639,-0.0198 -0.0393,-0.0542 -0.0442,-0.0837 -0.0442,-0.0837 -0.0393,-0.0542 -0.0344,-0.0246 -0.0393,-0.0542 -0.0344,-0.0246 -0.0344,-0.0247 -0.0393,-0.0542 -0.0393,-0.0542 -0.0393,-0.0541 -0.0393,-0.0542 -0.0393,-0.0542 -0.0393,-0.0542 -0.0393,-0.0542 -0.0639,-0.0197 -0.0344,-0.0247 -0.0344,-0.0247 -0.0442,-0.0837 -0.0393,-0.0541 -0.0441,-0.0837 -0.0393,-0.0542 -0.0393,-0.0542 -0.064,-0.0198 -0.059,0.0098 -0.01,-0.0591 -0.0588,-0.1723 -0.0393,-0.0542 -0.0393,-0.0541 -0.123,-0.0101 -0.064,-0.0197 -0.0344,-0.0247 -0.0344,-0.0246 -0.0344,-0.0247 -0.0344,-0.0246 -0.0344,-0.0247 -0.0393,-0.0542 -0.0442,-0.0837 -0.0393,-0.0542 -0.0344,-0.0246 -0.0344,-0.0247 -0.0639,-0.0197 -0.0344,-0.0247 -0.0345,-0.0246 -0.0344,-0.0247 -0.0639,-0.0197 -0.0344,-0.0247 -0.064,-0.0198 -0.0344,-0.0246 -0.0344,-0.0247 -0.0639,-0.0197 -0.0344,-0.0247 -0.0345,-0.0246 -0.0344,-0.0247 -0.0344,-0.0246 -0.0344,-0.0247 -0.0344,-0.0246 -0.0442,-0.0837 -0.0393,-0.0542 -0.0344,-0.0247 -0.0344,-0.0246 -0.0935,-0.0149 -0.0934,-0.0149 -0.0935,-0.0149 -0.0639,-0.0198 -0.064,-0.0197 -0.049,-0.1133 -0.064,-0.0198 -0.0639,-0.0197 -0.064,-0.0198 -0.0344,-0.0246 -0.0344,-0.0247 -0.0344,-0.0246 -0.0344,-0.0247 -0.064,-0.0198 -0.0344,-0.0246 -0.0344,-0.0247 -0.0344,-0.0246 -0.0344,-0.0247 -0.0344,-0.0246 -0.0344,-0.0247 -0.064,-0.0197 -0.0344,-0.0247 -0.0344,-0.0246 -0.0639,-0.0198 -0.064,-0.0198 -0.0344,-0.0246 -0.0639,-0.0198 -0.0344,-0.0246 -0.064,-0.0198 -0.0639,-0.0198 -0.064,-0.0198 -0.0639,-0.0197 -0.064,-0.0198 -0.0639,-0.0198 -0.0935,-0.0149 -0.1525,-0.0051 -0.0393,-0.0542 -0.0639,-0.0197 -0.1526,-0.0052 -0.4183,0.0388 -0.123,-0.01 -0.0344,-0.0246 -0.0344,-0.0247 -0.0639,-0.0197 -0.0935,-0.0149 -0.3249,0.0536 z"
         style="fill:#565757;fill-rule:evenodd;stroke-width:0.0360282"
         id="path7" />
      <path
         d="m 332.4741,32.851 0.2067,-0.0342 0.0247,-0.0344 -0.005,-0.0295 -0.0344,-0.0247 -0.2067,0.0342 z"
         style="fill:#3b3b3b;fill-rule:evenodd;stroke-width:0.0360282"
         id="path8" />
      <path
         d="m 332.1737,33.0523 -0.1133,0.0491 -0.0837,0.0442 -0.0542,0.0393 -0.0541,0.0392 -0.0837,0.0442 -0.0542,0.0393 -0.1723,0.0588 -0.0247,0.0344 -0.0246,0.0344 -0.0247,0.0345 -0.0198,0.0639 -0.0197,0.0639 -0.0247,0.0345 -0.0197,0.0639 -0.0247,0.0344 -0.0246,0.0344 -0.0247,0.0344 -0.0542,0.0393 -0.0837,0.0442 -0.0246,0.0344 -0.0247,0.0344 -0.0246,0.0344 -0.0247,0.0344 -0.0198,0.064 -0.0246,0.0344 -0.0198,0.0639 -0.0197,0.064 -0.0198,0.0639 -0.0149,0.0935 -0.0149,0.0935 -0.0149,0.0934 -0.01,0.1231 0.005,0.2116 0.083,0.502 0.0491,0.1132 0.0637,0.2019 0.2003,1.0287 0.2199,1.1468 0.0686,0.2313 0.0344,0.0247 0.0344,0.0246 0.059,-0.0097 0.0147,0.0886 0.0539,0.1427 0.0442,0.0838 0.0344,0.0246 0.0393,0.0542 0.0344,0.0246 0.0393,0.0542 0.0344,0.0247 0.0344,0.0246 0.0344,0.0247 0.0344,0.0246 0.064,0.0198 0.0344,0.0247 0.0344,0.0246 0.0639,0.0198 0.1526,0.0051 0.0935,0.0149 0.0392,0.0542 0.0345,0.0246 0.123,0.01 0.7382,-0.122 0.0838,-0.0442 0.0246,-0.0344 0.0247,-0.0344 0.0246,-0.0344 0.0837,-0.0442 0.0837,-0.0441 0.0837,-0.0442 0.1133,-0.0491 0.0837,-0.0441 0.0247,-0.0345 0.0246,-0.0344 0.0149,-0.0934 0.1132,-0.0491 0.0542,-0.0393 0.0542,-0.0393 0.0246,-0.0344 0.0247,-0.0344 0.0246,-0.0344 0.0542,-0.0393 0.0247,-0.0344 0.0246,-0.0344 0.0247,-0.0344 0.0197,-0.064 0.0247,-0.0344 0.0247,-0.0344 0.0246,-0.0344 0.0198,-0.064 0.0149,-0.0934 0.01,-0.123 0.0541,-0.0393 0.0247,-0.0344 0.0246,-0.0344 0.0198,-0.064 0.0149,-0.0935 0.0149,-0.0934 0.0149,-0.0935 0.0149,-0.0935 0.0246,-0.0344 0.0247,-0.0344 0.0246,-0.0344 0.0247,-0.0344 0.0198,-0.064 0.0197,-0.0639 0.0149,-0.0935 0.0149,-0.0935 0.0198,-0.0639 0.0197,-0.0639 0.0198,-0.064 0.0246,-0.0344 0.0247,-0.0344 0.0149,-0.0935 -0.01,-0.2411 -0.0681,-0.5955 -0.0976,-0.5906 -0.1369,-0.6448 -0.0686,-0.2314 -0.049,-0.1132 -0.0393,-0.0542 -0.064,-0.0198 -0.0344,-0.0246 -0.0491,-0.1133 -0.0392,-0.0542 -0.0344,-0.0246 -0.0345,-0.0247 -0.0344,-0.0246 -0.0393,-0.0542 -0.0344,-0.0247 -0.0344,-0.0246 -0.0344,-0.0246 -0.0344,-0.0247 -0.0344,-0.0246 -0.0393,-0.0542 -0.0344,-0.0247 -0.0344,-0.0246 -0.0345,-0.0247 -0.0344,-0.0246 -0.0934,-0.0149 -0.0935,-0.0149 -0.1525,-0.0051 -0.1821,-3e-4 -0.1821,-2e-4 -0.123,-0.01 -0.0935,-0.0149 -0.0344,-0.0247 -0.0344,-0.0246 -0.0639,-0.0198 -0.0935,-0.0149 -0.6201,0.1025 z"
         style="fill:#f07c00;fill-rule:evenodd;stroke-width:0.0360282;fill-opacity:1"
         id="path9" />
      <path
         d="m 325.918,34.1165 -0.0246,0.0345 -0.0247,0.0344 -0.0149,0.0934 0.0101,0.0629 -0.1824,-0.004 -0.2067,0.0341 -0.0247,0.0344 -0.0148,0.0935 -0.0149,0.0935 -0.0837,0.0442 -0.0838,0.0441 -0.0246,0.0344 -0.01,0.123 0.01,0.0591 -0.1181,0.0195 -0.0246,0.0344 -3e-4,0.1821 0.005,0.2116 -0.0198,0.0639 -0.0542,0.0393 0.0683,0.4135 0.093,0.379 0.1223,0.5562 0.1613,0.7925 0.1467,0.7038 0.049,0.1133 0.0344,0.0246 0.0935,0.0149 0.0588,0.1723 0.0637,0.2018 0.0393,0.0542 0.0886,-0.0146 0.01,0.059 0.0442,0.0838 0.0491,0.1132 0.0539,0.1428 0.0491,0.1132 0.049,0.1133 0.0393,0.0541 0.0344,0.0247 0.0639,0.0198 0.0442,0.0837 0.0442,0.0837 0.0393,0.0542 0.0393,0.0541 0.0344,0.0247 0.0344,0.0246 0.0393,0.0542 0.0344,0.0247 0.0344,0.0246 0.0344,0.0247 0.0344,0.0246 0.0345,0.0247 0.0344,0.0246 0.0344,0.0247 0.0639,0.0197 0.0344,0.0247 0.0344,0.0247 0.0345,0.0246 0.0639,0.0198 0.0344,0.0246 0.064,0.0198 0.0344,0.0246 0.0639,0.0198 0.0639,0.0198 0.0935,0.0149 0.123,0.01 0.064,0.0197 0.049,0.1133 0.1477,-0.0244 0.0837,-0.0442 0.0837,-0.0442 0.1132,-0.049 0.1133,-0.0491 0.1132,-0.049 0.0837,-0.0442 0.0838,-0.0442 0.0837,-0.0441 0.0837,-0.0442 0.0542,-0.0393 0.0197,-0.0639 -0.01,-0.0591 0.059,-0.0098 0.0837,-0.0441 0.0542,-0.0393 0.0247,-0.0344 0.0246,-0.0345 0.0247,-0.0344 0.0246,-0.0344 0.0247,-0.0344 0.0246,-0.0344 0.0198,-0.0639 0.0198,-0.064 0.0197,-0.0639 0.0198,-0.064 0.0198,-0.0639 0.01,-0.123 0.0149,-0.0935 0.01,-0.123 0.0197,-0.0639 0.0198,-0.064 0.0247,-0.0344 0.0197,-0.0639 -0.01,-0.2412 -0.0437,-0.4478 -0.2635,-1.5947 -0.0783,-0.2904 -0.054,-0.1428 -0.0441,-0.0837 -0.0393,-0.0542 -0.0442,-0.0837 -0.0393,-0.0542 -0.0393,-0.0541 -0.0344,-0.0247 -0.0393,-0.0542 -0.0393,-0.0542 -0.0344,-0.0246 -0.0393,-0.0542 -0.0344,-0.0246 -0.0344,-0.0247 -0.0393,-0.0542 -0.0442,-0.0837 -0.049,-0.1132 -0.0491,-0.1133 -0.049,-0.1132 -0.0491,-0.1133 -0.0393,-0.0541 -0.0344,-0.0247 -0.0344,-0.0246 -0.0639,-0.0198 -0.0345,-0.0247 -0.0639,-0.0197 -0.0344,-0.0247 -0.0344,-0.0246 -0.0344,-0.0247 -0.0345,-0.0246 -0.0344,-0.0247 -0.0344,-0.0246 -0.0344,-0.0247 -0.0344,-0.0246 -0.0344,-0.0247 -0.0344,-0.0246 -0.0344,-0.0247 -0.0393,-0.0542 -0.0344,-0.0246 -0.0344,-0.0247 -0.0393,-0.0541 -0.0393,-0.0542 -0.064,-0.0198 -0.0934,-0.0149 -0.0935,-0.0149 -0.1526,-0.0051 -0.123,-0.01 -0.123,-0.01 -0.0934,-0.0149 -0.0935,-0.0149 -0.064,-0.0198 -0.0934,-0.0149 -0.1821,-2e-4 -0.1477,0.0244 z"
         style="fill:#f07c00;fill-rule:evenodd;stroke-width:0.0360282;fill-opacity:1"
         id="path10" />
      <path
         d="m 322.1484,41.5958 0.0591,-0.0097 0.01,-0.123 -0.01,-0.0591 -0.049,-0.1132 -0.0591,0.0097 z"
         style="fill:#3b3b3b;fill-rule:evenodd;stroke-width:0.0360282"
         id="path11" />
      <path
         d="m 337.5409,37.626 -0.1428,0.054 -0.1132,0.049 -0.0542,0.0393 -0.0542,0.0393 -0.0542,0.0393 -0.0246,0.0344 -0.0542,0.0393 -0.0542,0.0393 -0.0542,0.0393 -0.0541,0.0393 -0.1133,0.0491 -0.0542,0.0392 -0.0246,0.0345 -0.0247,0.0344 -0.01,0.123 -0.01,0.123 -0.0198,0.0639 -0.0197,0.064 -0.0198,0.0639 -0.0198,0.0639 -0.0246,0.0345 -0.0198,0.0639 -0.0246,0.0344 -0.0247,0.0344 -0.0198,0.064 -0.0246,0.0344 -0.0247,0.0344 -0.0541,0.0393 -0.01,-0.0591 -0.0591,0.0098 -0.0197,0.0639 -0.0247,0.0344 -0.0149,0.0935 -0.0149,0.0935 -0.005,0.1525 -2e-4,0.1821 -0.0149,0.0935 -0.0247,0.0344 -0.0197,0.0639 -0.0247,0.0344 -0.0246,0.0344 -0.0198,0.064 -0.0247,0.0344 -0.0246,0.0344 -0.0198,0.0639 -0.0198,0.064 -0.01,0.123 0.0193,0.3002 0.005,0.2116 -0.0148,0.0934 -0.0149,0.0935 -0.0198,0.064 0.0146,0.0886 0.0591,-0.0098 0.0295,-0.0049 0.054,0.1428 0.132,0.6153 0.0686,0.2313 0.0539,0.1428 0.0442,0.0837 0.0393,0.0542 0.0441,0.0837 0.0344,0.0247 0.0393,0.0541 0.0344,0.0247 0.0345,0.0246 0.0393,0.0542 0.0344,0.0247 0.0441,0.0837 0.0393,0.0542 0.0393,0.0541 0.0393,0.0542 0.0344,0.0247 0.0344,0.0246 0.0344,0.0247 0.064,0.0197 0.0639,0.0198 0.064,0.0198 0.0935,0.0149 0.0344,0.0246 0.0639,0.0198 0.0393,0.0542 0.0344,0.0246 0.0344,0.0247 0.064,0.0197 0.1525,0.0052 0.7973,-0.1318 0.2609,-0.0735 0.2019,-0.0636 0.1132,-0.0491 0.0542,-0.0393 0.0246,-0.0344 -0.005,-0.0295 -0.0935,-0.0149 0.0246,-0.0344 0.0247,-0.0345 0.0542,-0.0392 0.0246,-0.0345 0.0542,-0.0393 0.0246,-0.0344 0.0198,-0.0639 0.0247,-0.0344 0.0149,-0.0935 0.0197,-0.0639 0.0247,-0.0344 0.0246,-0.0345 0.0247,-0.0344 0.0246,-0.0344 0.0542,-0.0393 0.0247,-0.0344 0.0197,-0.0639 0.005,-0.1526 0.0246,-0.0344 0.0542,-0.0393 0.0246,-0.0344 0.0247,-0.0344 0.01,-0.123 0.0198,-0.0639 0.0197,-0.064 0.0247,-0.0344 0.0246,-0.0344 0.0198,-0.0639 0.0247,-0.0345 0.0246,-0.0344 0.0247,-0.0344 0.0197,-0.0639 0.0247,-0.0344 0.0197,-0.064 0.0247,-0.0344 0.0198,-0.0639 0.0197,-0.064 0.0149,-0.0934 0.0149,-0.0935 0.01,-0.123 0.005,-0.1526 0.0148,-0.0934 0.0198,-0.064 0.0247,-0.0344 0.0197,-0.0639 3e-4,-0.1821 -0.2392,-1.447 -0.0637,-0.2018 -0.0344,-0.0247 -0.0344,-0.0246 -0.059,0.0097 -0.0147,-0.0886 -0.0588,-0.1723 -0.0442,-0.0837 -0.0393,-0.0542 -0.0393,-0.0541 -0.0392,-0.0542 -0.0345,-0.0247 -0.0393,-0.0542 -0.0344,-0.0246 -0.0344,-0.0247 -0.0639,-0.0197 -0.1181,0.0195 -0.01,-0.0591 -0.0442,-0.0837 -0.0344,-0.0246 -0.0344,-0.0247 -0.0639,-0.0198 -0.064,-0.0197 -0.123,-0.01 -0.123,-0.0101 -0.2411,0.0096 -0.6202,0.1025 z"
         style="fill:#f07c00;fill-rule:evenodd;stroke-width:0.0360282;fill-opacity:1"
         id="path12" />
      <path
         d="m 322.9672,40.1257 -0.0837,0.0441 -0.0837,0.0442 -0.0542,0.0393 -0.0541,0.0393 -0.0198,0.0639 -0.0542,0.0393 -0.0837,0.0442 -0.0542,0.0393 -0.0837,0.0441 -0.0837,0.0442 -0.0837,0.0442 -0.0247,0.0344 0.3124,1.89 0.0637,0.2018 0.0442,0.0837 0.0344,0.0247 0.0393,0.0542 0.0393,0.0541 0.049,0.1133 0.0491,0.1132 0.0539,0.1428 0.0539,0.1428 0.054,0.1428 0.049,0.1132 0.0442,0.0837 0.0344,0.0247 0.0344,0.0246 0.0393,0.0542 0.0588,0.1723 0.0442,0.0837 0.0344,0.0247 0.0344,0.0246 0.0344,0.0247 0.064,0.0197 0.0344,0.0247 0.0441,0.0837 0.0589,0.1723 0.049,0.1132 0.0393,0.0542 0.0886,-0.0146 0.01,0.059 0.0344,0.0247 0.0441,0.0837 0.0393,0.0542 0.0442,0.0837 0.0393,0.0542 0.0344,0.0246 0.0344,0.0247 0.0344,0.0246 0.064,0.0198 0.0639,0.0198 0.0344,0.0246 0.0344,0.0247 0.0345,0.0246 0.0344,0.0247 0.0639,0.0197 0.0344,0.0247 0.0344,0.0247 0.0344,0.0246 0.0345,0.0246 0.0639,0.0198 0.0344,0.0247 0.064,0.0197 0.0344,0.0247 0.0639,0.0198 0.064,0.0197 0.0639,0.0198 0.123,0.01 0.1821,3e-4 0.4725,-0.0781 0.2609,-0.0735 0.2313,-0.0686 0.1133,-0.049 0.0541,-0.0393 0.0542,-0.0393 0.0247,-0.0344 0.0246,-0.0344 0.0542,-0.0393 0.0542,-0.0393 0.0542,-0.0393 0.0246,-0.0344 0.0247,-0.0344 0.0197,-0.064 0.0149,-0.0934 -0.01,-0.0591 0.1181,-0.0195 0.0246,-0.0344 0.0149,-0.0935 3e-4,-0.1821 0.0246,-0.0344 0.0247,-0.0344 0.0149,-0.0935 0.005,-0.1525 -0.0437,-0.4478 -0.039,-0.2363 -0.1028,-0.4381 -0.049,-0.1132 -0.0344,-0.0247 -0.0344,-0.0246 -0.0344,-0.0247 -0.054,-0.1427 -0.049,-0.1133 -0.0344,-0.0246 -0.0345,-0.0247 -0.059,0.0098 -0.01,-0.0591 -0.0393,-0.0542 -0.0393,-0.0542 -0.0441,-0.0837 -0.0393,-0.0541 -0.0393,-0.0542 -0.0344,-0.0247 -0.0344,-0.0246 -0.0591,0.0097 -0.01,-0.059 -0.0393,-0.0542 -0.049,-0.1133 -0.0491,-0.1132 -0.049,-0.1132 -0.0491,-0.1133 -0.0393,-0.0542 -0.0393,-0.0542 -0.059,0.0098 -0.01,-0.059 -0.0393,-0.0542 -0.0393,-0.0542 -0.0441,-0.0837 -0.0393,-0.0542 -0.0393,-0.0542 -0.0393,-0.0542 -0.064,-0.0197 -0.0639,-0.0198 -0.0344,-0.0247 -0.064,-0.0197 -0.0344,-0.0247 -0.0344,-0.0246 -0.0344,-0.0247 -0.0344,-0.0246 -0.0344,-0.0247 -0.0344,-0.0246 -0.0344,-0.0247 -0.0344,-0.0246 -0.064,-0.0198 -0.0344,-0.0246 -0.0344,-0.0247 -0.0344,-0.0247 -0.0344,-0.0246 -0.0344,-0.0247 -0.0345,-0.0246 -0.0344,-0.0247 -0.0344,-0.0246 -0.0344,-0.0247 -0.0639,-0.0197 -0.0344,-0.0247 -0.0345,-0.0246 -0.0344,-0.0247 -0.0639,-0.0197 -0.0639,-0.0198 -0.064,-0.0198 -0.0393,-0.0542 -0.0344,-0.0246 -0.0344,-0.0247 -0.0935,-0.0149 -0.1821,-2e-4 -0.0392,-0.0542 -0.0393,-0.0542 -0.064,-0.0197 -0.0344,-0.0247 -0.0935,-0.0149 -0.2116,0.0047 -0.1476,0.0244 z"
         style="fill:#f07c00;fill-rule:evenodd;stroke-width:0.0360282;fill-opacity:1"
         id="path13" />
      <path
         d="m 330.726,40.9973 0.1477,-0.0244 0.005,0.0296 -0.1477,0.0244 z m -0.1081,-0.1035 -0.0246,0.0345 -0.0247,0.0344 -0.0246,0.0344 -0.0837,0.0442 -0.2019,0.0636 -0.1132,0.0491 -0.0542,0.0393 -0.0542,0.0393 -0.0542,0.0393 -0.0246,0.0344 -0.0247,0.0344 -0.0542,0.0393 -0.0246,0.0344 -0.0246,0.0344 -0.0247,0.0344 -0.0247,0.0344 -0.0541,0.0393 -0.0247,0.0344 -0.0542,0.0393 -0.0837,0.0442 -0.1132,0.0491 -0.0542,0.0393 -0.0246,0.0344 -0.0247,0.0344 -0.0198,0.0639 -0.0197,0.064 -0.1133,0.049 -0.1428,0.054 -0.0246,0.0344 -0.0542,0.0392 -0.0542,0.0393 -0.059,0.0098 -0.0296,0.0049 -0.0246,0.0344 -0.0247,0.0344 -0.0197,0.0639 -0.0198,0.064 -0.0247,0.0344 -0.0197,0.0639 -0.0247,0.0345 -0.0542,0.0393 -0.0246,0.0344 -0.0542,0.0392 -0.1132,0.0491 -0.0542,0.0393 -0.0247,0.0344 -0.0246,0.0344 -0.0247,0.0344 -0.01,0.123 -0.0246,0.0345 -0.0247,0.0344 -0.0246,0.0344 -0.0198,0.0639 -0.01,0.123 -2e-4,0.1821 -0.005,0.1525 -2e-4,0.1821 -3e-4,0.1821 -0.0149,0.0934 -0.0197,0.064 -0.0247,0.0344 -0.0246,0.0344 -0.0149,0.0935 -0.005,0.1525 -0.0149,0.0935 -0.0198,0.0639 -0.0247,0.0344 -0.0246,0.0344 -0.0247,0.0344 -0.0246,0.0345 -0.0542,0.0392 -0.0246,0.0345 -0.0247,0.0344 -0.0246,0.0344 -0.0247,0.0344 -0.0246,0.0344 -0.0247,0.0344 -0.0246,0.0344 -0.0247,0.0344 -0.0246,0.0345 -0.0247,0.0344 -0.0246,0.0344 -0.0247,0.0344 -0.0246,0.0344 -0.0198,0.0639 -0.0247,0.0345 -0.0197,0.0639 -0.0149,0.0935 -0.0198,0.0639 -0.0198,0.064 -0.0197,0.0639 -0.0837,0.0442 -0.0247,0.0344 -0.0246,0.0344 -0.0198,0.0639 -0.0198,0.064 -0.0198,0.0639 -0.0197,0.064 -0.0198,0.0639 -0.0246,0.0344 -0.0247,0.0344 -0.0198,0.064 -0.0246,0.0344 -0.0247,0.0344 -0.0246,0.0344 -0.0247,0.0344 -0.0197,0.064 -0.0198,0.0639 -0.0198,0.0639 -0.0149,0.0935 -0.0149,0.0935 -0.0148,0.0935 -0.01,0.123 -0.0198,0.0639 -0.0247,0.0344 -0.0197,0.064 -0.01,0.123 0.0534,0.5069 0.0195,0.1181 0.1076,0.4676 0.0491,0.1133 0.0393,0.0541 0.059,-0.0097 0.01,0.059 0.0442,0.0837 0.049,0.1133 0.0491,0.1132 0.049,0.1133 0.0442,0.0837 0.0344,0.0246 0.0344,0.0247 0.0886,-0.0146 0.01,0.059 0.0442,0.0837 0.0392,0.0542 0.0345,0.0247 0.0344,0.0246 0.0393,0.0542 0.0344,0.0246 0.0344,0.0247 0.0344,0.0246 0.0393,0.0542 0.0344,0.0247 0.0344,0.0246 0.0393,0.0542 0.0344,0.0247 0.0344,0.0246 0.0344,0.0247 0.0345,0.0246 0.0344,0.0247 0.0639,0.0197 0.0935,0.0149 0.059,-0.0098 0.01,0.0591 0.0344,0.0247 0.0393,0.0541 0.0344,0.0247 0.0344,0.0247 0.064,0.0197 0.182,3e-4 0.0935,0.0149 0.0393,0.0541 0.0344,0.0247 0.0344,0.0246 0.123,0.01 0.1526,0.0052 0.0934,0.0149 0.064,0.0197 0.0639,0.0198 0.0935,0.0149 0.0935,0.0149 0.123,0.01 0.2116,-0.0046 0.625,-0.073 0.4478,-0.0437 0.0886,-0.0146 0.01,0.059 0.0344,0.0247 0.0935,0.0149 0.945,-0.1562 0.1428,-0.0539 0.0246,-0.0344 0.0246,-0.0345 0.0838,-0.0441 0.3199,-0.0832 0.4086,-0.0979 0.1132,-0.0491 0.0247,-0.0344 0.0837,-0.0441 0.1723,-0.0589 0.3199,-0.0832 0.3495,-0.0881 0.3791,-0.093 0.3494,-0.088 0.32,-0.0833 0.2018,-0.0637 0.0838,-0.0441 0.0541,-0.0393 0.0837,-0.0442 0.1428,-0.0539 0.1723,-0.0589 0.2019,-0.0636 0.1427,-0.054 0.1133,-0.049 0.0837,-0.0442 0.0246,-0.0344 0.0247,-0.0344 0.0246,-0.0344 0.0542,-0.0393 0.0837,-0.0442 0.0542,-0.0393 0.0247,-0.0344 0.0197,-0.064 0.0247,-0.0344 0.0198,-0.0639 0.0541,-0.0393 0.1133,-0.049 0.0542,-0.0393 0.0246,-0.0344 0.0247,-0.0345 0.0246,-0.0344 0.0542,-0.0393 0.1132,-0.049 0.0838,-0.0442 0.1427,-0.0539 0.0542,-0.0393 0.0247,-0.0344 -0.0147,-0.0886 -0.0344,-0.0247 -0.005,-0.0295 0.0542,-0.0393 0.0247,-0.0344 0.0246,-0.0344 0.0247,-0.0344 0.0197,-0.064 0.005,-0.1525 0.0149,-0.0935 0.0246,-0.0344 0.0246,-0.0344 0.0247,-0.0344 0.01,-0.123 -0.1269,-0.7678 -0.049,-0.1133 -0.0393,-0.0542 -0.0591,0.0098 -0.01,-0.059 -0.0393,-0.0542 -0.0441,-0.0837 -0.0442,-0.0838 -0.049,-0.1132 -0.0491,-0.1132 -0.0393,-0.0542 -0.0344,-0.0247 -0.0591,0.0098 -0.01,-0.0591 -0.0442,-0.0837 -0.0442,-0.0837 -0.049,-0.1132 -0.0442,-0.0838 -0.0442,-0.0837 -0.0393,-0.0541 -0.0344,-0.0247 -0.0639,-0.0198 -0.0491,-0.1132 -0.0637,-0.2018 -0.0393,-0.0542 -0.0344,-0.0247 -0.0639,-0.0197 -0.0393,-0.0542 -0.0442,-0.0837 -0.0442,-0.0838 -0.0392,-0.0541 -0.0345,-0.0247 -0.0392,-0.0542 -0.0345,-0.0246 -0.0344,-0.0247 -0.0393,-0.0541 -0.0393,-0.0542 -0.0393,-0.0542 -0.0392,-0.0542 -0.0393,-0.0542 -0.0393,-0.0542 -0.0393,-0.0541 -0.064,-0.0198 -0.0344,-0.0247 -0.0344,-0.0246 -0.0442,-0.0837 -0.0392,-0.0542 -0.0442,-0.0837 -0.0393,-0.0542 -0.0393,-0.0542 -0.0639,-0.0198 -0.0591,0.0098 -0.01,-0.059 -0.0588,-0.1723 -0.0393,-0.0542 -0.0393,-0.0542 -0.123,-0.01 -0.0639,-0.0198 -0.0344,-0.0246 -0.0344,-0.0247 -0.0344,-0.0246 -0.0345,-0.0247 -0.0344,-0.0246 -0.0393,-0.0542 -0.0441,-0.0837 -0.0393,-0.0542 -0.0344,-0.0247 -0.0345,-0.0246 -0.0639,-0.0198 -0.0344,-0.0246 -0.0344,-0.0247 -0.0344,-0.0246 -0.064,-0.0198 -0.0344,-0.0247 -0.0639,-0.0197 -0.0344,-0.0247 -0.0345,-0.0246 -0.0639,-0.0198 -0.0344,-0.0247 -0.0344,-0.0246 -0.0344,-0.0247 -0.0344,-0.0246 -0.0344,-0.0246 -0.0345,-0.0247 -0.0441,-0.0837 -0.0393,-0.0542 -0.0344,-0.0246 -0.0344,-0.0247 -0.0935,-0.0149 -0.0935,-0.0149 -0.0935,-0.0149 -0.0639,-0.0197 -0.064,-0.0198 -0.049,-0.1132 -0.0639,-0.0198 -0.064,-0.0198 -0.0639,-0.0198 -0.0344,-0.0246 -0.0345,-0.0247 -0.0344,-0.0246 -0.0344,-0.0247 -0.0639,-0.0197 -0.0344,-0.0247 -0.0344,-0.0246 -0.0345,-0.0247 -0.0344,-0.0246 -0.0344,-0.0247 -0.0344,-0.0246 -0.0639,-0.0198 -0.0344,-0.0246 -0.0345,-0.0247 -0.0639,-0.0198 -0.0639,-0.0197 -0.0345,-0.0247 -0.0639,-0.0198 -0.0344,-0.0246 -0.0639,-0.0198 -0.064,-0.0197 -0.0639,-0.0198 -0.064,-0.0198 -0.0639,-0.0198 -0.064,-0.0197 -0.0934,-0.0149 -0.1526,-0.0051 -0.0393,-0.0542 -0.0639,-0.0198 -0.1525,-0.0051 -0.4183,0.0388 -0.1231,-0.01 -0.0344,-0.0247 -0.0344,-0.0246 -0.0639,-0.0198 -0.0935,-0.0149 -0.3248,0.0537 z"
         style="fill:#f07c00;fill-rule:evenodd;stroke-width:0.0360282;fill-opacity:1"
         id="path14" />
    </g>
  </g>
</svg>
