<?xml version="1.0" encoding="UTF-8" standalone="no"?>
<svg
   version="1.1"
   width="425.1969pt"
   height="35.731998pt"
   id="svg16"
   viewBox="0 0 425.1969 35.731996"
   sodipodi:docname="logo_AHV.svg"
   inkscape:version="1.4.2 (f4327f4, 2025-05-13)"
   xmlns:inkscape="http://www.inkscape.org/namespaces/inkscape"
   xmlns:sodipodi="http://sodipodi.sourceforge.net/DTD/sodipodi-0.dtd"
   xmlns="http://www.w3.org/2000/svg"
   xmlns:svg="http://www.w3.org/2000/svg">
  <defs
     id="defs16" />
  <sodipodi:namedview
     id="namedview16"
     pagecolor="#ffffff"
     bordercolor="#000000"
     borderopacity="0.25"
     inkscape:showpageshadow="2"
     inkscape:pageopacity="0.0"
     inkscape:pagecheckerboard="0"
     inkscape:deskcolor="#d1d1d1"
     inkscape:document-units="pt"
     inkscape:zoom="1.5751526"
     inkscape:cx="340.91935"
     inkscape:cy="36.5044"
     inkscape:window-width="1920"
     inkscape:window-height="991"
     inkscape:window-x="-9"
     inkscape:window-y="-9"
     inkscape:window-maximized="1"
     inkscape:current-layer="Layer1001" />
  <g
     id="Layer1000"
     transform="matrix(1.8558935,0,0,1.8558935,-597.78216,-59.497664)"
     style="stroke-width:0.538824">
    <path
       d="m 332.9077,33.3057 0.2067,-0.0342 0.0247,-0.0344 -0.005,-0.0296 -0.0344,-0.0246 -0.2067,0.0342 z"
       style="fill:#565757;fill-rule:evenodd;stroke-width:0.538824"
       id="path1" />
    <path
       d="m 332.6072,33.507 -0.1132,0.0491 -0.0837,0.0441 -0.0542,0.0393 -0.0542,0.0393 -0.0837,0.0442 -0.0542,0.0393 -0.1723,0.0588 -0.0246,0.0344 -0.0247,0.0344 -0.0246,0.0344 -0.0198,0.064 -0.0198,0.0639 -0.0246,0.0344 -0.0198,0.064 -0.0246,0.0344 -0.0247,0.0344 -0.0246,0.0344 -0.0542,0.0393 -0.0837,0.0442 -0.0247,0.0344 -0.0246,0.0344 -0.0247,0.0344 -0.0246,0.0344 -0.0198,0.0639 -0.0246,0.0345 -0.0198,0.0639 -0.0198,0.0639 -0.0197,0.064 -0.0149,0.0935 -0.0149,0.0934 -0.0149,0.0935 -0.01,0.123 0.005,0.2116 0.083,0.502 0.049,0.1133 0.0637,0.2018 0.2004,1.0287 0.2198,1.1468 0.0686,0.2314 0.0344,0.0247 0.0344,0.0246 0.0591,-0.0098 0.0147,0.0886 0.0539,0.1428 0.0442,0.0837 0.0344,0.0247 0.0393,0.0542 0.0344,0.0246 0.0393,0.0542 0.0344,0.0246 0.0344,0.0247 0.0344,0.0246 0.0344,0.0247 0.0639,0.0198 0.0345,0.0246 0.0344,0.0247 0.0639,0.0197 0.1525,0.0052 0.0935,0.0149 0.0393,0.0541 0.0344,0.0247 0.123,0.01 0.7383,-0.122 0.0837,-0.0442 0.0247,-0.0344 0.0246,-0.0344 0.0247,-0.0344 0.0837,-0.0442 0.0837,-0.0442 0.0837,-0.0441 0.1133,-0.0491 0.0837,-0.0442 0.0246,-0.0344 0.0247,-0.0344 0.0149,-0.0935 0.1132,-0.049 0.0542,-0.0393 0.0542,-0.0393 0.0246,-0.0344 0.0247,-0.0344 0.0246,-0.0344 0.0542,-0.0393 0.0246,-0.0344 0.0247,-0.0345 0.0246,-0.0344 0.0198,-0.0639 0.0247,-0.0344 0.0246,-0.0344 0.0247,-0.0344 0.0197,-0.064 0.0149,-0.0935 0.01,-0.123 0.0542,-0.0393 0.0247,-0.0344 0.0246,-0.0344 0.0198,-0.0639 0.0149,-0.0935 0.0149,-0.0935 0.0148,-0.0934 0.0149,-0.0935 0.0247,-0.0344 0.0246,-0.0344 0.0247,-0.0345 0.0246,-0.0344 0.0198,-0.0639 0.0198,-0.0639 0.0149,-0.0935 0.0149,-0.0935 0.0197,-0.0639 0.0198,-0.064 0.0198,-0.0639 0.0246,-0.0344 0.0247,-0.0344 0.0149,-0.0935 -0.01,-0.2411 -0.068,-0.5955 -0.0976,-0.5907 -0.1369,-0.6448 -0.0686,-0.2313 -0.0491,-0.1133 -0.0393,-0.0541 -0.0639,-0.0198 -0.0344,-0.0247 -0.0491,-0.1132 -0.0393,-0.0542 -0.0344,-0.0246 -0.0344,-0.0247 -0.0344,-0.0247 -0.0393,-0.0541 -0.0344,-0.0247 -0.0344,-0.0246 -0.0344,-0.0247 -0.0344,-0.0246 -0.0345,-0.0247 -0.0392,-0.0542 -0.0345,-0.0246 -0.0344,-0.0247 -0.0344,-0.0246 -0.0344,-0.0247 -0.0935,-0.0149 -0.0934,-0.0148 -0.1526,-0.0052 -0.182,-2e-4 -0.1821,-3e-4 -0.123,-0.01 -0.0935,-0.0149 -0.0344,-0.0246 -0.0344,-0.0247 -0.064,-0.0197 -0.0934,-0.0149 -0.6202,0.1025 z"
       style="fill:#565757;fill-rule:evenodd;stroke-width:0.538824"
       id="path2" />
    <path
       d="m 326.3516,34.5712 -0.0247,0.0344 -0.0246,0.0344 -0.0149,0.0935 0.0101,0.0628 -0.1824,-0.004 -0.2067,0.0342 -0.0247,0.0344 -0.0149,0.0935 -0.0149,0.0934 -0.0837,0.0442 -0.0837,0.0442 -0.0246,0.0344 -0.01,0.123 0.01,0.0591 -0.1181,0.0195 -0.0247,0.0344 -2e-4,0.1821 0.005,0.2116 -0.0197,0.0639 -0.0542,0.0393 0.0683,0.4134 0.093,0.3791 0.1222,0.5562 0.1613,0.7924 0.1467,0.7039 0.0491,0.1132 0.0344,0.0247 0.0935,0.0149 0.0588,0.1723 0.0637,0.2018 0.0392,0.0542 0.0886,-0.0147 0.01,0.0591 0.0442,0.0837 0.049,0.1133 0.054,0.1427 0.049,0.1133 0.0491,0.1132 0.0393,0.0542 0.0344,0.0246 0.0639,0.0198 0.0442,0.0837 0.0442,0.0837 0.0393,0.0542 0.0392,0.0542 0.0345,0.0247 0.0344,0.0246 0.0393,0.0542 0.0344,0.0246 0.0344,0.0247 0.0344,0.0246 0.0344,0.0247 0.0344,0.0246 0.0344,0.0247 0.0344,0.0246 0.064,0.0198 0.0344,0.0247 0.0344,0.0246 0.0344,0.0247 0.064,0.0197 0.0344,0.0247 0.0639,0.0198 0.0344,0.0246 0.064,0.0198 0.0639,0.0198 0.0935,0.0148 0.123,0.01 0.0639,0.0198 0.0491,0.1133 0.1476,-0.0244 0.0838,-0.0442 0.0837,-0.0442 0.1132,-0.0491 0.1133,-0.049 0.1132,-0.0491 0.0837,-0.0441 0.0837,-0.0442 0.0837,-0.0442 0.0837,-0.0441 0.0542,-0.0393 0.0198,-0.064 -0.01,-0.059 0.0591,-0.0098 0.0837,-0.0442 0.0542,-0.0393 0.0246,-0.0344 0.0247,-0.0344 0.0246,-0.0344 0.0247,-0.0344 0.0246,-0.0344 0.0247,-0.0344 0.0198,-0.064 0.0197,-0.0639 0.0198,-0.064 0.0198,-0.0639 0.0197,-0.0639 0.01,-0.123 0.0149,-0.0935 0.01,-0.123 0.0198,-0.064 0.0198,-0.0639 0.0246,-0.0344 0.0198,-0.064 -0.01,-0.2411 -0.0437,-0.4478 -0.2635,-1.5947 -0.0784,-0.2904 -0.0539,-0.1428 -0.0442,-0.0837 -0.0393,-0.0542 -0.0441,-0.0837 -0.0393,-0.0542 -0.0393,-0.0542 -0.0344,-0.0246 -0.0393,-0.0542 -0.0393,-0.0542 -0.0344,-0.0246 -0.0393,-0.0542 -0.0344,-0.0247 -0.0345,-0.0246 -0.0392,-0.0542 -0.0442,-0.0837 -0.0491,-0.1133 -0.049,-0.1132 -0.0491,-0.1133 -0.049,-0.1132 -0.0393,-0.0542 -0.0344,-0.0246 -0.0344,-0.0247 -0.064,-0.0197 -0.0344,-0.0247 -0.0639,-0.0198 -0.0344,-0.0246 -0.0345,-0.0247 -0.0344,-0.0246 -0.0344,-0.0247 -0.0344,-0.0246 -0.0344,-0.0247 -0.0344,-0.0246 -0.0344,-0.0247 -0.0344,-0.0246 -0.0344,-0.0247 -0.0345,-0.0246 -0.0393,-0.0542 -0.0344,-0.0246 -0.0344,-0.0247 -0.0393,-0.0542 -0.0393,-0.0542 -0.0639,-0.0197 -0.0935,-0.0149 -0.0935,-0.0149 -0.1525,-0.0051 -0.123,-0.0101 -0.123,-0.01 -0.0935,-0.0148 -0.0934,-0.0149 -0.064,-0.0198 -0.0935,-0.0149 -0.182,-2e-4 -0.1477,0.0244 z"
       style="fill:#565757;fill-rule:evenodd;stroke-width:0.538824"
       id="path3" />
    <path
       d="m 322.582,42.0505 0.059,-0.0098 0.0101,-0.123 -0.01,-0.059 -0.0491,-0.1133 -0.059,0.0098 z"
       style="fill:#565757;fill-rule:evenodd;stroke-width:0.538824"
       id="path4" />
    <path
       d="m 337.9745,38.0807 -0.1428,0.054 -0.1133,0.049 -0.0541,0.0393 -0.0542,0.0393 -0.0542,0.0393 -0.0246,0.0344 -0.0542,0.0393 -0.0542,0.0393 -0.0542,0.0393 -0.0542,0.0393 -0.1132,0.049 -0.0542,0.0393 -0.0247,0.0344 -0.0246,0.0344 -0.01,0.123 -0.01,0.123 -0.0198,0.064 -0.0198,0.0639 -0.0197,0.064 -0.0198,0.0639 -0.0246,0.0344 -0.0198,0.064 -0.0247,0.0344 -0.0246,0.0344 -0.0198,0.0639 -0.0246,0.0344 -0.0247,0.0344 -0.0542,0.0393 -0.01,-0.059 -0.0591,0.0097 -0.0198,0.064 -0.0246,0.0344 -0.0149,0.0935 -0.0149,0.0934 -0.005,0.1526 -3e-4,0.182 -0.0149,0.0935 -0.0246,0.0344 -0.0198,0.064 -0.0246,0.0344 -0.0247,0.0344 -0.0198,0.0639 -0.0246,0.0344 -0.0246,0.0345 -0.0198,0.0639 -0.0198,0.064 -0.01,0.1229 0.0193,0.3002 0.005,0.2116 -0.0149,0.0935 -0.0149,0.0935 -0.0197,0.0639 0.0146,0.0886 0.0591,-0.0097 0.0295,-0.0049 0.0539,0.1428 0.132,0.6152 0.0686,0.2314 0.054,0.1428 0.0441,0.0837 0.0393,0.0542 0.0442,0.0837 0.0344,0.0246 0.0393,0.0542 0.0344,0.0247 0.0344,0.0246 0.0393,0.0542 0.0344,0.0246 0.0442,0.0837 0.0393,0.0542 0.0393,0.0542 0.0393,0.0542 0.0344,0.0246 0.0344,0.0247 0.0344,0.0246 0.064,0.0198 0.0639,0.0198 0.0639,0.0197 0.0935,0.0149 0.0344,0.0247 0.064,0.0198 0.0393,0.0541 0.0344,0.0247 0.0344,0.0246 0.0639,0.0198 0.1526,0.0051 0.7973,-0.1317 0.2609,-0.0735 0.2018,-0.0637 0.1133,-0.049 0.0542,-0.0393 0.0246,-0.0344 -0.005,-0.0296 -0.0935,-0.0149 0.0247,-0.0344 0.0247,-0.0344 0.0541,-0.0393 0.0247,-0.0344 0.0542,-0.0393 0.0246,-0.0344 0.0198,-0.0639 0.0246,-0.0345 0.0149,-0.0934 0.0198,-0.064 0.0246,-0.0344 0.0247,-0.0344 0.0246,-0.0344 0.0247,-0.0344 0.0542,-0.0393 0.0246,-0.0344 0.0198,-0.064 0.005,-0.1525 0.0247,-0.0344 0.0542,-0.0393 0.0246,-0.0344 0.0247,-0.0344 0.01,-0.123 0.0197,-0.064 0.0198,-0.0639 0.0247,-0.0344 0.0246,-0.0344 0.0198,-0.064 0.0246,-0.0344 0.0247,-0.0344 0.0246,-0.0344 0.0198,-0.064 0.0246,-0.0344 0.0198,-0.0639 0.0247,-0.0344 0.0197,-0.064 0.0198,-0.0639 0.0149,-0.0935 0.0149,-0.0935 0.01,-0.123 0.005,-0.1525 0.0149,-0.0935 0.0198,-0.0639 0.0246,-0.0344 0.0198,-0.064 2e-4,-0.182 -0.2391,-1.447 -0.0637,-0.2019 -0.0344,-0.0246 -0.0344,-0.0247 -0.0591,0.0098 -0.0146,-0.0886 -0.0588,-0.1723 -0.0442,-0.0837 -0.0393,-0.0542 -0.0393,-0.0542 -0.0393,-0.0542 -0.0344,-0.0246 -0.0393,-0.0542 -0.0344,-0.0247 -0.0344,-0.0246 -0.064,-0.0198 -0.1181,0.0196 -0.01,-0.0591 -0.0442,-0.0837 -0.0344,-0.0247 -0.0344,-0.0246 -0.064,-0.0198 -0.0639,-0.0198 -0.123,-0.01 -0.123,-0.01 -0.2412,0.0095 -0.6201,0.1025 z"
       style="fill:#565757;fill-rule:evenodd;stroke-width:0.538824"
       id="path5" />
    <path
       d="m 323.4008,40.5803 -0.0837,0.0442 -0.0837,0.0442 -0.0542,0.0393 -0.0542,0.0392 -0.0197,0.064 -0.0542,0.0393 -0.0837,0.0442 -0.0542,0.0392 -0.0837,0.0442 -0.0837,0.0442 -0.0837,0.0442 -0.0247,0.0344 0.3124,1.89 0.0637,0.2018 0.0441,0.0837 0.0344,0.0246 0.0393,0.0542 0.0393,0.0542 0.0491,0.1133 0.049,0.1132 0.054,0.1428 0.0539,0.1428 0.0539,0.1427 0.0491,0.1133 0.0441,0.0837 0.0345,0.0246 0.0344,0.0247 0.0393,0.0542 0.0588,0.1723 0.0442,0.0837 0.0344,0.0246 0.0344,0.0247 0.0344,0.0246 0.0639,0.0198 0.0344,0.0246 0.0442,0.0838 0.0588,0.1723 0.0491,0.1132 0.0393,0.0542 0.0886,-0.0146 0.01,0.059 0.0344,0.0247 0.0442,0.0837 0.0393,0.0542 0.0442,0.0837 0.0393,0.0542 0.0344,0.0246 0.0344,0.0246 0.0344,0.0247 0.0639,0.0198 0.064,0.0197 0.0344,0.0247 0.0344,0.0246 0.0344,0.0247 0.0344,0.0246 0.064,0.0198 0.0344,0.0247 0.0344,0.0246 0.0344,0.0247 0.0344,0.0246 0.064,0.0198 0.0344,0.0246 0.0639,0.0198 0.0344,0.0247 0.064,0.0197 0.0639,0.0198 0.064,0.0198 0.123,0.01 0.182,2e-4 0.4725,-0.0781 0.2609,-0.0734 0.2314,-0.0686 0.1132,-0.049 0.0542,-0.0394 0.0542,-0.0392 0.0246,-0.0344 0.0247,-0.0345 0.0542,-0.0393 0.0542,-0.0392 0.0541,-0.0393 0.0247,-0.0344 0.0246,-0.0345 0.0198,-0.0639 0.0149,-0.0935 -0.01,-0.059 0.1182,-0.0196 0.0246,-0.0344 0.0149,-0.0934 3e-4,-0.1821 0.0246,-0.0344 0.0246,-0.0344 0.0149,-0.0935 0.005,-0.1525 -0.0437,-0.4479 -0.0391,-0.2362 -0.1027,-0.4381 -0.0491,-0.1133 -0.0344,-0.0246 -0.0344,-0.0247 -0.0344,-0.0246 -0.0539,-0.1428 -0.0491,-0.1132 -0.0344,-0.0247 -0.0344,-0.0246 -0.0591,0.0097 -0.01,-0.059 -0.0393,-0.0542 -0.0393,-0.0542 -0.0442,-0.0837 -0.0393,-0.0542 -0.0393,-0.0542 -0.0344,-0.0246 -0.0344,-0.0247 -0.059,0.0098 -0.01,-0.0591 -0.0393,-0.0542 -0.049,-0.1132 -0.0491,-0.1132 -0.0491,-0.1133 -0.049,-0.1132 -0.0393,-0.0542 -0.0393,-0.0542 -0.0591,0.0098 -0.01,-0.0591 -0.0393,-0.0542 -0.0393,-0.0542 -0.0442,-0.0837 -0.0393,-0.0541 -0.0393,-0.0542 -0.0392,-0.0542 -0.064,-0.0198 -0.0639,-0.0198 -0.0344,-0.0246 -0.064,-0.0198 -0.0344,-0.0246 -0.0344,-0.0247 -0.0344,-0.0246 -0.0344,-0.0247 -0.0344,-0.0246 -0.0344,-0.0247 -0.0345,-0.0246 -0.0344,-0.0247 -0.0639,-0.0197 -0.0344,-0.0247 -0.0344,-0.0246 -0.0345,-0.0247 -0.0344,-0.0246 -0.0344,-0.0247 -0.0344,-0.0246 -0.0344,-0.0247 -0.0344,-0.0246 -0.0344,-0.0247 -0.064,-0.0198 -0.0344,-0.0246 -0.0344,-0.0247 -0.0344,-0.0246 -0.0639,-0.0198 -0.064,-0.0198 -0.0639,-0.0197 -0.0393,-0.0542 -0.0344,-0.0247 -0.0345,-0.0246 -0.0934,-0.0149 -0.1821,-2e-4 -0.0393,-0.0542 -0.0393,-0.0542 -0.0639,-0.0198 -0.0344,-0.0246 -0.0935,-0.0149 -0.2116,0.0046 -0.1476,0.0244 z"
       style="fill:#565757;fill-rule:evenodd;stroke-width:0.538824"
       id="path6" />
    <path
       d="m 331.1596,41.452 0.1477,-0.0244 0.005,0.0295 -0.1476,0.0244 z m -0.1081,-0.1035 -0.0247,0.0344 -0.0246,0.0344 -0.0247,0.0344 -0.0837,0.0442 -0.2018,0.0637 -0.1132,0.0491 -0.0542,0.0393 -0.0542,0.0392 -0.0542,0.0393 -0.0246,0.0345 -0.0247,0.0344 -0.0542,0.0392 -0.0246,0.0345 -0.0247,0.0344 -0.0246,0.0344 -0.0247,0.0344 -0.0542,0.0393 -0.0246,0.0344 -0.0542,0.0393 -0.0837,0.0442 -0.1132,0.049 -0.0542,0.0393 -0.0247,0.0344 -0.0246,0.0344 -0.0198,0.064 -0.0198,0.0639 -0.1132,0.0491 -0.1428,0.0539 -0.0246,0.0344 -0.0542,0.0393 -0.0542,0.0393 -0.0591,0.0098 -0.0295,0.0048 -0.0246,0.0345 -0.0247,0.0344 -0.0198,0.0639 -0.0197,0.064 -0.0247,0.0344 -0.0198,0.0639 -0.0246,0.0344 -0.0542,0.0393 -0.0246,0.0344 -0.0542,0.0393 -0.1133,0.0491 -0.0541,0.0393 -0.0247,0.0344 -0.0246,0.0344 -0.0247,0.0344 -0.01,0.123 -0.0247,0.0344 -0.0246,0.0344 -0.0247,0.0344 -0.0197,0.064 -0.01,0.123 -3e-4,0.182 -0.005,0.1526 -3e-4,0.182 -2e-4,0.1821 -0.0149,0.0935 -0.0198,0.0639 -0.0246,0.0344 -0.0247,0.0344 -0.0149,0.0935 -0.005,0.1526 -0.0149,0.0934 -0.0197,0.064 -0.0247,0.0344 -0.0246,0.0344 -0.0247,0.0344 -0.0246,0.0344 -0.0542,0.0393 -0.0247,0.0344 -0.0246,0.0344 -0.0247,0.0344 -0.0246,0.0345 -0.0247,0.0344 -0.0246,0.0344 -0.0247,0.0344 -0.0246,0.0344 -0.0247,0.0344 -0.0246,0.0344 -0.0247,0.0344 -0.0246,0.0345 -0.0247,0.0344 -0.0197,0.0639 -0.0247,0.0344 -0.0198,0.064 -0.0149,0.0934 -0.0197,0.064 -0.0198,0.0639 -0.0198,0.064 -0.0837,0.0441 -0.0246,0.0344 -0.0247,0.0345 -0.0197,0.0639 -0.0198,0.0639 -0.0198,0.064 -0.0198,0.0639 -0.0197,0.064 -0.0247,0.0344 -0.0246,0.0344 -0.0198,0.0639 -0.0246,0.0344 -0.0247,0.0345 -0.0246,0.0344 -0.0247,0.0344 -0.0198,0.0639 -0.0197,0.064 -0.0198,0.0639 -0.0149,0.0935 -0.0149,0.0935 -0.0149,0.0934 -0.01,0.123 -0.0198,0.064 -0.0246,0.0344 -0.0198,0.0639 -0.01,0.123 0.0534,0.5069 0.0196,0.1182 0.1076,0.4676 0.0491,0.1132 0.0392,0.0542 0.0591,-0.0098 0.01,0.0591 0.0441,0.0837 0.0491,0.1133 0.049,0.1132 0.0491,0.1132 0.0442,0.0838 0.0344,0.0246 0.0344,0.0247 0.0886,-0.0147 0.01,0.0591 0.0441,0.0837 0.0393,0.0542 0.0344,0.0246 0.0344,0.0247 0.0393,0.0542 0.0344,0.0246 0.0345,0.0247 0.0344,0.0246 0.0393,0.0542 0.0344,0.0246 0.0344,0.0247 0.0393,0.0542 0.0344,0.0246 0.0344,0.0247 0.0344,0.0246 0.0344,0.0247 0.0344,0.0246 0.064,0.0198 0.0934,0.0149 0.0591,-0.0098 0.01,0.0591 0.0344,0.0246 0.0393,0.0542 0.0344,0.0247 0.0344,0.0246 0.0639,0.0198 0.1821,2e-4 0.0935,0.0149 0.0393,0.0542 0.0344,0.0246 0.0344,0.0247 0.123,0.01 0.1525,0.0051 0.0935,0.0149 0.0639,0.0198 0.064,0.0198 0.0935,0.0149 0.0934,0.0148 0.123,0.01 0.2116,-0.0046 0.6251,-0.0729 0.4478,-0.0437 0.0886,-0.0147 0.01,0.0591 0.0344,0.0247 0.0934,0.0148 0.945,-0.1561 0.1428,-0.054 0.0247,-0.0344 0.0246,-0.0344 0.0837,-0.0442 0.32,-0.0832 0.4085,-0.0978 0.1133,-0.0491 0.0246,-0.0344 0.0838,-0.0442 0.1723,-0.0588 0.3199,-0.0832 0.3495,-0.0881 0.379,-0.093 0.3495,-0.0881 0.32,-0.0832 0.2018,-0.0637 0.0837,-0.0442 0.0542,-0.0393 0.0837,-0.0441 0.1428,-0.054 0.1723,-0.0588 0.2018,-0.0637 0.1428,-0.0539 0.1132,-0.0491 0.0838,-0.0441 0.0246,-0.0345 0.0247,-0.0344 0.0246,-0.0344 0.0542,-0.0393 0.0837,-0.0441 0.0542,-0.0393 0.0246,-0.0344 0.0198,-0.064 0.0247,-0.0344 0.0197,-0.0639 0.0542,-0.0393 0.1133,-0.0491 0.0541,-0.0393 0.0247,-0.0344 0.0246,-0.0344 0.0247,-0.0344 0.0542,-0.0393 0.1132,-0.049 0.0837,-0.0442 0.1428,-0.054 0.0542,-0.0393 0.0246,-0.0344 -0.0146,-0.0886 -0.0344,-0.0246 -0.005,-0.0295 0.0542,-0.0393 0.0246,-0.0344 0.0247,-0.0345 0.0246,-0.0344 0.0198,-0.0639 0.005,-0.1525 0.0149,-0.0935 0.0247,-0.0344 0.0246,-0.0344 0.0247,-0.0344 0.01,-0.1231 -0.1269,-0.7678 -0.0491,-0.1132 -0.0393,-0.0542 -0.059,0.0098 -0.01,-0.0591 -0.0393,-0.0542 -0.0442,-0.0837 -0.0441,-0.0837 -0.0491,-0.1132 -0.049,-0.1133 -0.0393,-0.0542 -0.0344,-0.0246 -0.0591,0.0097 -0.01,-0.059 -0.0441,-0.0837 -0.0442,-0.0837 -0.0491,-0.1133 -0.0441,-0.0837 -0.0442,-0.0837 -0.0393,-0.0542 -0.0344,-0.0246 -0.064,-0.0198 -0.049,-0.1133 -0.0637,-0.2018 -0.0393,-0.0542 -0.0344,-0.0246 -0.0639,-0.0198 -0.0393,-0.0542 -0.0442,-0.0837 -0.0442,-0.0837 -0.0393,-0.0542 -0.0344,-0.0246 -0.0393,-0.0542 -0.0344,-0.0246 -0.0344,-0.0247 -0.0393,-0.0542 -0.0393,-0.0542 -0.0393,-0.0541 -0.0393,-0.0542 -0.0393,-0.0542 -0.0393,-0.0542 -0.0393,-0.0542 -0.0639,-0.0197 -0.0344,-0.0247 -0.0344,-0.0247 -0.0442,-0.0837 -0.0393,-0.0541 -0.0441,-0.0837 -0.0393,-0.0542 -0.0393,-0.0542 -0.064,-0.0198 -0.059,0.0098 -0.01,-0.0591 -0.0588,-0.1723 -0.0393,-0.0542 -0.0393,-0.0541 -0.123,-0.0101 -0.064,-0.0197 -0.0344,-0.0247 -0.0344,-0.0246 -0.0344,-0.0247 -0.0344,-0.0246 -0.0344,-0.0247 -0.0393,-0.0542 -0.0442,-0.0837 -0.0393,-0.0542 -0.0344,-0.0246 -0.0344,-0.0247 -0.0639,-0.0197 -0.0344,-0.0247 -0.0345,-0.0246 -0.0344,-0.0247 -0.0639,-0.0197 -0.0344,-0.0247 -0.064,-0.0198 -0.0344,-0.0246 -0.0344,-0.0247 -0.0639,-0.0197 -0.0344,-0.0247 -0.0345,-0.0246 -0.0344,-0.0247 -0.0344,-0.0246 -0.0344,-0.0247 -0.0344,-0.0246 -0.0442,-0.0837 -0.0393,-0.0542 -0.0344,-0.0247 -0.0344,-0.0246 -0.0935,-0.0149 -0.0934,-0.0149 -0.0935,-0.0149 -0.0639,-0.0198 -0.064,-0.0197 -0.049,-0.1133 -0.064,-0.0198 -0.0639,-0.0197 -0.064,-0.0198 -0.0344,-0.0246 -0.0344,-0.0247 -0.0344,-0.0246 -0.0344,-0.0247 -0.064,-0.0198 -0.0344,-0.0246 -0.0344,-0.0247 -0.0344,-0.0246 -0.0344,-0.0247 -0.0344,-0.0246 -0.0344,-0.0247 -0.064,-0.0197 -0.0344,-0.0247 -0.0344,-0.0246 -0.0639,-0.0198 -0.064,-0.0198 -0.0344,-0.0246 -0.0639,-0.0198 -0.0344,-0.0246 -0.064,-0.0198 -0.0639,-0.0198 -0.064,-0.0198 -0.0639,-0.0197 -0.064,-0.0198 -0.0639,-0.0198 -0.0935,-0.0149 -0.1525,-0.0051 -0.0393,-0.0542 -0.0639,-0.0197 -0.1526,-0.0052 -0.4183,0.0388 -0.123,-0.01 -0.0344,-0.0246 -0.0344,-0.0247 -0.0639,-0.0197 -0.0935,-0.0149 -0.3249,0.0536 z"
       style="fill:#565757;fill-rule:evenodd;stroke-width:0.538824"
       id="path7" />
    <path
       d="m 332.4741,32.851 0.2067,-0.0342 0.0247,-0.0344 -0.005,-0.0295 -0.0344,-0.0247 -0.2067,0.0342 z"
       style="fill:#3b3b3b;fill-rule:evenodd;stroke-width:0.538824"
       id="path8" />
    <path
       d="m 332.1737,33.0523 -0.1133,0.0491 -0.0837,0.0442 -0.0542,0.0393 -0.0541,0.0392 -0.0837,0.0442 -0.0542,0.0393 -0.1723,0.0588 -0.0247,0.0344 -0.0246,0.0344 -0.0247,0.0345 -0.0198,0.0639 -0.0197,0.0639 -0.0247,0.0345 -0.0197,0.0639 -0.0247,0.0344 -0.0246,0.0344 -0.0247,0.0344 -0.0542,0.0393 -0.0837,0.0442 -0.0246,0.0344 -0.0247,0.0344 -0.0246,0.0344 -0.0247,0.0344 -0.0198,0.064 -0.0246,0.0344 -0.0198,0.0639 -0.0197,0.064 -0.0198,0.0639 -0.0149,0.0935 -0.0149,0.0935 -0.0149,0.0934 -0.01,0.1231 0.005,0.2116 0.083,0.502 0.0491,0.1132 0.0637,0.2019 0.2003,1.0287 0.2199,1.1468 0.0686,0.2313 0.0344,0.0247 0.0344,0.0246 0.059,-0.0097 0.0147,0.0886 0.0539,0.1427 0.0442,0.0838 0.0344,0.0246 0.0393,0.0542 0.0344,0.0246 0.0393,0.0542 0.0344,0.0247 0.0344,0.0246 0.0344,0.0247 0.0344,0.0246 0.064,0.0198 0.0344,0.0247 0.0344,0.0246 0.0639,0.0198 0.1526,0.0051 0.0935,0.0149 0.0392,0.0542 0.0345,0.0246 0.123,0.01 0.7382,-0.122 0.0838,-0.0442 0.0246,-0.0344 0.0247,-0.0344 0.0246,-0.0344 0.0837,-0.0442 0.0837,-0.0441 0.0837,-0.0442 0.1133,-0.0491 0.0837,-0.0441 0.0247,-0.0345 0.0246,-0.0344 0.0149,-0.0934 0.1132,-0.0491 0.0542,-0.0393 0.0542,-0.0393 0.0246,-0.0344 0.0247,-0.0344 0.0246,-0.0344 0.0542,-0.0393 0.0247,-0.0344 0.0246,-0.0344 0.0247,-0.0344 0.0197,-0.064 0.0247,-0.0344 0.0247,-0.0344 0.0246,-0.0344 0.0198,-0.064 0.0149,-0.0934 0.01,-0.123 0.0541,-0.0393 0.0247,-0.0344 0.0246,-0.0344 0.0198,-0.064 0.0149,-0.0935 0.0149,-0.0934 0.0149,-0.0935 0.0149,-0.0935 0.0246,-0.0344 0.0247,-0.0344 0.0246,-0.0344 0.0247,-0.0344 0.0198,-0.064 0.0197,-0.0639 0.0149,-0.0935 0.0149,-0.0935 0.0198,-0.0639 0.0197,-0.0639 0.0198,-0.064 0.0246,-0.0344 0.0247,-0.0344 0.0149,-0.0935 -0.01,-0.2411 -0.0681,-0.5955 -0.0976,-0.5906 -0.1369,-0.6448 -0.0686,-0.2314 -0.049,-0.1132 -0.0393,-0.0542 -0.064,-0.0198 -0.0344,-0.0246 -0.0491,-0.1133 -0.0392,-0.0542 -0.0344,-0.0246 -0.0345,-0.0247 -0.0344,-0.0246 -0.0393,-0.0542 -0.0344,-0.0247 -0.0344,-0.0246 -0.0344,-0.0246 -0.0344,-0.0247 -0.0344,-0.0246 -0.0393,-0.0542 -0.0344,-0.0247 -0.0344,-0.0246 -0.0345,-0.0247 -0.0344,-0.0246 -0.0934,-0.0149 -0.0935,-0.0149 -0.1525,-0.0051 -0.1821,-3e-4 -0.1821,-2e-4 -0.123,-0.01 -0.0935,-0.0149 -0.0344,-0.0247 -0.0344,-0.0246 -0.0639,-0.0198 -0.0935,-0.0149 -0.6201,0.1025 z"
       style="fill:#3b3b3b;fill-rule:evenodd;stroke-width:0.538824"
       id="path9" />
    <path
       d="m 325.918,34.1165 -0.0246,0.0345 -0.0247,0.0344 -0.0149,0.0934 0.0101,0.0629 -0.1824,-0.004 -0.2067,0.0341 -0.0247,0.0344 -0.0148,0.0935 -0.0149,0.0935 -0.0837,0.0442 -0.0838,0.0441 -0.0246,0.0344 -0.01,0.123 0.01,0.0591 -0.1181,0.0195 -0.0246,0.0344 -3e-4,0.1821 0.005,0.2116 -0.0198,0.0639 -0.0542,0.0393 0.0683,0.4135 0.093,0.379 0.1223,0.5562 0.1613,0.7925 0.1467,0.7038 0.049,0.1133 0.0344,0.0246 0.0935,0.0149 0.0588,0.1723 0.0637,0.2018 0.0393,0.0542 0.0886,-0.0146 0.01,0.059 0.0442,0.0838 0.0491,0.1132 0.0539,0.1428 0.0491,0.1132 0.049,0.1133 0.0393,0.0541 0.0344,0.0247 0.0639,0.0198 0.0442,0.0837 0.0442,0.0837 0.0393,0.0542 0.0393,0.0541 0.0344,0.0247 0.0344,0.0246 0.0393,0.0542 0.0344,0.0247 0.0344,0.0246 0.0344,0.0247 0.0344,0.0246 0.0345,0.0247 0.0344,0.0246 0.0344,0.0247 0.0639,0.0197 0.0344,0.0247 0.0344,0.0247 0.0345,0.0246 0.0639,0.0198 0.0344,0.0246 0.064,0.0198 0.0344,0.0246 0.0639,0.0198 0.0639,0.0198 0.0935,0.0149 0.123,0.01 0.064,0.0197 0.049,0.1133 0.1477,-0.0244 0.0837,-0.0442 0.0837,-0.0442 0.1132,-0.049 0.1133,-0.0491 0.1132,-0.049 0.0837,-0.0442 0.0838,-0.0442 0.0837,-0.0441 0.0837,-0.0442 0.0542,-0.0393 0.0197,-0.0639 -0.01,-0.0591 0.059,-0.0098 0.0837,-0.0441 0.0542,-0.0393 0.0247,-0.0344 0.0246,-0.0345 0.0247,-0.0344 0.0246,-0.0344 0.0247,-0.0344 0.0246,-0.0344 0.0198,-0.0639 0.0198,-0.064 0.0197,-0.0639 0.0198,-0.064 0.0198,-0.0639 0.01,-0.123 0.0149,-0.0935 0.01,-0.123 0.0197,-0.0639 0.0198,-0.064 0.0247,-0.0344 0.0197,-0.0639 -0.01,-0.2412 -0.0437,-0.4478 -0.2635,-1.5947 -0.0783,-0.2904 -0.054,-0.1428 -0.0441,-0.0837 -0.0393,-0.0542 -0.0442,-0.0837 -0.0393,-0.0542 -0.0393,-0.0541 -0.0344,-0.0247 -0.0393,-0.0542 -0.0393,-0.0542 -0.0344,-0.0246 -0.0393,-0.0542 -0.0344,-0.0246 -0.0344,-0.0247 -0.0393,-0.0542 -0.0442,-0.0837 -0.049,-0.1132 -0.0491,-0.1133 -0.049,-0.1132 -0.0491,-0.1133 -0.0393,-0.0541 -0.0344,-0.0247 -0.0344,-0.0246 -0.0639,-0.0198 -0.0345,-0.0247 -0.0639,-0.0197 -0.0344,-0.0247 -0.0344,-0.0246 -0.0344,-0.0247 -0.0345,-0.0246 -0.0344,-0.0247 -0.0344,-0.0246 -0.0344,-0.0247 -0.0344,-0.0246 -0.0344,-0.0247 -0.0344,-0.0246 -0.0344,-0.0247 -0.0393,-0.0542 -0.0344,-0.0246 -0.0344,-0.0247 -0.0393,-0.0541 -0.0393,-0.0542 -0.064,-0.0198 -0.0934,-0.0149 -0.0935,-0.0149 -0.1526,-0.0051 -0.123,-0.01 -0.123,-0.01 -0.0934,-0.0149 -0.0935,-0.0149 -0.064,-0.0198 -0.0934,-0.0149 -0.1821,-2e-4 -0.1477,0.0244 z"
       style="fill:#3b3b3b;fill-rule:evenodd;stroke-width:0.538824"
       id="path10" />
    <path
       d="m 322.1484,41.5958 0.0591,-0.0097 0.01,-0.123 -0.01,-0.0591 -0.049,-0.1132 -0.0591,0.0097 z"
       style="fill:#3b3b3b;fill-rule:evenodd;stroke-width:0.538824"
       id="path11" />
    <path
       d="m 337.5409,37.626 -0.1428,0.054 -0.1132,0.049 -0.0542,0.0393 -0.0542,0.0393 -0.0542,0.0393 -0.0246,0.0344 -0.0542,0.0393 -0.0542,0.0393 -0.0542,0.0393 -0.0541,0.0393 -0.1133,0.0491 -0.0542,0.0392 -0.0246,0.0345 -0.0247,0.0344 -0.01,0.123 -0.01,0.123 -0.0198,0.0639 -0.0197,0.064 -0.0198,0.0639 -0.0198,0.0639 -0.0246,0.0345 -0.0198,0.0639 -0.0246,0.0344 -0.0247,0.0344 -0.0198,0.064 -0.0246,0.0344 -0.0247,0.0344 -0.0541,0.0393 -0.01,-0.0591 -0.0591,0.0098 -0.0197,0.0639 -0.0247,0.0344 -0.0149,0.0935 -0.0149,0.0935 -0.005,0.1525 -2e-4,0.1821 -0.0149,0.0935 -0.0247,0.0344 -0.0197,0.0639 -0.0247,0.0344 -0.0246,0.0344 -0.0198,0.064 -0.0247,0.0344 -0.0246,0.0344 -0.0198,0.0639 -0.0198,0.064 -0.01,0.123 0.0193,0.3002 0.005,0.2116 -0.0148,0.0934 -0.0149,0.0935 -0.0198,0.064 0.0146,0.0886 0.0591,-0.0098 0.0295,-0.0049 0.054,0.1428 0.132,0.6153 0.0686,0.2313 0.0539,0.1428 0.0442,0.0837 0.0393,0.0542 0.0441,0.0837 0.0344,0.0247 0.0393,0.0541 0.0344,0.0247 0.0345,0.0246 0.0393,0.0542 0.0344,0.0247 0.0441,0.0837 0.0393,0.0542 0.0393,0.0541 0.0393,0.0542 0.0344,0.0247 0.0344,0.0246 0.0344,0.0247 0.064,0.0197 0.0639,0.0198 0.064,0.0198 0.0935,0.0149 0.0344,0.0246 0.0639,0.0198 0.0393,0.0542 0.0344,0.0246 0.0344,0.0247 0.064,0.0197 0.1525,0.0052 0.7973,-0.1318 0.2609,-0.0735 0.2019,-0.0636 0.1132,-0.0491 0.0542,-0.0393 0.0246,-0.0344 -0.005,-0.0295 -0.0935,-0.0149 0.0246,-0.0344 0.0247,-0.0345 0.0542,-0.0392 0.0246,-0.0345 0.0542,-0.0393 0.0246,-0.0344 0.0198,-0.0639 0.0247,-0.0344 0.0149,-0.0935 0.0197,-0.0639 0.0247,-0.0344 0.0246,-0.0345 0.0247,-0.0344 0.0246,-0.0344 0.0542,-0.0393 0.0247,-0.0344 0.0197,-0.0639 0.005,-0.1526 0.0246,-0.0344 0.0542,-0.0393 0.0246,-0.0344 0.0247,-0.0344 0.01,-0.123 0.0198,-0.0639 0.0197,-0.064 0.0247,-0.0344 0.0246,-0.0344 0.0198,-0.0639 0.0247,-0.0345 0.0246,-0.0344 0.0247,-0.0344 0.0197,-0.0639 0.0247,-0.0344 0.0197,-0.064 0.0247,-0.0344 0.0198,-0.0639 0.0197,-0.064 0.0149,-0.0934 0.0149,-0.0935 0.01,-0.123 0.005,-0.1526 0.0148,-0.0934 0.0198,-0.064 0.0247,-0.0344 0.0197,-0.0639 3e-4,-0.1821 -0.2392,-1.447 -0.0637,-0.2018 -0.0344,-0.0247 -0.0344,-0.0246 -0.059,0.0097 -0.0147,-0.0886 -0.0588,-0.1723 -0.0442,-0.0837 -0.0393,-0.0542 -0.0393,-0.0541 -0.0392,-0.0542 -0.0345,-0.0247 -0.0393,-0.0542 -0.0344,-0.0246 -0.0344,-0.0247 -0.0639,-0.0197 -0.1181,0.0195 -0.01,-0.0591 -0.0442,-0.0837 -0.0344,-0.0246 -0.0344,-0.0247 -0.0639,-0.0198 -0.064,-0.0197 -0.123,-0.01 -0.123,-0.0101 -0.2411,0.0096 -0.6202,0.1025 z"
       style="fill:#3b3b3b;fill-rule:evenodd;stroke-width:0.538824"
       id="path12" />
    <path
       d="m 322.9672,40.1257 -0.0837,0.0441 -0.0837,0.0442 -0.0542,0.0393 -0.0541,0.0393 -0.0198,0.0639 -0.0542,0.0393 -0.0837,0.0442 -0.0542,0.0393 -0.0837,0.0441 -0.0837,0.0442 -0.0837,0.0442 -0.0247,0.0344 0.3124,1.89 0.0637,0.2018 0.0442,0.0837 0.0344,0.0247 0.0393,0.0542 0.0393,0.0541 0.049,0.1133 0.0491,0.1132 0.0539,0.1428 0.0539,0.1428 0.054,0.1428 0.049,0.1132 0.0442,0.0837 0.0344,0.0247 0.0344,0.0246 0.0393,0.0542 0.0588,0.1723 0.0442,0.0837 0.0344,0.0247 0.0344,0.0246 0.0344,0.0247 0.064,0.0197 0.0344,0.0247 0.0441,0.0837 0.0589,0.1723 0.049,0.1132 0.0393,0.0542 0.0886,-0.0146 0.01,0.059 0.0344,0.0247 0.0441,0.0837 0.0393,0.0542 0.0442,0.0837 0.0393,0.0542 0.0344,0.0246 0.0344,0.0247 0.0344,0.0246 0.064,0.0198 0.0639,0.0198 0.0344,0.0246 0.0344,0.0247 0.0345,0.0246 0.0344,0.0247 0.0639,0.0197 0.0344,0.0247 0.0344,0.0247 0.0344,0.0246 0.0345,0.0246 0.0639,0.0198 0.0344,0.0247 0.064,0.0197 0.0344,0.0247 0.0639,0.0198 0.064,0.0197 0.0639,0.0198 0.123,0.01 0.1821,3e-4 0.4725,-0.0781 0.2609,-0.0735 0.2313,-0.0686 0.1133,-0.049 0.0541,-0.0393 0.0542,-0.0393 0.0247,-0.0344 0.0246,-0.0344 0.0542,-0.0393 0.0542,-0.0393 0.0542,-0.0393 0.0246,-0.0344 0.0247,-0.0344 0.0197,-0.064 0.0149,-0.0934 -0.01,-0.0591 0.1181,-0.0195 0.0246,-0.0344 0.0149,-0.0935 3e-4,-0.1821 0.0246,-0.0344 0.0247,-0.0344 0.0149,-0.0935 0.005,-0.1525 -0.0437,-0.4478 -0.039,-0.2363 -0.1028,-0.4381 -0.049,-0.1132 -0.0344,-0.0247 -0.0344,-0.0246 -0.0344,-0.0247 -0.054,-0.1427 -0.049,-0.1133 -0.0344,-0.0246 -0.0345,-0.0247 -0.059,0.0098 -0.01,-0.0591 -0.0393,-0.0542 -0.0393,-0.0542 -0.0441,-0.0837 -0.0393,-0.0541 -0.0393,-0.0542 -0.0344,-0.0247 -0.0344,-0.0246 -0.0591,0.0097 -0.01,-0.059 -0.0393,-0.0542 -0.049,-0.1133 -0.0491,-0.1132 -0.049,-0.1132 -0.0491,-0.1133 -0.0393,-0.0542 -0.0393,-0.0542 -0.059,0.0098 -0.01,-0.059 -0.0393,-0.0542 -0.0393,-0.0542 -0.0441,-0.0837 -0.0393,-0.0542 -0.0393,-0.0542 -0.0393,-0.0542 -0.064,-0.0197 -0.0639,-0.0198 -0.0344,-0.0247 -0.064,-0.0197 -0.0344,-0.0247 -0.0344,-0.0246 -0.0344,-0.0247 -0.0344,-0.0246 -0.0344,-0.0247 -0.0344,-0.0246 -0.0344,-0.0247 -0.0344,-0.0246 -0.064,-0.0198 -0.0344,-0.0246 -0.0344,-0.0247 -0.0344,-0.0247 -0.0344,-0.0246 -0.0344,-0.0247 -0.0345,-0.0246 -0.0344,-0.0247 -0.0344,-0.0246 -0.0344,-0.0247 -0.0639,-0.0197 -0.0344,-0.0247 -0.0345,-0.0246 -0.0344,-0.0247 -0.0639,-0.0197 -0.0639,-0.0198 -0.064,-0.0198 -0.0393,-0.0542 -0.0344,-0.0246 -0.0344,-0.0247 -0.0935,-0.0149 -0.1821,-2e-4 -0.0392,-0.0542 -0.0393,-0.0542 -0.064,-0.0197 -0.0344,-0.0247 -0.0935,-0.0149 -0.2116,0.0047 -0.1476,0.0244 z"
       style="fill:#3b3b3b;fill-rule:evenodd;stroke-width:0.538824"
       id="path13" />
    <path
       d="m 330.726,40.9973 0.1477,-0.0244 0.005,0.0296 -0.1477,0.0244 z m -0.1081,-0.1035 -0.0246,0.0345 -0.0247,0.0344 -0.0246,0.0344 -0.0837,0.0442 -0.2019,0.0636 -0.1132,0.0491 -0.0542,0.0393 -0.0542,0.0393 -0.0542,0.0393 -0.0246,0.0344 -0.0247,0.0344 -0.0542,0.0393 -0.0246,0.0344 -0.0246,0.0344 -0.0247,0.0344 -0.0247,0.0344 -0.0541,0.0393 -0.0247,0.0344 -0.0542,0.0393 -0.0837,0.0442 -0.1132,0.0491 -0.0542,0.0393 -0.0246,0.0344 -0.0247,0.0344 -0.0198,0.0639 -0.0197,0.064 -0.1133,0.049 -0.1428,0.054 -0.0246,0.0344 -0.0542,0.0392 -0.0542,0.0393 -0.059,0.0098 -0.0296,0.0049 -0.0246,0.0344 -0.0247,0.0344 -0.0197,0.0639 -0.0198,0.064 -0.0247,0.0344 -0.0197,0.0639 -0.0247,0.0345 -0.0542,0.0393 -0.0246,0.0344 -0.0542,0.0392 -0.1132,0.0491 -0.0542,0.0393 -0.0247,0.0344 -0.0246,0.0344 -0.0247,0.0344 -0.01,0.123 -0.0246,0.0345 -0.0247,0.0344 -0.0246,0.0344 -0.0198,0.0639 -0.01,0.123 -2e-4,0.1821 -0.005,0.1525 -2e-4,0.1821 -3e-4,0.1821 -0.0149,0.0934 -0.0197,0.064 -0.0247,0.0344 -0.0246,0.0344 -0.0149,0.0935 -0.005,0.1525 -0.0149,0.0935 -0.0198,0.0639 -0.0247,0.0344 -0.0246,0.0344 -0.0247,0.0344 -0.0246,0.0345 -0.0542,0.0392 -0.0246,0.0345 -0.0247,0.0344 -0.0246,0.0344 -0.0247,0.0344 -0.0246,0.0344 -0.0247,0.0344 -0.0246,0.0344 -0.0247,0.0344 -0.0246,0.0345 -0.0247,0.0344 -0.0246,0.0344 -0.0247,0.0344 -0.0246,0.0344 -0.0198,0.0639 -0.0247,0.0345 -0.0197,0.0639 -0.0149,0.0935 -0.0198,0.0639 -0.0198,0.064 -0.0197,0.0639 -0.0837,0.0442 -0.0247,0.0344 -0.0246,0.0344 -0.0198,0.0639 -0.0198,0.064 -0.0198,0.0639 -0.0197,0.064 -0.0198,0.0639 -0.0246,0.0344 -0.0247,0.0344 -0.0198,0.064 -0.0246,0.0344 -0.0247,0.0344 -0.0246,0.0344 -0.0247,0.0344 -0.0197,0.064 -0.0198,0.0639 -0.0198,0.0639 -0.0149,0.0935 -0.0149,0.0935 -0.0148,0.0935 -0.01,0.123 -0.0198,0.0639 -0.0247,0.0344 -0.0197,0.064 -0.01,0.123 0.0534,0.5069 0.0195,0.1181 0.1076,0.4676 0.0491,0.1133 0.0393,0.0541 0.059,-0.0097 0.01,0.059 0.0442,0.0837 0.049,0.1133 0.0491,0.1132 0.049,0.1133 0.0442,0.0837 0.0344,0.0246 0.0344,0.0247 0.0886,-0.0146 0.01,0.059 0.0442,0.0837 0.0392,0.0542 0.0345,0.0247 0.0344,0.0246 0.0393,0.0542 0.0344,0.0246 0.0344,0.0247 0.0344,0.0246 0.0393,0.0542 0.0344,0.0247 0.0344,0.0246 0.0393,0.0542 0.0344,0.0247 0.0344,0.0246 0.0344,0.0247 0.0345,0.0246 0.0344,0.0247 0.0639,0.0197 0.0935,0.0149 0.059,-0.0098 0.01,0.0591 0.0344,0.0247 0.0393,0.0541 0.0344,0.0247 0.0344,0.0247 0.064,0.0197 0.182,3e-4 0.0935,0.0149 0.0393,0.0541 0.0344,0.0247 0.0344,0.0246 0.123,0.01 0.1526,0.0052 0.0934,0.0149 0.064,0.0197 0.0639,0.0198 0.0935,0.0149 0.0935,0.0149 0.123,0.01 0.2116,-0.0046 0.625,-0.073 0.4478,-0.0437 0.0886,-0.0146 0.01,0.059 0.0344,0.0247 0.0935,0.0149 0.945,-0.1562 0.1428,-0.0539 0.0246,-0.0344 0.0246,-0.0345 0.0838,-0.0441 0.3199,-0.0832 0.4086,-0.0979 0.1132,-0.0491 0.0247,-0.0344 0.0837,-0.0441 0.1723,-0.0589 0.3199,-0.0832 0.3495,-0.0881 0.3791,-0.093 0.3494,-0.088 0.32,-0.0833 0.2018,-0.0637 0.0838,-0.0441 0.0541,-0.0393 0.0837,-0.0442 0.1428,-0.0539 0.1723,-0.0589 0.2019,-0.0636 0.1427,-0.054 0.1133,-0.049 0.0837,-0.0442 0.0246,-0.0344 0.0247,-0.0344 0.0246,-0.0344 0.0542,-0.0393 0.0837,-0.0442 0.0542,-0.0393 0.0247,-0.0344 0.0197,-0.064 0.0247,-0.0344 0.0198,-0.0639 0.0541,-0.0393 0.1133,-0.049 0.0542,-0.0393 0.0246,-0.0344 0.0247,-0.0345 0.0246,-0.0344 0.0542,-0.0393 0.1132,-0.049 0.0838,-0.0442 0.1427,-0.0539 0.0542,-0.0393 0.0247,-0.0344 -0.0147,-0.0886 -0.0344,-0.0247 -0.005,-0.0295 0.0542,-0.0393 0.0247,-0.0344 0.0246,-0.0344 0.0247,-0.0344 0.0197,-0.064 0.005,-0.1525 0.0149,-0.0935 0.0246,-0.0344 0.0246,-0.0344 0.0247,-0.0344 0.01,-0.123 -0.1269,-0.7678 -0.049,-0.1133 -0.0393,-0.0542 -0.0591,0.0098 -0.01,-0.059 -0.0393,-0.0542 -0.0441,-0.0837 -0.0442,-0.0838 -0.049,-0.1132 -0.0491,-0.1132 -0.0393,-0.0542 -0.0344,-0.0247 -0.0591,0.0098 -0.01,-0.0591 -0.0442,-0.0837 -0.0442,-0.0837 -0.049,-0.1132 -0.0442,-0.0838 -0.0442,-0.0837 -0.0393,-0.0541 -0.0344,-0.0247 -0.0639,-0.0198 -0.0491,-0.1132 -0.0637,-0.2018 -0.0393,-0.0542 -0.0344,-0.0247 -0.0639,-0.0197 -0.0393,-0.0542 -0.0442,-0.0837 -0.0442,-0.0838 -0.0392,-0.0541 -0.0345,-0.0247 -0.0392,-0.0542 -0.0345,-0.0246 -0.0344,-0.0247 -0.0393,-0.0541 -0.0393,-0.0542 -0.0393,-0.0542 -0.0392,-0.0542 -0.0393,-0.0542 -0.0393,-0.0542 -0.0393,-0.0541 -0.064,-0.0198 -0.0344,-0.0247 -0.0344,-0.0246 -0.0442,-0.0837 -0.0392,-0.0542 -0.0442,-0.0837 -0.0393,-0.0542 -0.0393,-0.0542 -0.0639,-0.0198 -0.0591,0.0098 -0.01,-0.059 -0.0588,-0.1723 -0.0393,-0.0542 -0.0393,-0.0542 -0.123,-0.01 -0.0639,-0.0198 -0.0344,-0.0246 -0.0344,-0.0247 -0.0344,-0.0246 -0.0345,-0.0247 -0.0344,-0.0246 -0.0393,-0.0542 -0.0441,-0.0837 -0.0393,-0.0542 -0.0344,-0.0247 -0.0345,-0.0246 -0.0639,-0.0198 -0.0344,-0.0246 -0.0344,-0.0247 -0.0344,-0.0246 -0.064,-0.0198 -0.0344,-0.0247 -0.0639,-0.0197 -0.0344,-0.0247 -0.0345,-0.0246 -0.0639,-0.0198 -0.0344,-0.0247 -0.0344,-0.0246 -0.0344,-0.0247 -0.0344,-0.0246 -0.0344,-0.0246 -0.0345,-0.0247 -0.0441,-0.0837 -0.0393,-0.0542 -0.0344,-0.0246 -0.0344,-0.0247 -0.0935,-0.0149 -0.0935,-0.0149 -0.0935,-0.0149 -0.0639,-0.0197 -0.064,-0.0198 -0.049,-0.1132 -0.0639,-0.0198 -0.064,-0.0198 -0.0639,-0.0198 -0.0344,-0.0246 -0.0345,-0.0247 -0.0344,-0.0246 -0.0344,-0.0247 -0.0639,-0.0197 -0.0344,-0.0247 -0.0344,-0.0246 -0.0345,-0.0247 -0.0344,-0.0246 -0.0344,-0.0247 -0.0344,-0.0246 -0.0639,-0.0198 -0.0344,-0.0246 -0.0345,-0.0247 -0.0639,-0.0198 -0.0639,-0.0197 -0.0345,-0.0247 -0.0639,-0.0198 -0.0344,-0.0246 -0.0639,-0.0198 -0.064,-0.0197 -0.0639,-0.0198 -0.064,-0.0198 -0.0639,-0.0198 -0.064,-0.0197 -0.0934,-0.0149 -0.1526,-0.0051 -0.0393,-0.0542 -0.0639,-0.0198 -0.1525,-0.0051 -0.4183,0.0388 -0.1231,-0.01 -0.0344,-0.0247 -0.0344,-0.0246 -0.0639,-0.0198 -0.0935,-0.0149 -0.3248,0.0537 z"
       style="fill:#3b3b3b;fill-rule:evenodd;stroke-width:0.538824"
       id="path14" />
  </g>
  <g
     id="Layer1001"
     transform="matrix(1.0285952,0,0,1.0285952,-1.150931,-42.956379)"
     style="stroke-width:0.9722">
    <path
       d="m 55.756066,71.073808 0.149583,0.07794 0.156011,0.227655 0.110747,0.305461 v 0.266758 l -0.110747,0.227522 -0.266491,0.227656 -0.266625,0.149583 -0.227522,-0.03254 -0.15601,-0.195114 -0.07807,-0.227522 0.03897,-0.344697 0.117041,-0.338001 0.188418,-0.234218 z m -0.266625,-1.716791 0.188686,0.156279 0.117042,0.227522 0.03897,0.305594 -0.116908,0.266625 -0.266625,0.227656 -3.921166,2.704949 -0.233949,0.03897 -0.227657,-0.07807 -0.110613,-0.188418 -0.03884,-0.227522 v -0.344697 l 0.07794,-0.266759 0.227521,-0.188418 3.921167,-2.516532 z m -1.410929,-23.73403 -0.11048,0.266759 -0.266758,0.149315 -0.767334,0.461739 -0.30546,0.149583 H 52.439928 L 52.290345,46.5008 52.212405,46.266851 v -0.22779 l 0.03884,-0.266491 0.149583,-0.227521 0.227656,-0.149584 0.461739,-0.227655 0.266491,-0.117042 0.149583,0.0391 0.19498,0.11048 0.227656,0.156011 z m 3.316406,18.213517 h 0.227522 l 0.188418,0.11048 0.266759,0.266759 0.195114,0.30546 0.494013,1.521676 0.455311,1.56694 0.03884,0.305862 -0.03884,0.227522 -0.188687,0.149583 -0.266624,-0.0391 -0.188553,-0.149583 -0.155877,-0.266491 -0.110748,-0.344698 -0.156011,-0.494146 -0.188418,-0.455177 -0.461873,-0.994989 -0.299032,-0.455043 -0.03897,-0.383801 0.07138,-0.377239 v -0.227521 z m 1.027396,-1.033958 -0.18882,-0.03254 -0.266357,0.07164 -1.372094,0.572219 -1.411196,0.689127 -0.305594,0.188686 -0.188419,0.227522 -0.0391,0.305594 -0.117041,0.838978 -0.07164,1.749198 0.0391,0.83871 -0.0391,0.799874 -0.116908,0.234084 -0.227522,0.188552 -2.132999,1.216083 -2.893502,1.794461 -0.344697,0.07164 -0.344698,-0.07164 -0.266357,-0.195114 -0.227655,-0.266491 -0.117042,-0.377105 0.07794,-4.382637 0.455177,-4.382906 0.461739,-2.783022 0.721669,-2.81543 0.877947,-2.783022 1.144304,-2.822126 0.49428,-1.027396 0.572219,-1.027396 0.188418,-0.266625 0.344698,-0.188552 3.771582,-1.716657 3.810419,-1.411197 0.760905,-0.227655 h 0.455177 l 0.227522,0.117175 0.227522,0.227522 0.03897,0.266759 1.183541,8.154086 0.949458,4.077178 1.261346,4.077043 1.677553,4.343534 -0.03884,0.305595 -0.195114,0.227521 -1.632023,1.443738 -2.022385,2.022251 -0.344697,0.416074 -0.266625,0.383801 -0.188418,0.188418 -0.305595,0.07821 -0.305861,-0.07821 -0.227522,-0.227655 -0.116908,-0.266357 -0.110614,-0.494281 -0.266491,-0.689394 -0.344697,-0.643596 -0.188686,-0.383801 -1.293887,-3.160127 -1.0665,-3.127719 z m -1.216082,-16.646443 -0.156011,0.188686 -0.227656,0.156011 -1.905209,0.760772 -0.949324,0.455311 -0.916916,0.533115 -0.266759,0.117176 -0.188418,-0.0391 -0.117042,-0.188552 v -0.234218 l 0.0391,-0.266625 0.188419,-0.227521 0.266625,-0.188553 1.183407,-0.650157 1.176979,-0.533384 0.611322,-0.227655 0.572353,-0.188419 h 0.30546 l 0.227656,0.149583 z m 6.320522,-0.227522 0.305594,-0.03883 0.227521,0.03883 0.461472,0.227522 0.299166,0.266759 0.156279,0.344697 1.866106,9.597557 -0.117176,0.266625 -0.227522,0.188552 -0.188418,0.19498 -0.0391,0.227656 0.07794,0.227522 -0.03883,0.266758 -0.188686,0.188419 -0.227656,0.07821 -0.233949,-0.07821 -0.266625,-0.188419 -0.149583,-0.344697 -1.027397,-5.410034 -0.799874,-5.748303 z m 2.594336,12.76438 0.305728,-0.03883 0.266491,0.07138 0.338269,0.194981 0.227522,0.305862 0.03897,0.305594 -0.07138,0.494012 0.07138,0.494281 0.0391,0.30546 -0.07807,0.22779 -0.266625,0.188552 -0.266759,0.07794 -0.266357,-0.07794 -0.188686,-0.227656 -0.149583,-0.30546 -0.156011,-0.643863 -0.11048,-0.650292 0.07138,-0.383532 z M 65.893434,47.5673 l 0.227656,-0.07821 0.227521,0.07821 0.305862,0.188418 0.149583,0.266759 0.116774,0.344697 0.0391,0.377105 -0.07794,0.227522 -0.188686,0.156011 h -0.266486 l -0.266625,-0.117042 -0.234218,-0.266491 -0.110479,-0.305728 -0.03884,-0.565657 z m -8.726172,6.625848 -0.195114,0.18882 -0.149583,0.30546 -0.877813,2.900198 -0.721802,3.082189 v 0.19498 h 0.149583 l 0.23395,-0.07794 1.976853,-0.838978 0.117042,-0.149583 v -0.266355 l -0.117042,-0.650292 -0.03883,-0.266624 -0.07165,-0.07807 -0.07794,-0.188686 v -0.266491 l -0.03924,-1.794729 -0.07794,-1.937617 z m 18.590756,6.099428 h -0.07821 l -0.03897,0.149583 v 0.227656 l -0.149583,3.849388 v 1.944312 l 0.266759,1.944179 -0.0391,0.266625 -0.149584,0.227655 -0.383532,0.455043 -0.266759,0.156279 -0.611054,0.227522 -2.243479,0.988293 -2.249907,1.22251 -0.416341,0.266625 -0.383533,0.03897 -0.344697,-0.156012 -0.266357,-0.188686 -0.110748,-0.305594 -0.07794,-0.533116 -0.117175,-0.533115 -0.455178,-4.265864 v -4.272158 l 0.305595,-4.265462 0.605028,-4.265595 0.30546,-1.450032 0.416074,-1.489136 0.117176,-0.227655 0.227521,-0.11048 3.537366,-2.406052 1.788301,-1.027396 1.749199,-0.877813 0.416074,-0.149583 h 0.344563 l 0.227656,0.117176 0.149583,0.266625 1.443336,3.277302 1.638852,3.309711 1.671126,2.900064 1.937751,3.121157 0.07794,0.0391 0.03254,-0.11048 -0.03897,-0.195114 -0.266624,-3.693511 -0.149584,-4.077177 0.07794,-0.227522 0.18882,-0.188419 0.30546,-0.227655 1.027397,-0.539678 1.905209,-0.910354 0.955885,-0.494281 1.788302,-1.066499 0.383533,-0.344429 0.227521,-0.156145 0.266759,0.0391 0.266357,0.195114 0.227923,0.266357 0.110346,0.305862 -0.07151,0.377105 -0.305594,2.893502 -0.156011,2.900064 0.188552,5.787272 0.19498,1.90521 0.338136,1.944312 0.500842,1.905209 0.643592,1.944313 0.0391,0.30546 -0.14958,0.305594 -0.266624,0.299166 -0.422636,0.305595 -0.377239,0.305728 -2.171834,2.093761 -1.027396,1.0665 -1.144304,1.410928 -0.266625,0.07821 -0.266759,-0.117176 -0.266357,-0.227521 -3.355241,-3.160395 -3.121292,-3.316139 -2.405917,-2.89377 z m 18.818004,12.647338 -0.22752,-0.07807 -0.18882,-0.227522 -0.15587,-0.305594 -0.14959,-1.176979 -0.039,-1.183273 0.11691,-4.265864 0.45545,-4.233054 0.65015,-4.265596 1.29389,-5.871773 0.49428,-1.638718 0.14958,-0.227522 0.26663,-0.149583 3.316138,-1.905209 1.67768,-0.877813 1.67756,-0.721936 0.30559,-0.07794 0.29917,0.117176 0.3447,0.299032 0.19511,0.344697 v 0.383533 l -1.07293,4.077177 -0.98829,4.077044 -0.41621,3.121291 -0.26676,3.199097 -0.15601,6.63241 -0.18842,0.227656 -0.30586,0.344697 -1.06623,0.455043 -1.066498,0.572353 -2.13273,1.333124 -1.26161,0.83871 -0.56566,0.461739 -0.57222,0.533116 z m 22.778278,-18.590487 0.22752,-0.117042 0.15602,-0.227656 1.13787,-2.022251 1.09891,-2.015689 0.22765,-0.305862 0.19498,-0.155877 h 0.72194 l 7.67293,-3.348947 0.26663,0.0391 0.26649,0.227656 0.18868,0.305594 v 0.338001 l -0.19511,0.650426 -0.6827,8.765275 v 2.171968 l 0.0388,2.165272 0.30559,4.382638 0.11075,0.572219 0.26636,0.611322 0.0783,0.266491 -0.0783,0.266624 -0.22752,0.188553 -2.81543,2.516531 -0.50071,0.494281 -0.41621,0.494012 -0.83871,1.027396 -0.22766,0.500843 -0.11704,0.266491 -0.22765,0.149583 -0.26663,-0.0391 -0.30559,-0.14945 -0.18869,-0.195114 -0.0779,-0.266625 -1.41093,-4.415179 -0.53311,-2.210937 -0.37724,-2.1717 v -0.22779 l -0.11704,-0.07794 -0.15601,0.0391 -2.41918,1.599615 -2.53595,1.79473 h -0.35112 l -0.30546,-0.117042 -0.26676,-0.305594 -0.19512,-0.416342 -1.46288,-3.888357 -0.11062,-0.0391 -0.039,0.195114 -0.0779,0.188418 -0.46174,3.693511 v 2.783022 0.910623 l -0.0781,0.30546 -0.18868,0.266491 -0.29917,0.195114 -0.42237,0.149583 -0.41634,0.188686 -2.42547,1.144304 -2.80244,1.560646 -0.30559,0.03897 -0.22752,-0.07807 -0.14959,-0.227522 -0.0782,-0.227521 -0.22765,-2.438325 -0.18842,-2.438593 0.18842,-4.454282 0.41634,-4.460576 0.87781,-4.415179 1.3654,-4.6885 0.14958,-0.188418 0.45532,-0.07794 0.49401,-0.188686 0.53338,-0.188552 1.06637,-0.461739 2.23678,-1.105335 2.28231,-1.216083 0.30587,-0.227655 0.26649,-0.03884 0.29916,0.149584 0.26663,0.233949 0.15601,0.377239 z m 22.91447,-0.07821 -0.17543,0.162573 -0.20167,0.32528 -0.85813,2.860961 -0.7218,3.049781 0.0388,0.19498 0.11075,0.03254 0.23395,-0.07165 1.97672,-0.83871 0.11717,-0.188686 v -0.23395 l -0.11717,-0.643863 -0.0388,-0.266357 -0.0716,-0.117176 -0.0779,-0.149583 v -0.266625 l -0.0324,-1.794461 -0.0716,-1.905477 z m 1.2422,8.498785 -0.18869,-0.03884 -0.26649,0.11048 -1.37209,0.572219 -1.67755,0.83871 -0.18869,0.227522 -0.0388,0.305862 -0.11075,0.838709 -0.0781,0.877813 v 0.838844 0.83871 l -0.0779,0.799875 -0.0716,0.227521 -0.22752,0.188687 -2.1263,1.183407 -2.42534,1.56078 -0.41634,0.227521 -0.338,0.07807 -0.3056,-0.0391 -0.29916,-0.227656 -0.22753,-0.266625 -0.0779,-0.383532 V 67.22428 l 0.44206,-4.343803 0.5137,-2.783022 0.7218,-2.776594 0.87781,-2.783023 1.13788,-2.744053 0.50071,-1.066365 0.53338,-0.988427 0.18842,-0.227656 0.34469,-0.19498 3.73235,-1.710229 3.77158,-1.410929 0.76064,-0.227522 h 0.42264 l 0.26676,0.116908 0.18842,0.22779 0.0781,0.266491 0.56579,4.038208 0.61119,3.998837 0.91692,4.038208 1.25492,4.03794 1.67768,4.343802 -0.0781,0.266357 -0.18868,0.227656 -1.59935,1.482439 -1.59332,1.606311 -0.42264,0.338002 -0.338,0.422769 -0.22766,0.377105 -0.22752,0.195114 -0.26662,0.07151 -0.3056,-0.07151 -0.22766,-0.233949 -0.11704,-0.266759 -0.11048,-0.455043 -0.26662,-0.721936 -0.3447,-0.650158 -0.18855,-0.344697 -1.29403,-3.12772 -1.04038,-3.082188 z m 16.11963,1.749198 0.14958,0.03924 0.22765,-0.07834 3.81056,-1.261346 2.40591,-0.715107 2.36026,-0.572352 2.39949,-0.422636 2.39949,-0.266625 h 0.26649 l 0.26662,0.188418 0.18869,0.266625 0.0779,0.344698 -0.0391,0.305594 -0.26635,0.344697 -0.49428,0.455177 -2.47743,3.010544 -2.4386,3.238334 -0.34442,0.117175 -0.91049,-0.0391 -0.91679,0.07794 -1.7883,0.299166 -1.79473,0.344697 -1.74893,0.461471 -1.75589,0.533384 -1.7101,0.682833 -0.61118,0.266625 -0.57222,0.344429 -0.53339,0.344697 -0.49401,0.377105 -0.26662,0.117176 h -0.3447 l -0.3447,-0.149583 -0.26649,-0.117176 -0.22752,-0.227522 -0.11704,-0.266758 -0.26676,-0.955752 -0.11048,-0.49428 -0.0779,-0.494013 -0.53312,-5.104439 -0.18868,-5.111136 0.49414,-10.436267 0.15602,-0.234217 0.26675,-0.11048 3.46573,-1.905209 3.81055,-1.983416 h 0.30559 l 0.3056,0.188686 0.22752,0.266491 0.0391,0.344698 -0.99485,5.527075 -0.79988,5.527209 -0.26662,3.309711 v 1.677553 1.677688 z m 42.5981,6.287847 0.26663,0.110747 0.15601,0.23395 0.11075,0.266759 -0.0391,0.227521 -0.18855,0.227656 -0.57222,0.494146 -0.26662,0.07807 -0.22766,-0.07807 -0.14958,-0.227521 -0.0391,-0.22779 0.0391,-0.305594 0.22765,-0.344697 0.33827,-0.266357 z m 0,-1.79473 0.3447,0.195114 0.14958,0.266759 0.0779,0.266625 -0.11704,0.227656 -0.22766,0.188418 -4.91575,3.394345 -0.22752,-0.0391 -0.14958,-0.149583 -0.0781,-0.227521 v -0.273187 l 0.0781,-0.299166 0.22752,-0.194847 4.49338,-3.19923 z m -8.34264,-19.695956 -0.0779,0.0391 -0.11048,0.188686 -0.0783,0.23395 -0.19498,0.49428 -0.14945,0.494013 -0.0782,0.49428 v 0.533116 l -0.0779,0.22779 -0.18842,0.116907 h -0.22765 l -0.22753,-0.195114 -0.11074,-0.227655 -0.11691,-0.377105 0.0781,-0.799875 0.11048,-0.650157 0.15601,-0.611188 0.26663,-0.643864 0.49428,-0.877813 0.18842,-0.188418 0.22752,-0.0391 0.23421,0.11048 0.2665,0.266625 0.11074,0.305594 -0.11074,0.305862 -0.11691,0.188419 0.039,0.07794 0.14958,-0.03883 0.22752,-0.07151 0.42264,-0.266759 0.83897,-0.689126 0.53312,-0.344698 0.53312,-0.266624 0.34469,-0.07164 0.29917,0.07164 0.19511,0.234217 0.11048,0.227522 -0.11048,0.266491 -0.18868,0.149583 -1.02084,0.689394 -1.02096,0.767333 -0.33801,0.227522 -0.18868,0.227522 -0.0388,0.305594 -0.37081,1.476145 -0.18842,1.488868 -0.11074,1.482573 -0.0388,0.767333 0.0388,0.721802 -0.0779,0.227656 -0.15601,0.188686 -0.22753,0.03884 -0.26675,-0.11048 -0.22753,-0.227522 -0.14958,-0.344697 -0.0781,-0.305594 -0.22752,-0.383801 -0.0779,-0.41594 z m 8.30381,6.593575 0.26635,-0.07794 2.36695,-1.450032 2.36039,-1.176979 0.26676,-0.195114 0.11034,-0.266759 0.95616,-3.810419 0.18841,-0.188418 0.3056,-0.117042 2.66611,-1.482573 2.63344,-1.294021 0.29917,-0.117176 0.38353,0.0391 0.30573,0.188419 0.18855,0.305862 0.11704,0.344429 -0.11048,0.383801 -1.19666,6.801545 -0.29247,3.400772 -0.22752,3.400772 0.22752,3.322834 0.26662,3.556918 -0.19498,0.227521 -0.30586,0.234084 -0.46147,0.266625 -0.72823,0.266758 -0.3447,0.14945 -0.35112,0.234083 -2.57506,1.638718 -2.77003,1.950741 h -0.22752 l -0.19511,-0.227656 -0.11718,-0.305728 v -0.383532 l 0.14302,-0.461873 0.13673,-0.422636 0.0975,-0.877813 0.0455,-1.762054 v -4.753315 l 0.30546,-5.059042 h -0.15588 l -0.22765,0.117175 -0.82586,0.572219 -0.83228,0.682699 -1.28746,1.105469 -1.28746,1.26148 -0.26033,0.305594 -0.0779,0.338001 v 4.994094 l -0.18841,0.533116 -0.0781,0.305594 -0.18868,0.266625 -0.26663,0.149583 -0.49401,0.195114 -0.48785,0.227522 -0.9883,0.533249 -2.69196,1.86624 -0.7218,0.650292 -0.26676,0.149583 h -0.22752 l -0.18855,-0.149583 -0.30546,-0.383801 -0.18869,-0.266491 -0.11048,-0.377104 -0.45517,-4.142127 -0.0391,-2.054658 0.14959,-2.048498 1.78803,-12.881422 0.18869,-0.188418 0.98829,-0.877814 0.56592,-0.416341 0.53312,-0.344698 2.27589,-1.404501 1.17697,-0.60476 1.13788,-0.49428 0.26676,-0.07794 0.26636,0.07794 0.18868,0.18882 0.0781,0.259929 v 0.53325 z m 0.79974,-1.372094 -0.18869,-0.266625 -0.0779,-0.227655 V 53.81604 l 0.15588,-0.233949 0.22765,-0.188687 0.83885,-0.494012 0.79987,-0.533384 0.26676,-0.149583 0.30546,0.03267 0.26649,0.188553 0.14959,0.266625 v 0.26649 l -0.11691,0.227522 -0.22752,0.149583 -1.67126,1.001551 -0.38354,0.188418 z m 0.34469,-3.582763 0.15602,-0.07807 0.22752,-0.07151 0.30559,0.11048 0.22752,0.195114 0.14959,0.299166 v 0.305461 l -0.11048,0.266758 -0.23422,0.23395 -0.26636,0.03267 -0.22765,-0.110614 -0.18869,-0.195114 -0.11704,-0.266491 -0.0714,-0.377104 z m 7.77042,-4.916021 -0.11048,0.22779 -0.23421,0.188418 -0.61119,0.338136 -0.65016,0.416208 -0.61775,0.416207 -0.59177,0.54624 -0.26662,0.116908 -0.26676,-0.03897 -0.15588,-0.188686 -0.0392,-0.227521 -0.0324,-0.266491 0.11074,-0.266625 0.22752,-0.195114 0.46161,-0.305595 1.86624,-1.33299 0.22766,-0.07151 0.26635,0.07794 0.22766,0.188686 z m 4.23306,4.727335 0.26662,-0.07807 h 0.3056 l 0.3771,0.0391 0.26676,0.149583 0.15601,0.266491 0.0391,0.266758 -0.91692,7.926566 -0.18869,0.156011 -0.22765,0.0391 -0.3056,-0.0391 -0.30546,-0.195115 -0.19511,-0.227655 -0.0717,-0.344564 0.22766,-3.803856 0.45504,-3.849522 z m 26.47808,11.847731 -0.26662,0.266357 -0.57222,0.799875 -0.65029,0.838844 -0.87782,0.799874 -1.11176,0.877813 -0.41621,0.266625 -4.66881,2.516398 -4.62328,2.282314 -1.60631,0.611456 -0.76064,0.266625 -0.80617,0.188418 -0.79987,0.07807 -0.80644,0.0391 -1.22251,-0.149583 -1.22224,-0.305594 -0.3447,-0.195115 -0.37711,-0.188686 -0.3838,-0.305594 -0.34443,-0.377105 -0.3838,-0.500708 -0.34469,-0.494281 -0.61119,-1.027262 -0.34457,-0.611188 -0.22765,-0.643864 -0.22752,-0.611054 -0.15601,-0.650291 -0.3447,-1.97672 -0.22752,-2.022385 v -1.983416 l 0.1169,-2.015689 0.29917,-2.516531 0.26663,-1.293888 0.38353,-1.222376 0.15628,-0.416342 0.26635,-0.344697 0.22766,-0.266357 0.30573,-0.266759 0.53311,-0.49428 0.53325,-0.422636 3.08206,-1.827137 1.56078,-0.799607 1.56694,-0.689394 1.82727,-0.682699 1.82714,-0.572219 1.82727,-0.416342 1.83383,-0.266357 0.72153,-0.07834 0.72194,0.149583 0.72823,0.234217 0.49415,0.227656 0.26675,0.266625 0.26636,0.416074 0.30586,0.383532 0.3056,0.416208 0.26662,0.461873 2.20411,5.026233 0.87808,2.516532 0.72823,2.516531 0.18842,0.94919 0.0781,0.956019 v 0.949458 0.955752 z m -14.44193,-11.431523 -0.45518,0.383533 -0.30573,0.266758 -0.22765,0.305594 -0.57222,1.176846 -0.11691,0.3838 -0.3771,1.638585 -0.26676,1.638718 -0.11704,1.638585 v 0.79974 0.838978 l 0.18868,2.932605 0.26649,1.488868 0.42264,1.482573 0.23422,0.455311 0.30559,0.461605 0.3838,0.416208 0.42264,0.266491 0.50057,0.117176 0.53954,-0.03897 0.53339,-0.117042 0.53954,-0.227656 0.53981,-0.305728 0.50071,-0.344429 0.49415,-0.416342 1.00142,-0.799741 1.07279,-0.994988 0.53981,-0.533116 0.53981,-0.565523 0.3056,-0.500976 0.26662,-0.455178 0.15601,-0.79974 v -0.611189 l -0.0325,-0.611322 -1.02097,-2.730795 -1.1897,-2.711646 -0.26676,-0.49428 -0.30559,-0.500709 -0.76734,-0.988293 -0.3771,-0.377104 -0.3838,-0.344698 -0.76064,-0.572219 -0.38366,-0.227655 -0.41621,-0.227522 -0.49428,-0.156011 -0.46147,-0.07821 z m 23.29171,10.442963 0.31215,-0.03884 1.25492,-0.630874 1.20309,-0.702116 0.83871,-0.533384 0.87782,-0.572219 0.30586,-0.266491 0.18842,-0.305728 0.19511,-0.494146 0.14958,-0.494147 0.0388,-0.500708 -0.0388,-0.49428 -0.3838,-1.677554 -0.30559,-0.799875 -0.30559,-0.832282 -0.76734,-1.567207 -0.88424,-1.599615 -0.19498,-0.266491 -0.22765,-0.188687 -0.26663,-0.07794 -0.53981,-0.03884 -0.50071,0.07794 -0.95575,0.188418 -0.22752,0.07807 -0.15628,0.156145 -0.0388,0.227655 v 2.74392 2.776594 l 0.351,5.715762 z m 0.94303,3.387916 0.0388,0.34443 0.3447,1.372093 0.3771,1.411197 v 0.227521 l -0.11048,0.266491 -0.22752,0.22779 -0.34469,0.266491 -0.60476,0.188686 -0.53312,0.227522 -1.17698,0.611188 -0.26662,0.07794 -0.45518,0.110747 -0.7218,0.344698 -0.33814,0.188418 -1.36566,0.916916 -0.94933,0.611189 -0.30559,0.149583 h -0.338 l -0.3056,-0.117176 -0.26662,-0.227522 -0.14959,-0.305594 -0.34469,-0.760637 -0.26649,-0.761039 -0.22779,-0.799741 -0.14932,-0.760771 -0.49428,-4.194219 -0.22752,-4.187524 v -4.187523 l 0.38353,-4.194219 0.14958,-0.760637 0.11705,-0.377239 0.18855,-0.383801 0.18868,-0.344429 0.30547,-0.227522 0.49428,-0.188686 1.489,-0.799875 2.21093,-0.955751 2.21081,-0.760905 4.41504,-1.144304 1.14457,-0.227522 1.18341,-0.149583 1.14444,-0.0391 1.17698,0.0391 0.61132,0.11048 0.41608,0.266625 0.30559,0.305594 0.30573,0.344697 0.42263,0.41594 0.33814,0.461873 0.38353,0.721802 0.3447,0.721534 0.22752,0.728498 0.18869,0.721534 0.30559,1.56078 0.18869,1.638585 0.1169,1.599615 v 1.599615 l -0.1169,0.799874 -0.26676,0.533116 -0.45505,0.494281 z m 19.66355,-1.905209 0.11048,0.03897 0.15601,-0.03897 2.17183,-0.305728 2.20438,-0.188419 4.46057,-0.149583 0.30586,0.0391 0.2665,0.149316 0.22752,0.227521 0.22752,0.344698 0.0782,0.344697 -0.14959,0.338002 -0.23408,0.422635 -0.26649,0.416342 -0.30586,0.533116 -0.56553,1.450032 -0.46187,1.489135 -0.14958,0.377239 -0.26636,0.344697 -0.22766,0.188419 -3.58303,0.455177 -3.54366,0.689261 -3.42688,0.916916 -3.43332,1.176979 -0.49414,0.07807 -0.41634,-0.07807 -0.26636,-0.149583 -0.19512,-0.227521 -0.0716,-0.227522 -0.26663,-2.594604 -0.1169,-2.555501 0.0388,-4.265729 0.37724,-4.265596 0.65016,-4.26573 1.02739,-4.610159 0.19512,-0.305594 0.26662,-0.117176 3.81042,-1.105335 3.88207,-0.799874 3.9991,-0.533116 4.07704,-0.377105 0.38354,0.07794 0.3838,0.266759 0.26649,0.338001 0.11061,0.305594 -0.0782,0.266625 -0.18842,0.195114 -0.79988,0.682699 -0.34456,0.344698 -0.3447,0.416074 -0.83871,1.066499 -0.7609,1.144438 -0.26649,0.455177 -0.72181,1.755626 -0.11717,0.188687 -0.22752,0.03883 h -0.79988 l -0.76064,-0.03241 -3.38778,0.409646 -0.61132,0.155877 -0.26676,0.110748 -0.14931,0.227655 -0.3447,0.383533 -0.3838,0.494146 -0.11048,0.227656 v 0.195114 l 0.14958,0.07151 0.22766,0.03897 2.32784,-0.227656 2.39949,-0.03884 0.30559,-0.0391 0.26663,0.117042 0.22752,0.227655 0.22766,0.30546 0.0779,0.266759 -0.11705,0.266491 -0.22765,0.227522 -0.26636,0.49428 -0.22765,0.383801 -0.26663,0.455043 -0.45518,1.066365 -0.15601,0.533384 -0.11061,0.571951 -0.0781,0.266759 -0.11705,0.155877 -0.22765,0.07165 -0.30546,0.01942 -0.64386,0.06522 -0.61119,0.149583 -0.65016,0.149583 -0.61146,0.227522 -0.22752,0.116908 -0.11048,0.188686 -0.0391,0.266625 -0.22752,0.494012 -0.19512,0.305594 z m 29.9505,-0.266625 0.22765,-0.11048 0.22752,-0.0391 0.26663,0.0391 0.18855,0.149315 0.15615,0.22779 0.45517,1.638584 0.65029,1.599615 0.18842,0.422636 0.0391,0.266759 -0.11705,0.188419 -0.14958,0.07794 -0.22765,-0.03884 -0.3056,-0.117042 -0.26662,-0.188686 -0.15601,-0.305594 -1.17698,-3.465722 z m 1.0665,-2.171834 0.14958,-0.11048 0.22765,-0.0391 0.30546,0.0391 0.26676,0.149583 0.22753,0.30546 1.5281,4.304699 0.87781,2.132731 1.0274,2.171968 0.0715,0.227522 -0.0715,0.233949 -0.19512,0.110748 h -0.18841 l -0.3447,-0.07794 -0.29917,-0.188821 -0.19511,-0.30546 -0.41608,-0.949457 -0.46173,-0.916917 -1.44361,-3.387782 -0.57208,-1.716657 -0.45531,-1.677688 z m 17.25749,8.914858 -0.30546,-0.07138 -0.18855,-0.195114 -0.11704,-0.305862 0.0388,-0.298898 2.62702,-8.537887 0.19511,-0.188553 0.26676,-0.07794 0.26662,0.07794 0.22753,0.188553 0.14958,0.266624 v 0.344698 l -1.4045,3.888357 -1.10561,3.921166 -0.26649,0.533116 -0.11704,0.266625 z m -6.51537,-8.719878 0.0779,-0.07794 0.0781,-0.188687 1.52167,-4.954856 1.02726,-2.743919 0.61146,-1.372094 0.6827,-1.372093 0.15601,-0.227522 0.22752,-0.117176 h 0.6827 l 3.88863,-1.788033 4.26559,-1.677688 0.3447,0.07807 0.38353,0.266625 0.22752,0.305594 0.0717,0.305594 -0.14959,0.30546 -1.56051,2.282448 -1.41093,2.327845 -1.90547,3.732614 -1.59948,3.73248 -1.29403,3.693243 -0.99485,4.116146 -0.26676,0.305595 -0.338,0.344697 -0.42264,0.227521 -1.41093,0.949458 -1.44373,1.033824 -3.16683,2.471001 -0.26635,0.07794 -0.29917,-0.110346 -0.3838,-0.234217 -0.26649,-0.299166 -0.83898,-1.222511 -1.67755,-2.893502 -1.44347,-2.900064 -1.26162,-2.89377 -0.94932,-2.893503 -1.06637,-3.771449 -0.38366,-1.866374 -0.3056,-1.872668 0.0391,-0.266491 0.0779,-0.188686 0.22765,-0.149583 0.57222,-0.305594 2.43833,-2.477428 2.74418,-2.893503 0.338,-0.117041 0.50058,-0.07807 0.26676,0.07807 0.22752,0.156011 0.11048,0.266624 1.14457,6.398327 1.75563,7.354346 0.30572,0.910489 z m 9.29866,3.73248 0.14959,-0.03884 0.22752,0.07794 0.23408,0.227522 0.11035,0.266491 -0.0388,0.305862 -0.3771,1.066231 -0.3838,1.372094 -0.22766,0.227522 -0.22752,0.07794 -0.22752,-0.07794 -0.15601,-0.188419 -0.11048,-0.266759 0.0325,-0.461739 0.30546,-0.988293 0.49428,-1.33299 z m -8.99306,-9.259555 -0.22766,0.117042 h -0.18842 l -0.30572,-0.155878 -0.15601,-0.227923 -0.14959,-0.266357 -1.59961,-8.076148 0.11061,-0.227656 0.22766,-0.156011 0.30546,-0.149583 0.34469,-0.227522 0.3447,-0.0391 0.26649,0.11048 0.22752,0.156145 0.0781,0.266491 v 0.305862 l 0.14945,4.109451 0.22765,2.06122 0.3838,2.054792 z m -0.039,-8.271263 0.30559,-0.07138 0.22766,0.07138 0.22752,0.117042 0.19512,0.227656 0.0324,0.266624 0.0781,1.261346 v 1.255186 l -0.039,0.227655 -0.14959,0.188419 -0.26662,0.0391 -0.26676,-0.110748 -0.18842,-0.19498 -0.0779,-0.266491 v -1.33299 l -0.0391,-0.682967 -0.0781,-0.650157 z m 8.03718,-1.560512 -0.0717,0.156145 -0.19511,0.149316 -0.29917,0.156278 -0.26649,0.03254 -0.26662,-0.149583 -0.11704,-0.266759 -0.0781,-0.305594 -0.0388,-0.227522 0.15601,-0.188418 0.22752,-0.117176 0.3056,-0.0391 0.30559,0.156279 0.22752,0.266357 z m 3.6607,0.383801 -0.15588,0.266357 -0.22765,0.110748 -0.94933,0.233949 -0.95588,0.299166 -0.91049,0.344698 -0.91665,0.461471 -0.64386,0.266759 -0.65029,0.227521 -0.30546,0.0391 -0.22766,-0.117042 -0.15614,-0.227522 -0.0325,-0.266759 v -0.227521 l 0.11048,-0.195114 0.26676,-0.07164 2.39936,-1.03369 2.74419,-0.871519 0.22752,0.149583 0.22765,0.227655 z m 10.02675,8.381474 -0.17542,0.162573 -0.20181,0.32528 -0.85813,2.860961 -0.7218,3.049781 0.0388,0.19498 0.11075,0.03254 0.23395,-0.07165 1.97685,-0.83871 0.11704,-0.188686 v -0.23395 l -0.11704,-0.643863 -0.039,-0.266357 -0.0715,-0.117176 -0.0781,-0.149583 v -0.266625 l -0.0324,-1.794461 -0.0716,-1.905477 z m 1.24207,8.498785 -0.18869,-0.03884 -0.26636,0.11048 -1.37209,0.572219 -1.67769,0.83871 -0.18868,0.227522 -0.0388,0.305862 -0.11075,0.838709 -0.0779,0.877813 v 0.838844 0.83871 l -0.0779,0.799875 -0.0716,0.227521 -0.22752,0.188687 -2.12644,1.183407 -2.42533,1.56078 -0.41621,0.227521 -0.338,0.07807 -0.3056,-0.0391 -0.29916,-0.227656 -0.22752,-0.266625 -0.0781,-0.383532 V 67.22428 l 0.44219,-4.343803 0.5137,-2.783022 0.7218,-2.776594 0.87781,-2.783023 1.13788,-2.744053 0.50057,-1.066365 0.53339,-0.988427 0.18842,-0.227656 0.34469,-0.19498 3.73248,-1.710229 3.77145,-1.410929 0.76077,-0.227522 h 0.42264 l 0.26663,0.116908 0.18855,0.22779 0.0779,0.266491 0.56579,4.038208 0.61119,3.998837 0.91691,4.038208 1.25492,4.03794 1.67769,4.343802 -0.0779,0.266357 -0.18869,0.227656 -1.59948,1.482439 -1.59319,1.606311 -0.42263,0.338002 -0.33814,0.422769 -0.22752,0.377105 -0.22765,0.195114 -0.26663,0.07151 -0.30559,-0.07151 -0.22753,-0.233949 -0.11717,-0.266759 -0.11035,-0.455043 -0.26676,-0.721936 -0.34469,-0.650158 -0.18842,-0.344697 -1.29402,-3.12772 -1.04052,-3.082188 z m 17.71937,-1.261346 0.29916,-0.0391 0.87139,-0.305595 0.94276,-0.416208 1.46945,-0.799874 0.75434,-0.455043 0.75435,-0.53325 0.33827,-0.266625 0.29916,-0.266491 0.2989,-0.305728 0.26663,-0.305594 0.22765,-0.305594 0.14958,-0.344697 v -0.533116 l -0.0391,-0.494281 -0.0781,-0.650157 -0.14958,-0.682699 -0.18842,-0.650291 -0.26663,-0.643864 -0.99499,-1.983148 -1.22251,-1.983148 -0.3771,-0.416341 -0.34443,-0.188687 -0.3838,-0.07794 -0.83871,0.07794 -0.83898,0.188687 -0.26662,0.07807 -0.14932,0.11048 -0.0782,0.227789 v 0.72823 l -0.45517,5.448869 z m 9.90971,0.422636 0.0716,0.188552 0.15602,0.227522 0.91048,1.027396 0.99486,1.066499 0.79961,0.799875 0.7218,0.767333 0.26676,0.188418 0.34469,0.07794 h 0.37711 l 0.30559,0.149583 0.15601,0.188686 0.0391,0.234084 -0.0781,0.227521 -0.22752,0.188687 -1.90547,1.371825 -1.94405,1.450032 -0.45518,0.377239 -0.87781,0.877947 -0.3447,0.266491 -0.38366,0.149583 h -0.26649 l -0.26676,-0.188418 -3.77145,-3.426886 -1.17698,-1.144438 -1.41093,-1.599749 -0.38353,-0.344564 -0.30587,-0.188552 -0.26649,0.03897 -0.53325,0.110614 -0.18855,0.07807 -0.0391,0.188418 0.0781,0.195114 0.11704,0.604761 0.0325,0.572219 0.0782,0.572219 0.11677,0.611322 v 0.305594 l -0.19498,0.266491 -0.22765,0.227521 -1.94405,0.916917 -3.08218,1.710095 -1.10561,0.806436 -0.34443,0.299166 -0.26676,0.116908 h -0.22752 l -0.22752,-0.188418 -0.11717,-0.227656 -0.3056,-0.72823 -0.22752,-0.721802 -0.41621,-1.450032 -0.19511,-1.066499 -0.14959,-0.988293 -0.22765,-2.100324 v -4.148688 -2.971708 l 0.22765,-3.010544 0.45518,-3.010544 0.80644,-3.238468 0.14958,-0.155877 0.22752,-0.07807 2.66585,-0.871386 3.2773,-0.838709 6.32695,-0.760906 3.16026,-0.117175 3.16669,0.07834 0.37724,0.07124 0.3447,0.234217 0.38353,0.416074 0.33827,0.494281 0.34443,0.461739 0.26662,0.533115 0.26676,0.494281 0.49402,1.215814 0.42263,1.183675 0.30586,1.144304 0.26636,1.216083 0.14958,1.066232 0.0716,1.105602 v 1.066232 l -0.0716,1.105468 -0.11704,0.611322 -0.22765,0.611055 -0.14959,0.266759 -0.23395,0.149583 -0.26662,0.03884 -0.22766,0.07821 -0.22752,0.188553 -0.14958,0.188686 -0.26649,0.116774 -3.81055,1.788435 z m 14.63075,-1.638719 h -0.0782 l -0.0388,0.149583 v 0.227656 l -0.14958,3.849388 v 1.944312 l 0.26662,1.944179 -0.0391,0.266625 -0.14958,0.227655 -0.38354,0.455043 -0.26675,0.156279 -0.61106,0.227522 -2.24348,0.988293 -2.2499,1.22251 -0.41621,0.266625 -0.38353,0.03897 -0.3447,-0.156012 -0.26649,-0.188686 -0.11075,-0.305594 -0.0779,-0.533116 -0.11717,-0.533115 -0.45505,-4.265864 v -4.272158 l 0.3056,-4.265462 0.60489,-4.265595 0.30559,-1.450032 0.41594,-1.489136 0.11718,-0.227655 0.22752,-0.11048 3.53737,-2.406052 1.7883,-1.027396 1.7492,-0.877813 0.41607,-0.149583 h 0.3447 l 0.22752,0.117176 0.14958,0.266625 1.44347,3.277302 1.63872,3.309711 1.67126,2.900064 1.93762,3.121157 0.0781,0.0391 0.0324,-0.11048 -0.0388,-0.195114 -0.26676,-3.693511 -0.14958,-4.077177 0.0781,-0.227522 0.18869,-0.188419 0.30559,-0.227655 1.0274,-0.539678 1.90508,-0.910354 0.95588,-0.494281 1.7883,-1.066499 0.38354,-0.344429 0.22765,-0.156145 0.26663,0.0391 0.26649,0.195114 0.22779,0.266357 0.11048,0.305862 -0.0717,0.377105 -0.30559,2.893502 -0.15588,2.900064 0.18842,5.787272 0.19511,1.90521 0.338,1.944312 0.50085,1.905209 0.64359,1.944313 0.0392,0.30546 -0.14958,0.305594 -0.26676,0.299166 -0.42264,0.305595 -0.3771,0.305728 -2.17197,2.093761 -1.0274,1.0665 -1.14417,1.410928 -0.26676,0.07821 -0.26662,-0.117176 -0.26649,-0.227521 -3.35524,-3.160395 -3.12129,-3.316139 -2.40592,-2.89377 z m 27.47924,-6.021356 -0.17543,0.162573 -0.20168,0.32528 -0.85813,2.860961 -0.7218,3.049781 0.0388,0.19498 0.11074,0.03254 0.23395,-0.07165 1.97672,-0.83871 0.11718,-0.188686 v -0.23395 l -0.11718,-0.643863 -0.0388,-0.266357 -0.0716,-0.117176 -0.0779,-0.149583 v -0.266625 l -0.0324,-1.794461 -0.0716,-1.905477 z m 1.24219,8.498785 -0.18868,-0.03884 -0.2665,0.11048 -1.37209,0.572219 -1.67755,0.83871 -0.18869,0.227522 -0.0388,0.305862 -0.11075,0.838709 -0.0781,0.877813 v 0.838844 0.83871 l -0.0779,0.799875 -0.0716,0.227521 -0.22752,0.188687 -2.1263,1.183407 -2.42534,1.56078 -0.41634,0.227521 -0.338,0.07807 -0.30559,-0.0391 -0.29917,-0.227656 -0.22752,-0.266625 -0.0779,-0.383532 V 67.22428 l 0.44205,-4.343803 0.5137,-2.783022 0.7218,-2.776594 0.87782,-2.783023 1.13787,-2.744053 0.50071,-1.066365 0.53338,-0.988427 0.18842,-0.227656 0.3447,-0.19498 3.73235,-1.710229 3.77158,-1.410929 0.76064,-0.227522 h 0.42263 l 0.26676,0.116908 0.18842,0.22779 0.0781,0.266491 0.56579,4.038208 0.61119,3.998837 0.91692,4.038208 1.25492,4.03794 1.67768,4.343802 -0.0781,0.266357 -0.18869,0.227656 -1.59934,1.482439 -1.59332,1.606311 -0.42264,0.338002 -0.338,0.422769 -0.22766,0.377105 -0.22752,0.195114 -0.26662,0.07151 -0.3056,-0.07151 -0.22765,-0.233949 -0.11705,-0.266759 -0.11048,-0.455043 -0.26662,-0.721936 -0.3447,-0.650158 -0.18855,-0.344697 -1.29402,-3.12772 -1.04039,-3.082188 z"
       style="fill:#f07c00;fill-rule:evenodd;stroke:#ffffff;stroke-width:0.485808;stroke-linecap:butt;stroke-linejoin:miter;stroke-dasharray:none"
       id="path16" />
  </g>
</svg>
